<svg width="30" height="32" viewBox="0 0 30 32" fill="none" xmlns="http://www.w3.org/2000/svg">
<path d="M29.1022 10.8204C29.1041 8.97853 28.6354 7.16673 27.7405 5.55693C26.8455 3.94712 25.5541 2.5927 23.9886 1.62221C22.4232 0.651714 20.6358 0.0973433 18.7959 0.0116946C16.9561 -0.0739541 15.1248 0.311965 13.476 1.13283C11.8272 1.95369 10.4155 3.18227 9.37489 4.70197C8.33426 6.22167 7.69923 7.98209 7.53007 9.81615C7.3609 11.6502 7.66321 13.4971 8.4083 15.1815C9.15339 16.8659 10.3165 18.332 11.7874 19.4406V24.7282C11.7874 25.5038 12.7011 26.035 13.5582 25.7517L17.7054 23.3576C17.9536 23.2183 18.2335 23.1451 18.5182 23.1451C18.8028 23.1451 19.0827 23.2183 19.331 23.3576L23.4534 25.7588C24.2963 26.0421 25.2242 25.5108 25.2242 24.7352V19.1218C26.4402 18.1076 27.4181 16.838 28.0883 15.4033C28.7585 13.9686 29.1047 12.4039 29.1022 10.8204Z" fill="url(#paint0_linear_5932_4910)"/>
<foreignObject x="-9.98145" y="-8.0791" width="45.1807" height="50.0791"><div xmlns="http://www.w3.org/1999/xhtml" style="backdrop-filter:blur(5px);clip-path:url(#bgblur_0_5932_4910_clip_path);height:100%;width:100%"></div></foreignObject><path data-figma-bg-blur-radius="10" d="M5.51172 24.3027L5.31348 24.1523C3.67196 22.9102 2.37487 21.2695 1.54492 19.3857C0.714942 17.5019 0.379983 15.4374 0.571289 13.3877C0.762665 11.3379 1.47424 9.37061 2.63867 7.67285C3.80309 5.97515 5.38135 4.60232 7.22461 3.68555C9.06774 2.76884 11.1146 2.33791 13.1709 2.43359C15.2273 2.52937 17.2255 3.1493 18.9756 4.2334C20.7256 5.31752 22.1703 6.83035 23.1719 8.62891C24.1734 10.4274 24.6991 12.4522 24.6992 14.5107V14.5117C24.7 16.2844 24.3104 18.0357 23.5576 19.6406C22.8047 21.2458 21.7067 22.666 20.3428 23.7988L20.1621 23.9482V30.7178C20.1619 30.9566 20.0233 31.1887 19.7559 31.3447C19.4972 31.4954 19.1514 31.5483 18.8115 31.4463L14.0381 28.6904L14.0342 28.6885L13.8955 28.6152C13.5667 28.4566 13.2053 28.374 12.8389 28.374C12.4203 28.3741 12.009 28.4827 11.6445 28.6885L11.6396 28.6904L6.8623 31.4463C6.52248 31.5481 6.17644 31.4955 5.91797 31.3447C5.65057 31.1887 5.51188 30.9565 5.51172 30.7178V24.3027Z" fill="url(#paint1_linear_5932_4910)" fill-opacity="0.25" stroke="url(#paint2_linear_5932_4910)"/>
<path opacity="0.31" d="M12.6098 5.05079C10.7385 5.04869 8.90851 5.60169 7.3515 6.63985C5.79449 7.678 4.58037 9.15464 3.86277 10.883C3.14517 12.6113 2.95632 14.5136 3.32012 16.3493C3.68392 18.185 4.58402 19.8715 5.90654 21.1955C7.22906 22.5195 8.91457 23.4215 10.7498 23.7874C12.5851 24.1532 14.4876 23.9665 16.2168 23.2509C17.9459 22.5352 19.4239 21.3228 20.4638 19.7669C21.5037 18.2111 22.0588 16.3817 22.0588 14.5104C22.0588 12.0034 21.0636 9.59889 19.2919 7.82518C17.5202 6.05147 15.1168 5.0536 12.6098 5.05079ZM18.0108 13.5081L15.7335 15.162C15.6175 15.2494 15.5312 15.3703 15.4862 15.5084C15.4412 15.6465 15.4398 15.7951 15.4821 15.9341L16.3533 18.608C16.3874 18.7449 16.3799 18.8889 16.3316 19.0215C16.2833 19.1541 16.1965 19.2693 16.0824 19.3522C15.9682 19.4352 15.8319 19.4822 15.6908 19.4871C15.5498 19.4921 15.4105 19.4548 15.2908 19.38L13.0171 17.7261C12.8982 17.6431 12.7567 17.5985 12.6116 17.5985C12.4666 17.5985 12.325 17.6431 12.2061 17.7261L9.92887 19.3836C9.81135 19.4718 9.66866 19.52 9.52173 19.5211C9.3748 19.5223 9.23138 19.4763 9.11251 19.3899C8.99365 19.3035 8.90561 19.1813 8.86131 19.0412C8.81701 18.9011 8.81879 18.7505 8.86639 18.6115L9.73408 15.9376C9.77638 15.7987 9.77494 15.6501 9.72996 15.512C9.68499 15.3739 9.59864 15.2529 9.48263 15.1655L7.20893 13.5116C7.10178 13.4208 7.02404 13.3002 6.98559 13.1651C6.94714 13.0301 6.94971 12.8866 6.99299 12.753C7.03626 12.6194 7.11828 12.5016 7.22861 12.4148C7.33895 12.3279 7.47264 12.2757 7.61267 12.265H10.4247C10.5697 12.262 10.7103 12.2145 10.8275 12.129C10.9447 12.0435 11.0328 11.9241 11.0799 11.7869L11.9547 9.11298C12.008 8.98307 12.0988 8.87195 12.2155 8.79375C12.3321 8.71556 12.4694 8.6738 12.6098 8.6738C12.7503 8.6738 12.8876 8.71556 13.0042 8.79375C13.1209 8.87195 13.2117 8.98307 13.265 9.11298L14.1363 11.7904C14.184 11.9269 14.2723 12.0456 14.3894 12.1304C14.5066 12.2153 14.6469 12.2622 14.7915 12.265H17.6035C17.743 12.2758 17.8762 12.3277 17.9862 12.4141C18.0963 12.5006 18.1783 12.6177 18.2219 12.7507C18.2654 12.8836 18.2686 13.0265 18.2311 13.1614C18.1935 13.2962 18.1168 13.4168 18.0108 13.5081Z" fill="url(#paint3_linear_5932_4910)"/>
<path opacity="0.31" d="M12.6376 27.1009C9.90047 27.102 7.23837 26.2063 5.05859 24.5509V30.7168C5.05859 31.6199 6.12107 32.2397 7.10563 31.9104L11.9363 29.1231C12.2259 28.9596 12.5529 28.8736 12.8855 28.8736C13.2181 28.8736 13.545 28.9596 13.8346 29.1231L18.6618 31.9104C19.6464 32.2397 20.7088 31.6199 20.7088 30.7168V24.1826C18.4457 26.0749 15.5876 27.1083 12.6376 27.1009Z" fill="white" fill-opacity="0.25"/>
<path opacity="0.5" d="M12.6094 2.44823C15.0884 2.44778 17.5073 3.21135 19.5368 4.63497C21.5662 6.0586 23.1076 8.07311 23.9511 10.4042C24.7946 12.7353 24.8992 15.2697 24.2506 17.6624C23.602 20.055 22.2318 22.1897 20.3265 23.7756L20.1352 23.935V30.7171C20.1352 31.1244 19.6925 31.4679 19.1684 31.4679C19.0558 31.4686 18.9437 31.4531 18.8355 31.4219L14.0579 28.663C13.6869 28.4545 13.2686 28.345 12.8431 28.345C12.4176 28.345 11.9993 28.4545 11.6283 28.663L6.85075 31.4255C6.73564 31.4583 6.61627 31.4738 6.49659 31.4715C5.97243 31.4715 5.52974 31.1173 5.52974 30.7207V24.2892L5.32078 24.1298C3.30383 22.6063 1.81661 20.4875 1.06925 18.0728C0.321887 15.6582 0.352181 13.0697 1.15585 10.6732C1.95952 8.27666 3.49592 6.19326 5.54797 4.71737C7.60002 3.24148 10.064 2.44771 12.5916 2.44823M12.5916 1.91699C9.95307 1.91671 7.38109 2.74542 5.23899 4.28605C3.0969 5.82668 1.49298 8.00138 0.653774 10.5029C-0.185431 13.0045 -0.217497 15.7065 0.562105 18.2273C1.34171 20.7481 2.89357 22.9602 4.9985 24.5512V30.7171C4.9985 31.4538 5.70681 31.9992 6.49659 31.9992C6.68312 31.9992 6.86846 31.9693 7.04553 31.9106L11.8762 29.1234C12.1662 28.9609 12.493 28.8755 12.8254 28.8755C13.1578 28.8755 13.4846 28.9609 13.7745 29.1234L18.6017 31.9106C18.7789 31.9689 18.9642 31.9988 19.1507 31.9992C19.944 31.9992 20.6487 31.4538 20.6487 30.7171V24.1829C22.6376 22.527 24.0678 20.2984 24.7448 17.8005C25.4217 15.3026 25.3124 12.6568 24.4318 10.2233C23.5512 7.78971 21.9421 5.68664 19.8234 4.20035C17.7048 2.71407 15.1796 1.91676 12.5916 1.91699Z" fill="url(#paint4_linear_5932_4910)"/>
<defs>
<clipPath id="bgblur_0_5932_4910_clip_path" transform="translate(9.98145 8.0791)"><path d="M5.51172 24.3027L5.31348 24.1523C3.67196 22.9102 2.37487 21.2695 1.54492 19.3857C0.714942 17.5019 0.379983 15.4374 0.571289 13.3877C0.762665 11.3379 1.47424 9.37061 2.63867 7.67285C3.80309 5.97515 5.38135 4.60232 7.22461 3.68555C9.06774 2.76884 11.1146 2.33791 13.1709 2.43359C15.2273 2.52937 17.2255 3.1493 18.9756 4.2334C20.7256 5.31752 22.1703 6.83035 23.1719 8.62891C24.1734 10.4274 24.6991 12.4522 24.6992 14.5107V14.5117C24.7 16.2844 24.3104 18.0357 23.5576 19.6406C22.8047 21.2458 21.7067 22.666 20.3428 23.7988L20.1621 23.9482V30.7178C20.1619 30.9566 20.0233 31.1887 19.7559 31.3447C19.4972 31.4954 19.1514 31.5483 18.8115 31.4463L14.0381 28.6904L14.0342 28.6885L13.8955 28.6152C13.5667 28.4566 13.2053 28.374 12.8389 28.374C12.4203 28.3741 12.009 28.4827 11.6445 28.6885L11.6396 28.6904L6.8623 31.4463C6.52248 31.5481 6.17644 31.4955 5.91797 31.3447C5.65057 31.1887 5.51188 30.9565 5.51172 30.7178V24.3027Z"/>
</clipPath><linearGradient id="paint0_linear_5932_4910" x1="15.4287" y1="28.0529" x2="27.8356" y2="0.825171" gradientUnits="userSpaceOnUse">
<stop stop-color="#002B5B"/>
<stop offset="0.08" stop-color="#063F75"/>
<stop offset="0.46" stop-color="#0C548F"/>
<stop offset="0.52" stop-color="#0F6AA9"/>
<stop offset="0.72" stop-color="#0F82C3"/>
<stop offset="0.87" stop-color="#0B9ADE"/>
<stop offset="0.96" stop-color="#00B3F8"/>
</linearGradient>
<linearGradient id="paint1_linear_5932_4910" x1="12.6104" y1="0.140696" x2="12.6104" y2="44.0168" gradientUnits="userSpaceOnUse">
<stop stop-color="white" stop-opacity="0.35"/>
<stop offset="0.21" stop-color="white" stop-opacity="0.34"/>
<stop offset="0.4" stop-color="white" stop-opacity="0.29"/>
<stop offset="0.59" stop-color="white" stop-opacity="0.22"/>
<stop offset="0.77" stop-color="white" stop-opacity="0.12"/>
<stop offset="0.93" stop-color="white" stop-opacity="0"/>
</linearGradient>
<linearGradient id="paint2_linear_5932_4910" x1="18.9495" y1="3.85558" x2="2.60733" y2="27.5602" gradientUnits="userSpaceOnUse">
<stop stop-color="white" stop-opacity="0.45"/>
<stop offset="0.02" stop-color="white" stop-opacity="0.42"/>
<stop offset="0.09" stop-color="white" stop-opacity="0.31"/>
<stop offset="0.17" stop-color="white" stop-opacity="0.23"/>
<stop offset="0.26" stop-color="white" stop-opacity="0.16"/>
<stop offset="0.38" stop-color="white" stop-opacity="0.11"/>
<stop offset="0.54" stop-color="white" stop-opacity="0.09"/>
<stop offset="1" stop-color="white" stop-opacity="0.08"/>
</linearGradient>
<linearGradient id="paint3_linear_5932_4910" x1="12.6045" y1="9.51255" x2="12.6045" y2="34.7591" gradientUnits="userSpaceOnUse">
<stop stop-color="white" stop-opacity="0.35"/>
<stop offset="0.21" stop-color="white" stop-opacity="0.34"/>
<stop offset="0.4" stop-color="white" stop-opacity="0.29"/>
<stop offset="0.59" stop-color="white" stop-opacity="0.22"/>
<stop offset="0.77" stop-color="white" stop-opacity="0.12"/>
<stop offset="0.93" stop-color="white" stop-opacity="0"/>
</linearGradient>
<linearGradient id="paint4_linear_5932_4910" x1="4.07769" y1="5.26733" x2="22.8552" y2="31.6769" gradientUnits="userSpaceOnUse">
<stop stop-color="white" stop-opacity="0"/>
<stop offset="0.05" stop-color="white" stop-opacity="0.02"/>
<stop offset="0.12" stop-color="white" stop-opacity="0.08"/>
<stop offset="0.18" stop-color="white" stop-opacity="0.17"/>
<stop offset="0.26" stop-color="white" stop-opacity="0.3"/>
<stop offset="0.33" stop-color="white" stop-opacity="0.47"/>
<stop offset="0.41" stop-color="white" stop-opacity="0.67"/>
<stop offset="0.48" stop-color="white" stop-opacity="0.91"/>
<stop offset="0.51" stop-color="white" stop-opacity="0.96"/>
<stop offset="0.53" stop-color="white" stop-opacity="0.78"/>
<stop offset="0.56" stop-color="white" stop-opacity="0.61"/>
<stop offset="0.58" stop-color="white" stop-opacity="0.47"/>
<stop offset="0.61" stop-color="white" stop-opacity="0.34"/>
<stop offset="0.64" stop-color="white" stop-opacity="0.23"/>
<stop offset="0.67" stop-color="white" stop-opacity="0.15"/>
<stop offset="0.71" stop-color="white" stop-opacity="0.08"/>
<stop offset="0.75" stop-color="white" stop-opacity="0.03"/>
<stop offset="0.82" stop-color="white" stop-opacity="0.01"/>
<stop offset="1" stop-color="white" stop-opacity="0"/>
</linearGradient>
</defs>
</svg>
