<svg width="1543" height="1024" viewBox="0 0 1543 1024" fill="none" xmlns="http://www.w3.org/2000/svg">
<g opacity="0.309311" filter="url(#filter0_d_5865_6937)">
<path d="M410.281 272.727C410.281 272.174 410.729 271.727 411.281 271.727V271.727C411.834 271.727 412.281 272.174 412.281 272.727V274.727C412.281 275.279 411.834 275.727 411.281 275.727V275.727C410.729 275.727 410.281 275.279 410.281 274.727V272.727Z" fill="#0F172A"/>
</g>
<g opacity="0.445997" filter="url(#filter1_d_5865_6937)">
<path d="M165.422 90.9326C165.422 90.1042 166.093 89.4326 166.922 89.4326V89.4326C167.75 89.4326 168.422 90.1042 168.422 90.9326V90.9326C168.422 91.761 167.75 92.4326 166.922 92.4326V92.4326C166.093 92.4326 165.422 91.761 165.422 90.9326V90.9326Z" fill="#00B3F8"/>
</g>
<g opacity="0.300043" filter="url(#filter2_d_5865_6937)">
<path d="M1043.22 308.124C1043.22 307.572 1043.67 307.124 1044.22 307.124H1047.22C1047.77 307.124 1048.22 307.572 1048.22 308.124V308.124C1048.22 308.676 1047.77 309.124 1047.22 309.124H1044.22C1043.67 309.124 1043.22 308.676 1043.22 308.124V308.124Z" fill="#0F172A"/>
</g>
<g opacity="0.806171" filter="url(#filter3_d_5865_6937)">
<path d="M709.672 330.788C709.672 329.684 710.567 328.788 711.672 328.788H712.672C713.776 328.788 714.672 329.684 714.672 330.788V330.788C714.672 331.893 713.776 332.788 712.672 332.788H711.672C710.567 332.788 709.672 331.893 709.672 330.788V330.788Z" fill="#00B3F8"/>
</g>
<g opacity="0.300042" filter="url(#filter4_d_5865_6937)">
<path d="M481.359 132.906C481.359 132.354 481.807 131.906 482.359 131.906V131.906C482.912 131.906 483.359 132.354 483.359 132.906V134.906C483.359 135.458 482.912 135.906 482.359 135.906V135.906C481.807 135.906 481.359 135.458 481.359 134.906V132.906Z" fill="#0F172A"/>
</g>
<g opacity="0.53122" filter="url(#filter5_d_5865_6937)">
<path d="M1424.98 233.161C1424.98 232.885 1425.21 232.661 1425.48 232.661H1429.48C1429.76 232.661 1429.98 232.885 1429.98 233.161V233.161C1429.98 233.437 1429.76 233.661 1429.48 233.661H1425.48C1425.21 233.661 1424.98 233.437 1424.98 233.161V233.161Z" fill="#00B3F8"/>
</g>
<g opacity="0.673704" filter="url(#filter6_d_5865_6937)">
<path d="M61.1719 370.783C61.1719 369.679 62.0673 368.783 63.1719 368.783V368.783C64.2764 368.783 65.1719 369.679 65.1719 370.783V370.783C65.1719 371.888 64.2764 372.783 63.1719 372.783V372.783C62.0673 372.783 61.1719 371.888 61.1719 370.783V370.783Z" fill="#0F172A"/>
</g>
<g opacity="0.335295" filter="url(#filter7_d_5865_6937)">
<path d="M811.312 157.234C811.312 156.682 811.76 156.234 812.312 156.234V156.234C812.865 156.234 813.312 156.682 813.312 157.234V157.234C813.312 157.786 812.865 158.234 812.312 158.234V158.234C811.76 158.234 811.312 157.786 811.312 157.234V157.234Z" fill="#00B3F8"/>
</g>
<g opacity="0.384977" filter="url(#filter8_d_5865_6937)">
<path d="M77.8281 151.556C77.8281 150.728 78.4997 150.056 79.3281 150.056V150.056C80.1566 150.056 80.8281 150.728 80.8281 151.556V151.556C80.8281 152.385 80.1566 153.056 79.3281 153.056V153.056C78.4997 153.056 77.8281 152.385 77.8281 151.556V151.556Z" fill="#0F172A"/>
</g>
<g opacity="0.361545" filter="url(#filter9_d_5865_6937)">
<path d="M1090.58 169.895C1090.58 169.066 1091.25 168.395 1092.08 168.395H1093.08C1093.91 168.395 1094.58 169.066 1094.58 169.895V169.895C1094.58 170.723 1093.91 171.395 1093.08 171.395H1092.08C1091.25 171.395 1090.58 170.723 1090.58 169.895V169.895Z" fill="#00B3F8"/>
</g>
<g opacity="0.76201" filter="url(#filter10_d_5865_6937)">
<path d="M1245.09 512.105C1245.09 511.553 1245.54 511.105 1246.09 511.105H1247.09C1247.65 511.105 1248.09 511.553 1248.09 512.105V512.105C1248.09 512.658 1247.65 513.105 1247.09 513.105H1246.09C1245.54 513.105 1245.09 512.658 1245.09 512.105V512.105Z" fill="#0F172A"/>
</g>
<g opacity="0.65025" filter="url(#filter11_d_5865_6937)">
<path d="M662.188 117.906C662.188 116.525 663.307 115.406 664.688 115.406V115.406C666.068 115.406 667.188 116.525 667.188 117.906V117.906C667.188 119.286 666.068 120.406 664.688 120.406V120.406C663.307 120.406 662.188 119.286 662.188 117.906V117.906Z" fill="#00B3F8"/>
</g>
<g opacity="0.309311" filter="url(#filter12_d_5865_6937)">
<path d="M1132.72 750.836C1132.72 751.388 1132.27 751.836 1131.72 751.836V751.836C1131.17 751.836 1130.72 751.388 1130.72 750.836V748.836C1130.72 748.284 1131.17 747.836 1131.72 747.836V747.836C1132.27 747.836 1132.72 748.284 1132.72 748.836V750.836Z" fill="#0F172A"/>
</g>
<g opacity="0.445997" filter="url(#filter13_d_5865_6937)">
<path d="M1377.58 932.63C1377.58 933.458 1376.91 934.13 1376.08 934.13V934.13C1375.25 934.13 1374.58 933.458 1374.58 932.63V932.63C1374.58 931.801 1375.25 931.13 1376.08 931.13V931.13C1376.91 931.13 1377.58 931.801 1377.58 932.63V932.63Z" fill="#00B3F8"/>
</g>
<g opacity="0.300043" filter="url(#filter14_d_5865_6937)">
<path d="M499.781 715.438C499.781 715.991 499.334 716.438 498.781 716.438H495.781C495.229 716.438 494.781 715.991 494.781 715.438V715.438C494.781 714.886 495.229 714.438 495.781 714.438H498.781C499.334 714.438 499.781 714.886 499.781 715.438V715.438Z" fill="#0F172A"/>
</g>
<g opacity="0.806171" filter="url(#filter15_d_5865_6937)">
<path d="M833.328 692.774C833.328 693.879 832.433 694.774 831.328 694.774H830.328C829.224 694.774 828.328 693.879 828.328 692.774V692.774C828.328 691.67 829.224 690.774 830.328 690.774H831.328C832.433 690.774 833.328 691.67 833.328 692.774V692.774Z" fill="#00B3F8"/>
</g>
<g opacity="0.300042" filter="url(#filter16_d_5865_6937)">
<path d="M1061.64 890.656C1061.64 891.209 1061.19 891.656 1060.64 891.656V891.656C1060.09 891.656 1059.64 891.209 1059.64 890.656V888.656C1059.64 888.104 1060.09 887.656 1060.64 887.656V887.656C1061.19 887.656 1061.64 888.104 1061.64 888.656V890.656Z" fill="#0F172A"/>
</g>
<g opacity="0.53122" filter="url(#filter17_d_5865_6937)">
<path d="M118.016 790.401C118.016 790.678 117.792 790.901 117.516 790.901H113.516C113.239 790.901 113.016 790.678 113.016 790.401V790.401C113.016 790.125 113.239 789.901 113.516 789.901H117.516C117.792 789.901 118.016 790.125 118.016 790.401V790.401Z" fill="#00B3F8"/>
</g>
<g opacity="0.673704" filter="url(#filter18_d_5865_6937)">
<path d="M1481.83 652.779C1481.83 653.884 1480.93 654.779 1479.83 654.779V654.779C1478.72 654.779 1477.83 653.884 1477.83 652.779V652.779C1477.83 651.675 1478.72 650.779 1479.83 650.779V650.779C1480.93 650.779 1481.83 651.675 1481.83 652.779V652.779Z" fill="#0F172A"/>
</g>
<g opacity="0.335295" filter="url(#filter19_d_5865_6937)">
<path d="M731.688 866.329C731.688 866.881 731.24 867.329 730.688 867.329V867.329C730.135 867.329 729.688 866.881 729.688 866.329V866.329C729.688 865.776 730.135 865.329 730.688 865.329V865.329C731.24 865.329 731.688 865.776 731.688 866.329V866.329Z" fill="#00B3F8"/>
</g>
<g opacity="0.384977" filter="url(#filter20_d_5865_6937)">
<path d="M1465.17 872.006C1465.17 872.835 1464.5 873.506 1463.67 873.506V873.506C1462.84 873.506 1462.17 872.835 1462.17 872.006V872.006C1462.17 871.178 1462.84 870.506 1463.67 870.506V870.506C1464.5 870.506 1465.17 871.178 1465.17 872.006V872.006Z" fill="#0F172A"/>
</g>
<g opacity="0.361545" filter="url(#filter21_d_5865_6937)">
<path d="M452.422 853.668C452.422 854.496 451.75 855.168 450.922 855.168H449.922C449.093 855.168 448.422 854.496 448.422 853.668V853.668C448.422 852.839 449.093 852.168 449.922 852.168H450.922C451.75 852.168 452.422 852.839 452.422 853.668V853.668Z" fill="#00B3F8"/>
</g>
<g opacity="0.76201" filter="url(#filter22_d_5865_6937)">
<path d="M297.906 511.457C297.906 512.009 297.459 512.457 296.906 512.457H295.906C295.354 512.457 294.906 512.009 294.906 511.457V511.457C294.906 510.905 295.354 510.457 295.906 510.457H296.906C297.459 510.457 297.906 510.905 297.906 511.457V511.457Z" fill="#0F172A"/>
</g>
<g opacity="0.65025" filter="url(#filter23_d_5865_6937)">
<path d="M880.812 905.657C880.812 907.038 879.693 908.157 878.312 908.157V908.157C876.932 908.157 875.812 907.038 875.812 905.657V905.657C875.812 904.276 876.932 903.157 878.312 903.157V903.157C879.693 903.157 880.812 904.276 880.812 905.657V905.657Z" fill="#00B3F8"/>
</g>
<defs>
<filter id="filter0_d_5865_6937" x="404.281" y="265.727" width="14" height="16" filterUnits="userSpaceOnUse" color-interpolation-filters="sRGB">
<feFlood flood-opacity="0" result="BackgroundImageFix"/>
<feColorMatrix in="SourceAlpha" type="matrix" values="0 0 0 0 0 0 0 0 0 0 0 0 0 0 0 0 0 0 127 0" result="hardAlpha"/>
<feOffset/>
<feGaussianBlur stdDeviation="3"/>
<feComposite in2="hardAlpha" operator="out"/>
<feColorMatrix type="matrix" values="0 0 0 0 0 0 0 0 0 0.831373 0 0 0 0 1 0 0 0 1 0"/>
<feBlend mode="normal" in2="BackgroundImageFix" result="effect1_dropShadow_5865_6937"/>
<feBlend mode="normal" in="SourceGraphic" in2="effect1_dropShadow_5865_6937" result="shape"/>
</filter>
<filter id="filter1_d_5865_6937" x="159.422" y="83.4326" width="15" height="15" filterUnits="userSpaceOnUse" color-interpolation-filters="sRGB">
<feFlood flood-opacity="0" result="BackgroundImageFix"/>
<feColorMatrix in="SourceAlpha" type="matrix" values="0 0 0 0 0 0 0 0 0 0 0 0 0 0 0 0 0 0 127 0" result="hardAlpha"/>
<feOffset/>
<feGaussianBlur stdDeviation="3"/>
<feComposite in2="hardAlpha" operator="out"/>
<feColorMatrix type="matrix" values="0 0 0 0 0.772549 0 0 0 0 0.627451 0 0 0 0 0.34902 0 0 0 1 0"/>
<feBlend mode="normal" in2="BackgroundImageFix" result="effect1_dropShadow_5865_6937"/>
<feBlend mode="normal" in="SourceGraphic" in2="effect1_dropShadow_5865_6937" result="shape"/>
</filter>
<filter id="filter2_d_5865_6937" x="1037.22" y="301.124" width="17" height="14" filterUnits="userSpaceOnUse" color-interpolation-filters="sRGB">
<feFlood flood-opacity="0" result="BackgroundImageFix"/>
<feColorMatrix in="SourceAlpha" type="matrix" values="0 0 0 0 0 0 0 0 0 0 0 0 0 0 0 0 0 0 127 0" result="hardAlpha"/>
<feOffset/>
<feGaussianBlur stdDeviation="3"/>
<feComposite in2="hardAlpha" operator="out"/>
<feColorMatrix type="matrix" values="0 0 0 0 0 0 0 0 0 0.831373 0 0 0 0 1 0 0 0 1 0"/>
<feBlend mode="normal" in2="BackgroundImageFix" result="effect1_dropShadow_5865_6937"/>
<feBlend mode="normal" in="SourceGraphic" in2="effect1_dropShadow_5865_6937" result="shape"/>
</filter>
<filter id="filter3_d_5865_6937" x="703.672" y="322.788" width="17" height="16" filterUnits="userSpaceOnUse" color-interpolation-filters="sRGB">
<feFlood flood-opacity="0" result="BackgroundImageFix"/>
<feColorMatrix in="SourceAlpha" type="matrix" values="0 0 0 0 0 0 0 0 0 0 0 0 0 0 0 0 0 0 127 0" result="hardAlpha"/>
<feOffset/>
<feGaussianBlur stdDeviation="3"/>
<feComposite in2="hardAlpha" operator="out"/>
<feColorMatrix type="matrix" values="0 0 0 0 0.772549 0 0 0 0 0.627451 0 0 0 0 0.34902 0 0 0 1 0"/>
<feBlend mode="normal" in2="BackgroundImageFix" result="effect1_dropShadow_5865_6937"/>
<feBlend mode="normal" in="SourceGraphic" in2="effect1_dropShadow_5865_6937" result="shape"/>
</filter>
<filter id="filter4_d_5865_6937" x="475.359" y="125.906" width="14" height="16" filterUnits="userSpaceOnUse" color-interpolation-filters="sRGB">
<feFlood flood-opacity="0" result="BackgroundImageFix"/>
<feColorMatrix in="SourceAlpha" type="matrix" values="0 0 0 0 0 0 0 0 0 0 0 0 0 0 0 0 0 0 127 0" result="hardAlpha"/>
<feOffset/>
<feGaussianBlur stdDeviation="3"/>
<feComposite in2="hardAlpha" operator="out"/>
<feColorMatrix type="matrix" values="0 0 0 0 0 0 0 0 0 0.831373 0 0 0 0 1 0 0 0 1 0"/>
<feBlend mode="normal" in2="BackgroundImageFix" result="effect1_dropShadow_5865_6937"/>
<feBlend mode="normal" in="SourceGraphic" in2="effect1_dropShadow_5865_6937" result="shape"/>
</filter>
<filter id="filter5_d_5865_6937" x="1418.98" y="226.661" width="17" height="13" filterUnits="userSpaceOnUse" color-interpolation-filters="sRGB">
<feFlood flood-opacity="0" result="BackgroundImageFix"/>
<feColorMatrix in="SourceAlpha" type="matrix" values="0 0 0 0 0 0 0 0 0 0 0 0 0 0 0 0 0 0 127 0" result="hardAlpha"/>
<feOffset/>
<feGaussianBlur stdDeviation="3"/>
<feComposite in2="hardAlpha" operator="out"/>
<feColorMatrix type="matrix" values="0 0 0 0 0.772549 0 0 0 0 0.627451 0 0 0 0 0.34902 0 0 0 1 0"/>
<feBlend mode="normal" in2="BackgroundImageFix" result="effect1_dropShadow_5865_6937"/>
<feBlend mode="normal" in="SourceGraphic" in2="effect1_dropShadow_5865_6937" result="shape"/>
</filter>
<filter id="filter6_d_5865_6937" x="55.1719" y="362.783" width="16" height="16" filterUnits="userSpaceOnUse" color-interpolation-filters="sRGB">
<feFlood flood-opacity="0" result="BackgroundImageFix"/>
<feColorMatrix in="SourceAlpha" type="matrix" values="0 0 0 0 0 0 0 0 0 0 0 0 0 0 0 0 0 0 127 0" result="hardAlpha"/>
<feOffset/>
<feGaussianBlur stdDeviation="3"/>
<feComposite in2="hardAlpha" operator="out"/>
<feColorMatrix type="matrix" values="0 0 0 0 0 0 0 0 0 0.831373 0 0 0 0 1 0 0 0 1 0"/>
<feBlend mode="normal" in2="BackgroundImageFix" result="effect1_dropShadow_5865_6937"/>
<feBlend mode="normal" in="SourceGraphic" in2="effect1_dropShadow_5865_6937" result="shape"/>
</filter>
<filter id="filter7_d_5865_6937" x="805.312" y="150.234" width="14" height="14" filterUnits="userSpaceOnUse" color-interpolation-filters="sRGB">
<feFlood flood-opacity="0" result="BackgroundImageFix"/>
<feColorMatrix in="SourceAlpha" type="matrix" values="0 0 0 0 0 0 0 0 0 0 0 0 0 0 0 0 0 0 127 0" result="hardAlpha"/>
<feOffset/>
<feGaussianBlur stdDeviation="3"/>
<feComposite in2="hardAlpha" operator="out"/>
<feColorMatrix type="matrix" values="0 0 0 0 0.772549 0 0 0 0 0.627451 0 0 0 0 0.34902 0 0 0 1 0"/>
<feBlend mode="normal" in2="BackgroundImageFix" result="effect1_dropShadow_5865_6937"/>
<feBlend mode="normal" in="SourceGraphic" in2="effect1_dropShadow_5865_6937" result="shape"/>
</filter>
<filter id="filter8_d_5865_6937" x="71.8281" y="144.056" width="15" height="15" filterUnits="userSpaceOnUse" color-interpolation-filters="sRGB">
<feFlood flood-opacity="0" result="BackgroundImageFix"/>
<feColorMatrix in="SourceAlpha" type="matrix" values="0 0 0 0 0 0 0 0 0 0 0 0 0 0 0 0 0 0 127 0" result="hardAlpha"/>
<feOffset/>
<feGaussianBlur stdDeviation="3"/>
<feComposite in2="hardAlpha" operator="out"/>
<feColorMatrix type="matrix" values="0 0 0 0 0 0 0 0 0 0.831373 0 0 0 0 1 0 0 0 1 0"/>
<feBlend mode="normal" in2="BackgroundImageFix" result="effect1_dropShadow_5865_6937"/>
<feBlend mode="normal" in="SourceGraphic" in2="effect1_dropShadow_5865_6937" result="shape"/>
</filter>
<filter id="filter9_d_5865_6937" x="1084.58" y="162.395" width="16" height="15" filterUnits="userSpaceOnUse" color-interpolation-filters="sRGB">
<feFlood flood-opacity="0" result="BackgroundImageFix"/>
<feColorMatrix in="SourceAlpha" type="matrix" values="0 0 0 0 0 0 0 0 0 0 0 0 0 0 0 0 0 0 127 0" result="hardAlpha"/>
<feOffset/>
<feGaussianBlur stdDeviation="3"/>
<feComposite in2="hardAlpha" operator="out"/>
<feColorMatrix type="matrix" values="0 0 0 0 0.772549 0 0 0 0 0.627451 0 0 0 0 0.34902 0 0 0 1 0"/>
<feBlend mode="normal" in2="BackgroundImageFix" result="effect1_dropShadow_5865_6937"/>
<feBlend mode="normal" in="SourceGraphic" in2="effect1_dropShadow_5865_6937" result="shape"/>
</filter>
<filter id="filter10_d_5865_6937" x="1239.09" y="505.105" width="15" height="14" filterUnits="userSpaceOnUse" color-interpolation-filters="sRGB">
<feFlood flood-opacity="0" result="BackgroundImageFix"/>
<feColorMatrix in="SourceAlpha" type="matrix" values="0 0 0 0 0 0 0 0 0 0 0 0 0 0 0 0 0 0 127 0" result="hardAlpha"/>
<feOffset/>
<feGaussianBlur stdDeviation="3"/>
<feComposite in2="hardAlpha" operator="out"/>
<feColorMatrix type="matrix" values="0 0 0 0 0 0 0 0 0 0.831373 0 0 0 0 1 0 0 0 1 0"/>
<feBlend mode="normal" in2="BackgroundImageFix" result="effect1_dropShadow_5865_6937"/>
<feBlend mode="normal" in="SourceGraphic" in2="effect1_dropShadow_5865_6937" result="shape"/>
</filter>
<filter id="filter11_d_5865_6937" x="656.188" y="109.406" width="17" height="17" filterUnits="userSpaceOnUse" color-interpolation-filters="sRGB">
<feFlood flood-opacity="0" result="BackgroundImageFix"/>
<feColorMatrix in="SourceAlpha" type="matrix" values="0 0 0 0 0 0 0 0 0 0 0 0 0 0 0 0 0 0 127 0" result="hardAlpha"/>
<feOffset/>
<feGaussianBlur stdDeviation="3"/>
<feComposite in2="hardAlpha" operator="out"/>
<feColorMatrix type="matrix" values="0 0 0 0 0.772549 0 0 0 0 0.627451 0 0 0 0 0.34902 0 0 0 1 0"/>
<feBlend mode="normal" in2="BackgroundImageFix" result="effect1_dropShadow_5865_6937"/>
<feBlend mode="normal" in="SourceGraphic" in2="effect1_dropShadow_5865_6937" result="shape"/>
</filter>
<filter id="filter12_d_5865_6937" x="1124.72" y="741.836" width="14" height="16" filterUnits="userSpaceOnUse" color-interpolation-filters="sRGB">
<feFlood flood-opacity="0" result="BackgroundImageFix"/>
<feColorMatrix in="SourceAlpha" type="matrix" values="0 0 0 0 0 0 0 0 0 0 0 0 0 0 0 0 0 0 127 0" result="hardAlpha"/>
<feOffset/>
<feGaussianBlur stdDeviation="3"/>
<feComposite in2="hardAlpha" operator="out"/>
<feColorMatrix type="matrix" values="0 0 0 0 0 0 0 0 0 0.831373 0 0 0 0 1 0 0 0 1 0"/>
<feBlend mode="normal" in2="BackgroundImageFix" result="effect1_dropShadow_5865_6937"/>
<feBlend mode="normal" in="SourceGraphic" in2="effect1_dropShadow_5865_6937" result="shape"/>
</filter>
<filter id="filter13_d_5865_6937" x="1368.58" y="925.13" width="15" height="15" filterUnits="userSpaceOnUse" color-interpolation-filters="sRGB">
<feFlood flood-opacity="0" result="BackgroundImageFix"/>
<feColorMatrix in="SourceAlpha" type="matrix" values="0 0 0 0 0 0 0 0 0 0 0 0 0 0 0 0 0 0 127 0" result="hardAlpha"/>
<feOffset/>
<feGaussianBlur stdDeviation="3"/>
<feComposite in2="hardAlpha" operator="out"/>
<feColorMatrix type="matrix" values="0 0 0 0 0.772549 0 0 0 0 0.627451 0 0 0 0 0.34902 0 0 0 1 0"/>
<feBlend mode="normal" in2="BackgroundImageFix" result="effect1_dropShadow_5865_6937"/>
<feBlend mode="normal" in="SourceGraphic" in2="effect1_dropShadow_5865_6937" result="shape"/>
</filter>
<filter id="filter14_d_5865_6937" x="488.781" y="708.438" width="17" height="14" filterUnits="userSpaceOnUse" color-interpolation-filters="sRGB">
<feFlood flood-opacity="0" result="BackgroundImageFix"/>
<feColorMatrix in="SourceAlpha" type="matrix" values="0 0 0 0 0 0 0 0 0 0 0 0 0 0 0 0 0 0 127 0" result="hardAlpha"/>
<feOffset/>
<feGaussianBlur stdDeviation="3"/>
<feComposite in2="hardAlpha" operator="out"/>
<feColorMatrix type="matrix" values="0 0 0 0 0 0 0 0 0 0.831373 0 0 0 0 1 0 0 0 1 0"/>
<feBlend mode="normal" in2="BackgroundImageFix" result="effect1_dropShadow_5865_6937"/>
<feBlend mode="normal" in="SourceGraphic" in2="effect1_dropShadow_5865_6937" result="shape"/>
</filter>
<filter id="filter15_d_5865_6937" x="822.328" y="684.774" width="17" height="16" filterUnits="userSpaceOnUse" color-interpolation-filters="sRGB">
<feFlood flood-opacity="0" result="BackgroundImageFix"/>
<feColorMatrix in="SourceAlpha" type="matrix" values="0 0 0 0 0 0 0 0 0 0 0 0 0 0 0 0 0 0 127 0" result="hardAlpha"/>
<feOffset/>
<feGaussianBlur stdDeviation="3"/>
<feComposite in2="hardAlpha" operator="out"/>
<feColorMatrix type="matrix" values="0 0 0 0 0.772549 0 0 0 0 0.627451 0 0 0 0 0.34902 0 0 0 1 0"/>
<feBlend mode="normal" in2="BackgroundImageFix" result="effect1_dropShadow_5865_6937"/>
<feBlend mode="normal" in="SourceGraphic" in2="effect1_dropShadow_5865_6937" result="shape"/>
</filter>
<filter id="filter16_d_5865_6937" x="1053.64" y="881.656" width="14" height="16" filterUnits="userSpaceOnUse" color-interpolation-filters="sRGB">
<feFlood flood-opacity="0" result="BackgroundImageFix"/>
<feColorMatrix in="SourceAlpha" type="matrix" values="0 0 0 0 0 0 0 0 0 0 0 0 0 0 0 0 0 0 127 0" result="hardAlpha"/>
<feOffset/>
<feGaussianBlur stdDeviation="3"/>
<feComposite in2="hardAlpha" operator="out"/>
<feColorMatrix type="matrix" values="0 0 0 0 0 0 0 0 0 0.831373 0 0 0 0 1 0 0 0 1 0"/>
<feBlend mode="normal" in2="BackgroundImageFix" result="effect1_dropShadow_5865_6937"/>
<feBlend mode="normal" in="SourceGraphic" in2="effect1_dropShadow_5865_6937" result="shape"/>
</filter>
<filter id="filter17_d_5865_6937" x="107.016" y="783.901" width="17" height="13" filterUnits="userSpaceOnUse" color-interpolation-filters="sRGB">
<feFlood flood-opacity="0" result="BackgroundImageFix"/>
<feColorMatrix in="SourceAlpha" type="matrix" values="0 0 0 0 0 0 0 0 0 0 0 0 0 0 0 0 0 0 127 0" result="hardAlpha"/>
<feOffset/>
<feGaussianBlur stdDeviation="3"/>
<feComposite in2="hardAlpha" operator="out"/>
<feColorMatrix type="matrix" values="0 0 0 0 0.772549 0 0 0 0 0.627451 0 0 0 0 0.34902 0 0 0 1 0"/>
<feBlend mode="normal" in2="BackgroundImageFix" result="effect1_dropShadow_5865_6937"/>
<feBlend mode="normal" in="SourceGraphic" in2="effect1_dropShadow_5865_6937" result="shape"/>
</filter>
<filter id="filter18_d_5865_6937" x="1471.83" y="644.779" width="16" height="16" filterUnits="userSpaceOnUse" color-interpolation-filters="sRGB">
<feFlood flood-opacity="0" result="BackgroundImageFix"/>
<feColorMatrix in="SourceAlpha" type="matrix" values="0 0 0 0 0 0 0 0 0 0 0 0 0 0 0 0 0 0 127 0" result="hardAlpha"/>
<feOffset/>
<feGaussianBlur stdDeviation="3"/>
<feComposite in2="hardAlpha" operator="out"/>
<feColorMatrix type="matrix" values="0 0 0 0 0 0 0 0 0 0.831373 0 0 0 0 1 0 0 0 1 0"/>
<feBlend mode="normal" in2="BackgroundImageFix" result="effect1_dropShadow_5865_6937"/>
<feBlend mode="normal" in="SourceGraphic" in2="effect1_dropShadow_5865_6937" result="shape"/>
</filter>
<filter id="filter19_d_5865_6937" x="723.688" y="859.329" width="14" height="14" filterUnits="userSpaceOnUse" color-interpolation-filters="sRGB">
<feFlood flood-opacity="0" result="BackgroundImageFix"/>
<feColorMatrix in="SourceAlpha" type="matrix" values="0 0 0 0 0 0 0 0 0 0 0 0 0 0 0 0 0 0 127 0" result="hardAlpha"/>
<feOffset/>
<feGaussianBlur stdDeviation="3"/>
<feComposite in2="hardAlpha" operator="out"/>
<feColorMatrix type="matrix" values="0 0 0 0 0.772549 0 0 0 0 0.627451 0 0 0 0 0.34902 0 0 0 1 0"/>
<feBlend mode="normal" in2="BackgroundImageFix" result="effect1_dropShadow_5865_6937"/>
<feBlend mode="normal" in="SourceGraphic" in2="effect1_dropShadow_5865_6937" result="shape"/>
</filter>
<filter id="filter20_d_5865_6937" x="1456.17" y="864.506" width="15" height="15" filterUnits="userSpaceOnUse" color-interpolation-filters="sRGB">
<feFlood flood-opacity="0" result="BackgroundImageFix"/>
<feColorMatrix in="SourceAlpha" type="matrix" values="0 0 0 0 0 0 0 0 0 0 0 0 0 0 0 0 0 0 127 0" result="hardAlpha"/>
<feOffset/>
<feGaussianBlur stdDeviation="3"/>
<feComposite in2="hardAlpha" operator="out"/>
<feColorMatrix type="matrix" values="0 0 0 0 0 0 0 0 0 0.831373 0 0 0 0 1 0 0 0 1 0"/>
<feBlend mode="normal" in2="BackgroundImageFix" result="effect1_dropShadow_5865_6937"/>
<feBlend mode="normal" in="SourceGraphic" in2="effect1_dropShadow_5865_6937" result="shape"/>
</filter>
<filter id="filter21_d_5865_6937" x="442.422" y="846.168" width="16" height="15" filterUnits="userSpaceOnUse" color-interpolation-filters="sRGB">
<feFlood flood-opacity="0" result="BackgroundImageFix"/>
<feColorMatrix in="SourceAlpha" type="matrix" values="0 0 0 0 0 0 0 0 0 0 0 0 0 0 0 0 0 0 127 0" result="hardAlpha"/>
<feOffset/>
<feGaussianBlur stdDeviation="3"/>
<feComposite in2="hardAlpha" operator="out"/>
<feColorMatrix type="matrix" values="0 0 0 0 0.772549 0 0 0 0 0.627451 0 0 0 0 0.34902 0 0 0 1 0"/>
<feBlend mode="normal" in2="BackgroundImageFix" result="effect1_dropShadow_5865_6937"/>
<feBlend mode="normal" in="SourceGraphic" in2="effect1_dropShadow_5865_6937" result="shape"/>
</filter>
<filter id="filter22_d_5865_6937" x="288.906" y="504.457" width="15" height="14" filterUnits="userSpaceOnUse" color-interpolation-filters="sRGB">
<feFlood flood-opacity="0" result="BackgroundImageFix"/>
<feColorMatrix in="SourceAlpha" type="matrix" values="0 0 0 0 0 0 0 0 0 0 0 0 0 0 0 0 0 0 127 0" result="hardAlpha"/>
<feOffset/>
<feGaussianBlur stdDeviation="3"/>
<feComposite in2="hardAlpha" operator="out"/>
<feColorMatrix type="matrix" values="0 0 0 0 0 0 0 0 0 0.831373 0 0 0 0 1 0 0 0 1 0"/>
<feBlend mode="normal" in2="BackgroundImageFix" result="effect1_dropShadow_5865_6937"/>
<feBlend mode="normal" in="SourceGraphic" in2="effect1_dropShadow_5865_6937" result="shape"/>
</filter>
<filter id="filter23_d_5865_6937" x="869.812" y="897.157" width="17" height="17" filterUnits="userSpaceOnUse" color-interpolation-filters="sRGB">
<feFlood flood-opacity="0" result="BackgroundImageFix"/>
<feColorMatrix in="SourceAlpha" type="matrix" values="0 0 0 0 0 0 0 0 0 0 0 0 0 0 0 0 0 0 127 0" result="hardAlpha"/>
<feOffset/>
<feGaussianBlur stdDeviation="3"/>
<feComposite in2="hardAlpha" operator="out"/>
<feColorMatrix type="matrix" values="0 0 0 0 0.772549 0 0 0 0 0.627451 0 0 0 0 0.34902 0 0 0 1 0"/>
<feBlend mode="normal" in2="BackgroundImageFix" result="effect1_dropShadow_5865_6937"/>
<feBlend mode="normal" in="SourceGraphic" in2="effect1_dropShadow_5865_6937" result="shape"/>
</filter>
</defs>
</svg>
