<svg width="300" height="213" viewBox="0 0 300 213" fill="none" xmlns="http://www.w3.org/2000/svg">
<path d="M278.714 82.3569L232.196 34.0498L163.206 12.4227L83.9328 20.9556L31.1234 47.7536L1.47461 94.4681L14.6474 147.101L82.3992 177.103L160.335 158.583L196.413 172.109L214.993 203.823L249.282 210.999L285.458 186.914L290.275 135.501L278.714 82.3569Z" stroke="#D6F8FF" stroke-width="2.94915" stroke-linejoin="round"/>
<path d="M1.47461 94.4681L85.8596 73.2539L124.258 94.4681L82.3992 177.103L45.9084 83.3006" stroke="#D6F8FF" stroke-width="1.47458" stroke-linejoin="round"/>
<path d="M166.883 83.3793L124.258 94.4681L163.206 12.4227L166.883 83.3793ZM166.883 83.3793L196.414 121.797L255.239 109.43L278.715 82.3569L166.883 83.3793Z" stroke="#D6F8FF" stroke-width="1.47458" stroke-linejoin="round"/>
<path d="M31.1234 47.7536L85.8596 73.2539L83.9328 20.9556L124.258 94.4681L45.9084 83.3006L14.6475 147.101L124.258 94.4681" stroke="#D6F8FF" stroke-width="1.47458" stroke-linejoin="round"/>
<path d="M285.459 186.914L265.208 147.101H228.914L196.414 172.109V121.797" stroke="#D6F8FF" stroke-width="1.47458" stroke-linejoin="round"/>
<path d="M265.208 147.101L290.276 135.501L196.414 121.797" stroke="#D6F8FF" stroke-width="1.47458" stroke-linejoin="round"/>
<path d="M214.993 203.823L228.913 147.101L196.414 121.797L232.197 34.0499L166.883 83.3793" stroke="#D6F8FF" stroke-width="1.47458" stroke-linejoin="round"/>
<path d="M249.284 210.999L228.915 147.101" stroke="#D6F8FF" stroke-width="1.47458" stroke-linejoin="round"/>
<path d="M196.414 121.797L124.258 94.468L130.313 140.082L160.336 158.583L196.414 121.797Z" stroke="#D6F8FF" stroke-width="1.47458" stroke-linejoin="round"/>
<path d="M82.3994 177.103L130.313 140.082" stroke="#D6F8FF" stroke-width="1.47458" stroke-linejoin="round"/>
<path d="M160.335 158.583L166.882 83.3793L83.9326 20.9556" stroke="#D6F8FF" stroke-width="1.47458" stroke-linejoin="round"/>
<path d="M290.277 135.501L255.241 109.43L212.518 82.3569" stroke="#D6F8FF" stroke-width="1.47458" stroke-linejoin="round"/>
<path d="M299.969 105.242C299.882 107.157 299.229 109.002 298.094 110.545C296.958 112.089 295.39 113.261 293.588 113.914C291.787 114.566 289.832 114.671 287.971 114.213C286.111 113.755 284.427 112.756 283.134 111.342C281.841 109.928 280.996 108.162 280.706 106.268C280.415 104.374 280.693 102.436 281.504 100.7C282.314 98.9638 283.621 97.5067 285.26 96.5129C286.898 95.5192 288.795 95.0334 290.709 95.1169C293.279 95.2342 295.697 96.3662 297.433 98.2645C299.169 100.163 300.081 102.672 299.969 105.242Z" fill="url(#paint0_radial_5936_4970)" style="mix-blend-mode:screen"/>
<path d="M57.0191 84.5982C56.9354 86.5143 56.2852 88.3625 55.1506 89.9089C54.0161 91.4552 52.4484 92.6303 50.6457 93.2853C48.8431 93.9403 46.8867 94.0458 45.0241 93.5884C43.1615 93.1311 41.4765 92.1315 40.1822 90.7161C38.888 89.3007 38.0427 87.5331 37.7535 85.6372C37.4642 83.7412 37.7439 81.802 38.5572 80.065C39.3705 78.3281 40.6807 76.8714 42.3222 75.8795C43.9637 74.8875 45.8625 74.4048 47.7784 74.4924C50.343 74.6098 52.7562 75.7397 54.4887 77.6343C56.2211 79.5289 57.1312 82.0334 57.0191 84.5982Z" fill="url(#paint1_radial_5936_4970)" style="mix-blend-mode:screen"/>
<path d="M59.1999 144.879C59.1123 146.794 58.4589 148.64 57.3221 150.184C56.1854 151.727 54.6165 152.899 52.8137 153.551C51.0109 154.203 49.0553 154.306 47.1942 153.847C45.333 153.387 43.6499 152.386 42.3576 150.97C41.0653 149.554 40.2219 147.787 39.9341 145.892C39.6463 143.996 39.927 142.058 40.7406 140.322C41.5543 138.586 42.8644 137.131 44.5053 136.14C46.1462 135.148 48.0441 134.666 49.9592 134.753C52.5255 134.876 54.9388 136.01 56.6707 137.908C58.4026 139.806 59.312 142.312 59.1999 144.879Z" fill="url(#paint2_radial_5936_4970)" style="mix-blend-mode:screen"/>
<path d="M223.901 84.4213C223.817 86.3374 223.167 88.1856 222.032 89.732C220.898 91.2783 219.33 92.4534 217.528 93.1084C215.725 93.7634 213.769 93.8689 211.906 93.4116C210.043 92.9542 208.358 91.9546 207.064 90.5392C205.77 89.1238 204.925 87.3562 204.635 85.4602C204.346 83.5643 204.626 81.6251 205.439 79.8881C206.252 78.1512 207.563 76.6946 209.204 75.7026C210.846 74.7106 212.744 74.2279 214.66 74.3155C217.223 74.438 219.633 75.5694 221.365 77.4629C223.096 79.3563 224.008 81.8579 223.901 84.4213Z" fill="url(#paint3_radial_5936_4970)" style="mix-blend-mode:screen"/>
<path d="M185.305 50.9976C185.277 51.6119 185.068 52.2041 184.703 52.6991C184.338 53.1942 183.834 53.5698 183.256 53.7784C182.678 53.987 182.05 54.0192 181.453 53.871C180.857 53.7228 180.317 53.4008 179.904 52.9458C179.49 52.4908 179.221 51.9233 179.13 51.3151C179.039 50.7069 179.131 50.0854 179.393 49.5294C179.656 48.9734 180.078 48.5078 180.605 48.1917C181.133 47.8755 181.742 47.7231 182.356 47.7536C183.177 47.7943 183.948 48.1586 184.501 48.7666C185.054 49.3746 185.343 50.1768 185.305 50.9976Z" fill="url(#paint4_radial_5936_4970)" style="mix-blend-mode:screen"/>
<path d="M90.1257 126.673C90.0977 127.287 89.888 127.879 89.5232 128.374C89.1584 128.869 88.6549 129.245 88.0764 129.454C87.4979 129.662 86.8705 129.695 86.2737 129.546C85.6769 129.398 85.1376 129.076 84.7239 128.621C84.3103 128.166 84.0409 127.598 83.9501 126.99C83.8593 126.382 83.951 125.761 84.2136 125.205C84.4763 124.649 84.8981 124.183 85.4255 123.867C85.953 123.551 86.5624 123.398 87.1766 123.429C87.9972 123.47 88.7683 123.834 89.3211 124.442C89.8738 125.05 90.1631 125.852 90.1257 126.673Z" fill="url(#paint5_radial_5936_4970)" style="mix-blend-mode:screen"/>
<path d="M179.13 16.7875C178.987 19.9615 177.906 23.0217 176.023 25.5811C174.14 28.1405 171.541 30.0841 168.554 31.166C165.566 32.248 162.325 32.4197 159.24 31.6595C156.155 30.8993 153.365 29.2413 151.222 26.8952C149.08 24.5491 147.681 21.6203 147.203 18.4792C146.725 15.3381 147.19 12.1258 148.538 9.24863C149.885 6.37147 152.056 3.95865 154.776 2.31535C157.495 0.672049 160.64 -0.127909 163.814 0.0166364C168.069 0.2104 172.073 2.08595 174.945 5.2309C177.817 8.37585 179.322 12.5327 179.13 16.7875Z" fill="url(#paint6_radial_5936_4970)" style="mix-blend-mode:screen"/>
<path d="M140.302 95.1955C140.159 98.3695 139.077 101.43 137.195 103.989C135.312 106.549 132.713 108.492 129.725 109.574C126.738 110.656 123.497 110.828 120.412 110.068C117.327 109.307 114.537 107.649 112.394 105.303C110.252 102.957 108.853 100.028 108.375 96.8872C107.897 93.7461 108.362 90.5338 109.709 87.6567C111.057 84.7795 113.228 82.3667 115.947 80.7234C118.667 79.0801 121.812 78.2801 124.986 78.4247C129.241 78.6184 133.244 80.494 136.117 83.6389C138.989 86.7839 140.494 90.9407 140.302 95.1955Z" fill="url(#paint7_radial_5936_4970)" style="mix-blend-mode:screen"/>
<path d="M244.957 147.336C244.814 150.51 243.733 153.571 241.85 156.13C239.967 158.69 237.368 160.633 234.381 161.715C231.393 162.797 228.152 162.969 225.067 162.209C221.982 161.448 219.192 159.79 217.05 157.444C214.907 155.098 213.508 152.169 213.03 149.028C212.553 145.887 213.017 142.675 214.365 139.798C215.713 136.92 217.883 134.508 220.603 132.864C223.322 131.221 226.468 130.421 229.641 130.566C231.749 130.659 233.817 131.167 235.728 132.061C237.639 132.955 239.355 134.217 240.778 135.774C242.2 137.332 243.302 139.155 244.019 141.139C244.736 143.123 245.055 145.229 244.957 147.336Z" fill="url(#paint8_radial_5936_4970)" style="mix-blend-mode:screen"/>
<defs>
<radialGradient id="paint0_radial_5936_4970" cx="0" cy="0" r="1" gradientUnits="userSpaceOnUse" gradientTransform="translate(290.277 104.81) scale(9.69288 9.69287)">
<stop stop-color="#E9F9FF"/>
<stop offset="0.11" stop-color="#CBF0FF"/>
<stop offset="0.27" stop-color="#97E2FF"/>
<stop offset="0.32" stop-color="#91D8F4" stop-opacity="0.96"/>
<stop offset="0.42" stop-color="#82C0D8" stop-opacity="0.84"/>
<stop offset="0.55" stop-color="#6A99AB" stop-opacity="0.64"/>
<stop offset="0.7" stop-color="#48646F" stop-opacity="0.37"/>
<stop offset="0.88" stop-color="#1C2528" stop-opacity="0.03"/>
<stop offset="0.9" stop-color="#151E21" stop-opacity="0"/>
</radialGradient>
<radialGradient id="paint1_radial_5936_4970" cx="0" cy="0" r="1" gradientUnits="userSpaceOnUse" gradientTransform="translate(47.3459 84.1656) scale(9.69289 9.69287)">
<stop stop-color="#E9F9FF"/>
<stop offset="0.11" stop-color="#CBF0FF"/>
<stop offset="0.27" stop-color="#97E2FF"/>
<stop offset="0.32" stop-color="#91D8F4" stop-opacity="0.96"/>
<stop offset="0.42" stop-color="#82C0D8" stop-opacity="0.84"/>
<stop offset="0.55" stop-color="#6A99AB" stop-opacity="0.64"/>
<stop offset="0.7" stop-color="#48646F" stop-opacity="0.37"/>
<stop offset="0.88" stop-color="#1C2528" stop-opacity="0.03"/>
<stop offset="0.9" stop-color="#151E21" stop-opacity="0"/>
</radialGradient>
<radialGradient id="paint2_radial_5936_4970" cx="0" cy="0" r="1" gradientUnits="userSpaceOnUse" gradientTransform="translate(49.5856 144.446) scale(9.69287 9.69287)">
<stop stop-color="#E9F9FF"/>
<stop offset="0.11" stop-color="#CBF0FF"/>
<stop offset="0.27" stop-color="#97E2FF"/>
<stop offset="0.32" stop-color="#91D8F4" stop-opacity="0.96"/>
<stop offset="0.42" stop-color="#82C0D8" stop-opacity="0.84"/>
<stop offset="0.55" stop-color="#6A99AB" stop-opacity="0.64"/>
<stop offset="0.7" stop-color="#48646F" stop-opacity="0.37"/>
<stop offset="0.88" stop-color="#1C2528" stop-opacity="0.03"/>
<stop offset="0.9" stop-color="#151E21" stop-opacity="0"/>
</radialGradient>
<radialGradient id="paint3_radial_5936_4970" cx="0" cy="0" r="1" gradientUnits="userSpaceOnUse" gradientTransform="translate(214.208 84.0281) scale(9.69291 9.69287)">
<stop stop-color="#E9F9FF"/>
<stop offset="0.11" stop-color="#CBF0FF"/>
<stop offset="0.27" stop-color="#97E2FF"/>
<stop offset="0.32" stop-color="#91D8F4" stop-opacity="0.96"/>
<stop offset="0.42" stop-color="#82C0D8" stop-opacity="0.84"/>
<stop offset="0.55" stop-color="#6A99AB" stop-opacity="0.64"/>
<stop offset="0.7" stop-color="#48646F" stop-opacity="0.37"/>
<stop offset="0.88" stop-color="#1C2528" stop-opacity="0.03"/>
<stop offset="0.9" stop-color="#151E21" stop-opacity="0"/>
</radialGradient>
<radialGradient id="paint4_radial_5936_4970" cx="0" cy="0" r="1" gradientUnits="userSpaceOnUse" gradientTransform="translate(182.199 50.8668) scale(3.10654 3.10643)">
<stop stop-color="#E9F9FF"/>
<stop offset="0.11" stop-color="#CBF0FF"/>
<stop offset="0.27" stop-color="#97E2FF"/>
<stop offset="0.32" stop-color="#91D8F4" stop-opacity="0.96"/>
<stop offset="0.42" stop-color="#82C0D8" stop-opacity="0.84"/>
<stop offset="0.55" stop-color="#6A99AB" stop-opacity="0.64"/>
<stop offset="0.7" stop-color="#48646F" stop-opacity="0.37"/>
<stop offset="0.88" stop-color="#1C2528" stop-opacity="0.03"/>
<stop offset="0.9" stop-color="#151E21" stop-opacity="0"/>
</radialGradient>
<radialGradient id="paint5_radial_5936_4970" cx="0" cy="0" r="1" gradientUnits="userSpaceOnUse" gradientTransform="translate(87.0389 126.535) scale(3.10646 3.10644)">
<stop stop-color="#E9F9FF"/>
<stop offset="0.11" stop-color="#CBF0FF"/>
<stop offset="0.27" stop-color="#97E2FF"/>
<stop offset="0.32" stop-color="#91D8F4" stop-opacity="0.96"/>
<stop offset="0.42" stop-color="#82C0D8" stop-opacity="0.84"/>
<stop offset="0.55" stop-color="#6A99AB" stop-opacity="0.64"/>
<stop offset="0.7" stop-color="#48646F" stop-opacity="0.37"/>
<stop offset="0.88" stop-color="#1C2528" stop-opacity="0.03"/>
<stop offset="0.9" stop-color="#151E21" stop-opacity="0"/>
</radialGradient>
<radialGradient id="paint6_radial_5936_4970" cx="0" cy="0" r="1" gradientUnits="userSpaceOnUse" gradientTransform="translate(162.989 16.06) scale(16.063 16.063)">
<stop stop-color="#E9F9FF"/>
<stop offset="0.11" stop-color="#CBF0FF"/>
<stop offset="0.27" stop-color="#97E2FF"/>
<stop offset="0.32" stop-color="#91D8F4" stop-opacity="0.96"/>
<stop offset="0.42" stop-color="#82C0D8" stop-opacity="0.84"/>
<stop offset="0.55" stop-color="#6A99AB" stop-opacity="0.64"/>
<stop offset="0.7" stop-color="#48646F" stop-opacity="0.37"/>
<stop offset="0.88" stop-color="#1C2528" stop-opacity="0.03"/>
<stop offset="0.9" stop-color="#151E21" stop-opacity="0"/>
</radialGradient>
<radialGradient id="paint7_radial_5936_4970" cx="0" cy="0" r="1" gradientUnits="userSpaceOnUse" gradientTransform="translate(124.259 94.468) scale(16.063 16.063)">
<stop stop-color="#E9F9FF"/>
<stop offset="0.11" stop-color="#CBF0FF"/>
<stop offset="0.27" stop-color="#97E2FF"/>
<stop offset="0.32" stop-color="#91D8F4" stop-opacity="0.96"/>
<stop offset="0.42" stop-color="#82C0D8" stop-opacity="0.84"/>
<stop offset="0.55" stop-color="#6A99AB" stop-opacity="0.64"/>
<stop offset="0.7" stop-color="#48646F" stop-opacity="0.37"/>
<stop offset="0.88" stop-color="#1C2528" stop-opacity="0.03"/>
<stop offset="0.9" stop-color="#151E21" stop-opacity="0"/>
</radialGradient>
<radialGradient id="paint8_radial_5936_4970" cx="0" cy="0" r="1" gradientUnits="userSpaceOnUse" gradientTransform="translate(228.914 146.629) scale(16.063 16.063)">
<stop stop-color="#E9F9FF"/>
<stop offset="0.11" stop-color="#CBF0FF"/>
<stop offset="0.27" stop-color="#97E2FF"/>
<stop offset="0.32" stop-color="#91D8F4" stop-opacity="0.96"/>
<stop offset="0.42" stop-color="#82C0D8" stop-opacity="0.84"/>
<stop offset="0.55" stop-color="#6A99AB" stop-opacity="0.64"/>
<stop offset="0.7" stop-color="#48646F" stop-opacity="0.37"/>
<stop offset="0.88" stop-color="#1C2528" stop-opacity="0.03"/>
<stop offset="0.9" stop-color="#151E21" stop-opacity="0"/>
</radialGradient>
</defs>
</svg>
