<svg width="470" height="441" viewBox="0 0 470 441" fill="none" xmlns="http://www.w3.org/2000/svg">
<mask id="mask0_380_16022" style="mask-type:alpha" maskUnits="userSpaceOnUse" x="0" y="0" width="470" height="441">
<rect width="470" height="441" fill="#D9D9D9"/>
</mask>
<g mask="url(#mask0_380_16022)">
<g filter="url(#filter0_f_380_16022)">
<rect width="100" height="600" transform="matrix(-0.707107 -0.707107 -0.707107 0.707107 659.488 -131.645)" fill="#00B3F8"/>
</g>
<g filter="url(#filter1_f_380_16022)">
<rect width="50" height="300" rx="25" transform="matrix(-0.707107 -0.707107 -0.707107 0.707107 531.488 -43.6447)" fill="url(#paint0_linear_380_16022)"/>
</g>
<g filter="url(#filter2_f_380_16022)">
<path d="M259.275 168.054C259.172 168.125 259.092 168.228 259.055 168.349C259.019 168.471 259.029 168.6 259.085 168.71C259.14 168.82 259.238 168.905 259.357 168.947C259.477 168.99 259.607 168.986 259.725 168.946C259.725 168.946 259.725 168.946 259.725 168.946C269.756 165.559 279.69 161.761 289.491 157.59C378.196 119.769 453.023 53.2447 513.961 -19.9187C575.267 -93.5795 624.078 -175.004 669.377 -258.32C674.408 -267.573 679.441 -276.911 684.403 -286.204C684.462 -286.314 684.487 -286.442 684.465 -286.567C684.442 -286.692 684.375 -286.802 684.275 -286.875C684.176 -286.948 684.051 -286.98 683.925 -286.964C683.799 -286.948 683.684 -286.885 683.597 -286.796C683.597 -286.796 683.597 -286.796 683.597 -286.796C676.215 -279.276 668.868 -271.602 661.641 -263.92C596.443 -194.522 537.995 -120.653 478.62 -49.3638C419.063 21.8152 359.043 91.4882 284.668 149.347C276.393 155.753 267.933 161.998 259.275 168.054Z" fill="url(#paint1_linear_380_16022)"/>
</g>
</g>
<defs>
<filter id="filter0_f_380_16022" x="-135.486" y="-502.355" width="1094.97" height="1094.97" filterUnits="userSpaceOnUse" color-interpolation-filters="sRGB">
<feFlood flood-opacity="0" result="BackgroundImageFix"/>
<feBlend mode="normal" in="SourceGraphic" in2="BackgroundImageFix" result="shape"/>
<feGaussianBlur stdDeviation="150" result="effect1_foregroundBlur_380_16022"/>
</filter>
<filter id="filter1_f_380_16022" x="194.355" y="-168.645" width="426.777" height="426.777" filterUnits="userSpaceOnUse" color-interpolation-filters="sRGB">
<feFlood flood-opacity="0" result="BackgroundImageFix"/>
<feBlend mode="normal" in="SourceGraphic" in2="BackgroundImageFix" result="shape"/>
<feGaussianBlur stdDeviation="50" result="effect1_foregroundBlur_380_16022"/>
</filter>
<filter id="filter2_f_380_16022" x="209.033" y="-336.968" width="525.439" height="555.945" filterUnits="userSpaceOnUse" color-interpolation-filters="sRGB">
<feFlood flood-opacity="0" result="BackgroundImageFix"/>
<feBlend mode="normal" in="SourceGraphic" in2="BackgroundImageFix" result="shape"/>
<feGaussianBlur stdDeviation="25" result="effect1_foregroundBlur_380_16022"/>
</filter>
<linearGradient id="paint0_linear_380_16022" x1="25.6982" y1="298.139" x2="23.9304" y2="15.6497" gradientUnits="userSpaceOnUse">
<stop stop-color="#008ECD"/>
<stop offset="1" stop-color="#A0DFFF"/>
</linearGradient>
<linearGradient id="paint1_linear_380_16022" x1="536.93" y1="164.511" x2="536.261" y2="-262.842" gradientUnits="userSpaceOnUse">
<stop stop-color="#008ECD"/>
<stop offset="1" stop-color="#A0DFFF"/>
</linearGradient>
</defs>
</svg>
