<svg width="368" height="230" viewBox="0 0 368 230" fill="none" xmlns="http://www.w3.org/2000/svg">
<path d="M367.012 82.8552L0 79.7903L134.774 221.466C135.131 222.272 136.018 223.044 137.424 223.793C139.647 224.968 143.104 226.04 147.563 226.95C152.08 227.872 157.587 228.632 163.809 229.162C170.077 229.692 177.037 229.992 184.376 229.992C191.716 229.992 198.675 229.692 204.943 229.162C211.165 228.632 216.684 227.872 221.189 226.95C225.648 226.04 229.105 224.957 231.328 223.793C232.734 223.056 233.621 222.272 233.979 221.466L367.001 82.8436L367.012 82.8552Z" fill="url(#paint0_linear_5942_3530)" style="mix-blend-mode:screen"/>
<path d="M272.082 0H95.8403L150.939 221.316C151.169 222.134 151.78 222.929 152.713 223.678C154.2 224.876 156.527 225.971 159.511 226.904C162.542 227.849 166.229 228.621 170.4 229.151C174.605 229.692 179.272 229.992 184.192 229.992C189.111 229.992 193.778 229.692 197.983 229.151C202.154 228.609 205.853 227.837 208.872 226.904C211.856 225.971 214.183 224.876 215.67 223.678C216.615 222.929 217.214 222.134 217.444 221.316L272.07 0H272.082Z" fill="url(#paint1_linear_5942_3530)" style="mix-blend-mode:screen"/>
<defs>
<linearGradient id="paint0_linear_5942_3530" x1="183.512" y1="256.216" x2="183.512" y2="102.973" gradientUnits="userSpaceOnUse">
<stop stop-color="#18BEFF"/>
<stop offset="1" stop-opacity="0"/>
</linearGradient>
<linearGradient id="paint1_linear_5942_3530" x1="183.961" y1="301.602" x2="183.961" y2="81.1153" gradientUnits="userSpaceOnUse">
<stop stop-color="#18BEFF"/>
<stop offset="1" stop-opacity="0"/>
</linearGradient>
</defs>
</svg>
