<svg width="135" height="48" viewBox="0 0 135 48" fill="none" xmlns="http://www.w3.org/2000/svg">
<path d="M133.998 5.79819C133.841 6.05683 133.767 6.20001 133.675 6.32934C129.305 12.6878 124.932 19.0446 120.559 25.4C117.279 30.1757 114.003 34.9484 110.729 39.718C110.657 39.8667 110.545 39.9918 110.404 40.0785C110.264 40.1653 110.101 40.21 109.936 40.2076C107.129 40.2076 104.316 40.2076 101.509 40.2076C101.463 40.2076 101.412 40.2075 101.292 40.1706C101.37 40.0022 101.461 39.8401 101.564 39.6856C105.123 34.7529 108.715 29.8432 112.237 24.9058C116.386 19.0493 120.503 13.1465 124.634 7.26693C124.757 7.12298 124.866 6.96842 124.962 6.80506C125.34 5.96446 125.971 5.76586 126.87 5.79819C128.959 5.87209 131.047 5.82589 133.136 5.83051L133.998 5.79819Z" fill="white"/>
<path d="M120.113 34.1808L108.218 46.9561L108.112 46.8776L122.866 25.3359C126.586 30.2872 130.27 35.1646 134.018 40.2082H133.294C130.556 40.2082 127.822 40.2082 125.083 40.2082C124.907 40.2244 124.73 40.1895 124.573 40.1076C124.416 40.0257 124.286 39.9003 124.198 39.7463C123.008 38.0836 121.796 36.4393 120.593 34.7904C120.454 34.6103 120.307 34.4255 120.113 34.1808Z" fill="white"/>
<path d="M111.338 23.0243L101.597 9.824C101.91 9.824 102.09 9.78242 102.27 9.78242C104.981 9.78242 107.696 9.78242 110.407 9.78242C110.584 9.77092 110.761 9.80783 110.918 9.88919C111.076 9.97055 111.208 10.0933 111.302 10.2443C112.081 11.3389 112.897 12.4105 113.699 13.4774C113.837 13.6667 113.989 13.8469 114.206 14.1194C118.549 9.3806 122.846 4.68799 127.147 0L127.258 0.0877566L111.338 23.0243Z" fill="white"/>
<path d="M16.2651 26.7581C16.3942 26.8227 16.5141 26.9012 16.6432 26.9521C19.7506 28.1668 20.8479 30.9611 20.6358 33.7646C20.5906 34.6599 20.355 35.5351 19.9447 36.3316C19.5344 37.1282 18.9589 37.8277 18.2568 38.3833C17.1714 39.1888 15.9047 39.7139 14.5685 39.9121C13.6965 40.0832 12.8107 40.1744 11.9222 40.1846C8.07711 40.2216 4.23206 40.2124 0.396225 40.217C0.280965 40.217 0.165701 40.217 -0.00488281 40.1893V14.7125C0.193363 14.7125 0.396223 14.6617 0.60369 14.6617H11.8484C13.4865 14.6337 15.1082 14.9912 16.5833 15.7055C20.5528 17.6592 20.8571 23.4418 17.6805 25.8667C17.2379 26.1807 16.7492 26.444 16.2651 26.7581ZM3.71109 28.5178V37.0208C3.87706 37.0208 3.99232 37.0532 4.10758 37.0532C6.48653 37.0532 8.86087 37.0809 11.2352 37.0532C12.0987 37.0457 12.9592 36.9497 13.8032 36.7668C15.1863 36.462 16.3435 35.8107 16.7216 34.3189C16.8861 33.6925 16.9529 33.0444 16.9198 32.3975C16.9121 31.5574 16.6153 30.7457 16.0794 30.0994C15.5435 29.4531 14.8014 29.0119 13.9784 28.8503C13.2591 28.6662 12.5214 28.564 11.7792 28.5455C9.7138 28.5086 7.6299 28.5455 5.58751 28.5455L3.71109 28.5178ZM3.71109 17.7701V25.3355C3.88167 25.3355 3.99693 25.3678 4.11219 25.3678C6.53725 25.3678 8.9623 25.3678 11.3874 25.3678C11.9376 25.3594 12.4857 25.2975 13.024 25.1831C13.5247 25.1064 14.0048 24.9294 14.4357 24.6628C14.8666 24.3962 15.2395 24.0453 15.5321 23.6312C15.8623 23.16 16.075 22.6164 16.1526 22.0459C16.2302 21.4755 16.1704 20.8947 15.9781 20.3521C15.7858 19.8095 15.4667 19.321 15.0475 18.9272C14.6282 18.5335 14.1209 18.246 13.5681 18.0888C12.693 17.8293 11.7834 17.7062 10.871 17.7239C8.70873 17.7008 6.55108 17.7239 4.38881 17.7239C4.17674 17.7285 3.96927 17.7516 3.71109 17.7701Z" fill="white"/>
<path d="M33.1916 40.576C31.403 40.6064 29.6385 40.1601 28.0787 39.2827C25.3125 37.7077 23.9708 35.1998 23.6204 32.1145C23.472 30.7965 23.5579 29.4627 23.874 28.1747C24.2763 26.3661 25.2355 24.7296 26.6162 23.4965C27.9968 22.2634 29.7292 21.4958 31.5687 21.3021C33.6017 20.987 35.6823 21.2644 37.5622 22.1011C38.6763 22.5898 39.6713 23.3149 40.4784 24.2264C41.2855 25.1378 41.8856 26.2139 42.2371 27.3803C42.6993 28.7127 42.8932 30.1237 42.8078 31.5316C42.7223 32.9396 42.3591 34.3166 41.7392 35.5831C40.4253 38.3082 38.1662 39.7723 35.2847 40.3542C34.5839 40.4836 33.8831 40.4974 33.1916 40.576ZM27.1981 31.0753C27.2258 31.297 27.2626 31.7265 27.3226 32.156C27.7283 35.1813 29.5356 37.0657 32.5231 37.4306C34.8283 37.7124 37.1335 36.8348 38.2814 34.4977C38.8911 33.3297 39.1944 32.0256 39.1629 30.7079C39.1315 29.3902 38.7663 28.1021 38.1016 26.9646C37.7531 26.3165 37.2656 25.7538 36.6741 25.317C36.0826 24.8802 35.4018 24.58 34.6807 24.4382C34.2838 24.3455 33.8797 24.2868 33.4728 24.2627C32.2529 24.1581 31.0325 24.4581 29.9995 25.1166C28.9665 25.7751 28.1782 26.7555 27.756 27.9068C27.3866 28.921 27.1932 29.9911 27.1843 31.0707L27.1981 31.0753Z" fill="white"/>
<path d="M89.9788 35.5604C91.8229 30.9139 93.6794 26.2675 95.5481 21.6211H99.3102C99.1995 21.9352 99.1212 22.1984 99.0151 22.4478L95.3914 31.1587C94.0866 34.2856 92.8003 37.4171 91.4818 40.5347C90.9792 41.7309 90.4444 42.9133 89.8359 44.0588C89.0514 45.6541 87.6846 46.8861 86.0185 47.4997C84.6088 47.9766 83.1071 48.1158 81.634 47.9062C81.5925 46.8716 81.551 45.9016 81.5049 44.8671C81.9659 44.8671 82.3348 44.8994 82.7082 44.8671C83.2798 44.8204 83.8479 44.7387 84.4094 44.6223C84.8473 44.5305 85.2593 44.3424 85.6157 44.0716C85.9721 43.8008 86.264 43.4541 86.4703 43.0565C86.982 42.1097 87.4154 41.1167 87.8857 40.1467C87.9345 40.0116 87.9511 39.8669 87.9343 39.7242C87.9175 39.5815 87.8677 39.4447 87.7888 39.3246L84.3172 31.1726L80.4584 22.1014C80.403 21.9721 80.3708 21.8336 80.3154 21.6396H84.1928C86.06 26.2583 87.9456 30.9093 89.8359 35.565L89.9788 35.5604Z" fill="white"/>
<path d="M73.9304 21.6388H78.8543V24.4978C77.2268 24.5994 75.604 24.4609 73.9166 24.5763V40.1645H70.3527V24.5717C69.1725 24.4239 68.0476 24.5717 66.8857 24.484V21.6388H70.3205C70.3205 21.2786 70.3205 20.9968 70.3205 20.7151C70.3546 19.7874 70.4393 18.8623 70.574 17.9439C71.0858 15.2835 73.0498 13.8886 75.4057 13.593C76.5754 13.4359 77.7632 13.4781 78.9188 13.7178C79.1724 13.7732 79.4213 13.8517 79.698 13.9302V16.7892C79.3706 16.7476 79.0756 16.6876 78.7759 16.6691C78.0375 16.5968 77.2956 16.566 76.5537 16.5767C75.9706 16.5872 75.4081 16.7944 74.9571 17.1649C74.5062 17.5354 74.1931 18.0474 74.0687 18.6182C73.859 19.6108 73.8122 20.6311 73.9304 21.6388Z" fill="white"/>
<path d="M47.6599 24.5222H44.1514V21.6401H47.6368C47.6921 20.8226 47.6368 20.0651 47.6368 19.303C47.6368 18.5409 47.6368 17.8158 47.6368 17.0399L51.1591 16.1484C51.2153 16.7487 51.2307 17.352 51.2052 17.9544C51.2052 18.5594 51.2052 19.1598 51.2052 19.7603V21.6078H56.6363V24.5268H51.2974C51.2698 24.7854 51.2283 24.9887 51.2283 25.1503C51.2283 28.0878 51.2283 31.0207 51.2283 33.9536C51.237 34.5064 51.316 35.0558 51.4634 35.5886C51.5895 36.0967 51.8809 36.5482 52.2916 36.8719C52.7024 37.1956 53.2091 37.373 53.7317 37.376C54.5204 37.4634 55.3184 37.3991 56.083 37.1867C56.2167 37.1497 56.355 37.1266 56.5855 37.0758C56.7146 37.9995 56.8437 38.9002 56.9728 39.847C56.8072 39.946 56.6328 40.0295 56.4519 40.0964C54.8927 40.6133 53.2195 40.6789 51.6248 40.2858C50.6415 40.0688 49.749 39.5532 49.0691 38.8092C48.3892 38.0653 47.955 37.1293 47.8258 36.129C47.7128 35.4902 47.6573 34.8425 47.6599 34.1937C47.6599 31.2562 47.6599 28.3234 47.6599 25.3905V24.5222Z" fill="white"/>
<path d="M60.2529 21.6387H63.7522V40.2013H60.2529V21.6387Z" fill="white"/>
<path d="M59.9482 18.0447V14.4375H64.0238V18.0078C62.6703 18.1621 61.3043 18.1745 59.9482 18.0447Z" fill="white"/>
</svg>
