<svg width="10" height="14" viewBox="0 0 10 14" fill="none" xmlns="http://www.w3.org/2000/svg">
<path d="M9.75598 1.72836C9.70922 1.80548 9.68722 1.84817 9.65971 1.88673C8.35598 3.7826 7.05179 5.678 5.74714 7.57295C4.76889 8.99692 3.79155 10.42 2.81512 11.8421C2.79366 11.8864 2.76 11.9237 2.7181 11.9496C2.6762 11.9755 2.6278 11.9888 2.57858 11.9881C1.74106 11.9881 0.90216 11.9881 0.0646366 11.9881C0.0508842 11.9881 0.0357563 11.9881 0 11.9771C0.0233134 11.9268 0.0504432 11.8785 0.0811431 11.8325C1.14283 10.3617 2.21414 8.89776 3.26483 7.4256C4.50255 5.67938 5.73064 3.91939 6.96286 2.16629C6.99941 2.12337 7.03209 2.07728 7.0605 2.02858C7.17327 1.77794 7.36168 1.71872 7.62985 1.72836C8.25284 1.75039 8.87582 1.73662 9.49881 1.738L9.75598 1.72836Z" fill="#00B3F8"/>
<path d="M5.61394 10.1908L2.06581 14L2.03418 13.9766L6.43496 7.5536C7.54478 9.0299 8.6436 10.4842 9.76167 11.988H9.54576C8.72886 11.988 7.91334 11.988 7.09645 11.988C7.04388 11.9928 6.99103 11.9824 6.94421 11.958C6.89739 11.9336 6.85858 11.8962 6.83241 11.8503C6.47759 11.3545 6.1159 10.8643 5.75696 10.3726C5.71571 10.3189 5.6717 10.2638 5.61394 10.1908Z" fill="#00B3F8"/>
<path d="M2.99818 6.86506L0.0922852 2.92918C0.185802 2.92918 0.239435 2.91679 0.29307 2.91679C1.10171 2.91679 1.91173 2.91679 2.72037 2.91679C2.77313 2.91336 2.82583 2.92436 2.87283 2.94862C2.91983 2.97288 2.95935 3.00948 2.98717 3.0545C3.21959 3.38088 3.46301 3.70038 3.7023 4.0185C3.74356 4.07496 3.78894 4.12867 3.85358 4.20993C5.14906 2.79698 6.43078 1.3978 7.71389 0L7.74689 0.026166L2.99818 6.86506Z" fill="#00B3F8"/>
</svg>
