<svg width="698" height="250" viewBox="0 0 698 250" fill="none" xmlns="http://www.w3.org/2000/svg">
<mask id="mask0_171_308" style="mask-type:alpha" maskUnits="userSpaceOnUse" x="0" y="0" width="698" height="250">
<rect width="698" height="250" fill="#D9D9D9"/>
</mask>
<g mask="url(#mask0_171_308)">
<path d="M697.907 30.1989C697.091 31.546 696.707 32.2917 696.226 32.9653C673.463 66.0821 650.691 99.1908 627.911 132.292C610.83 157.165 593.766 182.023 576.717 206.864C576.342 207.639 575.754 208.291 575.023 208.742C574.291 209.194 573.446 209.427 572.587 209.414C557.963 209.414 543.316 209.414 528.692 209.414C528.452 209.414 528.188 209.414 527.563 209.222C527.971 208.345 528.444 207.5 528.98 206.696C547.518 181.004 566.223 155.433 584.569 129.718C606.18 99.2149 627.623 68.4716 649.138 37.8486C649.776 37.0989 650.347 36.2939 650.843 35.443C652.812 31.0649 656.102 30.0305 660.784 30.1989C671.662 30.5838 682.539 30.3432 693.417 30.3672L697.907 30.1989Z" fill="#00B3F8"/>
<path d="M625.59 178.025L563.638 244.563L563.086 244.154L639.926 131.958C659.304 157.746 678.489 183.149 698.012 209.418H694.242C679.978 209.418 665.739 209.418 651.476 209.418C650.558 209.502 649.635 209.32 648.817 208.894C648 208.467 647.322 207.814 646.865 207.012C640.67 198.352 634.355 189.788 628.087 181.2C627.367 180.262 626.599 179.3 625.59 178.025Z" fill="#00B3F8"/>
<path d="M579.889 119.918L529.15 51.1667C530.783 51.1667 531.72 50.9501 532.656 50.9501C546.775 50.9501 560.919 50.9501 575.038 50.9501C575.959 50.8902 576.879 51.0824 577.7 51.5062C578.521 51.9299 579.211 52.5692 579.696 53.3557C583.755 59.0569 588.005 64.6378 592.183 70.1947C592.903 71.181 593.696 72.1192 594.824 73.5385C617.444 48.8573 639.823 24.4166 662.227 0L662.803 0.457065L579.889 119.918Z" fill="#00B3F8"/>
<path d="M84.7153 139.365C85.3876 139.702 86.0119 140.111 86.6843 140.375C102.869 146.702 108.584 161.256 107.479 175.858C107.244 180.52 106.017 185.078 103.88 189.227C101.743 193.376 98.7454 197.019 95.0886 199.913C89.4356 204.108 82.8378 206.843 75.8787 207.876C71.3369 208.767 66.7235 209.242 62.0956 209.295C42.0693 209.487 22.043 209.439 2.06469 209.463C1.46438 209.463 0.864044 209.463 -0.0244141 209.319V76.6275C1.00812 76.6275 2.06468 76.3629 3.14524 76.3629H61.7114C70.243 76.2173 78.6897 78.0794 86.3721 81.7995C107.047 91.975 108.632 122.093 92.0871 134.722C89.7819 136.358 87.2366 137.729 84.7153 139.365ZM19.3296 148.53V192.817C20.194 192.817 20.7943 192.985 21.3947 192.985C33.785 192.985 46.1514 193.13 58.5178 192.985C63.0152 192.946 67.4968 192.446 71.8927 191.494C79.0964 189.906 85.1235 186.514 87.0925 178.744C87.9493 175.482 88.2976 172.106 88.125 168.737C88.085 164.361 86.5389 160.134 83.7477 156.768C80.9566 153.402 77.0915 151.104 72.8051 150.262C69.0589 149.303 65.2167 148.771 61.3513 148.675C50.5937 148.482 39.7401 148.675 29.1026 148.675L19.3296 148.53ZM19.3296 92.5524V131.956C20.2181 131.956 20.8183 132.124 21.4187 132.124C34.0492 132.124 46.6797 132.124 59.3102 132.124C62.176 132.08 65.0308 131.758 67.8346 131.162C70.4421 130.762 72.9426 129.841 75.1869 128.452C77.4312 127.063 79.3733 125.236 80.8973 123.079C82.6169 120.625 83.7251 117.794 84.1292 114.822C84.5333 111.851 84.2217 108.826 83.2203 106.001C82.219 103.175 80.557 100.63 78.3732 98.5793C76.1895 96.5284 73.5475 95.031 70.668 94.2122C66.1106 92.8609 61.3728 92.2199 56.6208 92.3118C45.359 92.1915 34.1212 92.3118 22.8594 92.3118C21.7548 92.3359 20.6743 92.4562 19.3296 92.5524Z" fill="#0F172A"/>
<path d="M172.874 211.333C163.558 211.492 154.368 209.167 146.244 204.597C131.837 196.394 124.849 183.332 123.024 167.263C122.251 160.399 122.698 153.451 124.345 146.743C126.44 137.323 131.436 128.8 138.627 122.378C145.818 115.955 154.84 111.957 164.422 110.948C175.01 109.307 185.846 110.752 195.638 115.11C201.44 117.655 206.622 121.432 210.826 126.179C215.03 130.926 218.155 136.531 219.986 142.606C222.393 149.545 223.403 156.894 222.958 164.227C222.513 171.56 220.622 178.732 217.393 185.329C210.549 199.522 198.783 207.147 183.776 210.178C180.126 210.852 176.476 210.924 172.874 211.333ZM141.658 161.85C141.802 163.005 141.994 165.242 142.306 167.479C144.419 183.236 153.832 193.051 169.392 194.951C181.398 196.419 193.404 191.848 199.384 179.676C202.559 173.592 204.139 166.8 203.975 159.937C203.811 153.074 201.909 146.365 198.447 140.441C196.632 137.065 194.092 134.135 191.012 131.859C187.931 129.584 184.385 128.021 180.63 127.282C178.562 126.8 176.458 126.494 174.339 126.368C167.985 125.823 161.628 127.386 156.248 130.816C150.868 134.245 146.762 139.351 144.563 145.348C142.639 150.63 141.632 156.204 141.586 161.826L141.658 161.85Z" fill="#0F172A"/>
<path d="M468.64 185.21C478.245 161.01 487.914 136.81 497.647 112.61H517.242C516.665 114.246 516.257 115.617 515.705 116.916L496.831 162.285C490.035 178.571 483.336 194.881 476.469 211.118C473.851 217.349 471.066 223.507 467.896 229.473C463.81 237.782 456.692 244.198 448.014 247.394C440.672 249.878 432.851 250.603 425.178 249.511C424.962 244.123 424.746 239.071 424.506 233.683C426.907 233.683 428.828 233.851 430.773 233.683C433.75 233.44 436.709 233.014 439.633 232.408C441.914 231.93 444.06 230.95 445.916 229.54C447.772 228.129 449.292 226.323 450.367 224.253C453.032 219.321 455.29 214.149 457.739 209.098C457.993 208.394 458.08 207.64 457.992 206.897C457.905 206.153 457.645 205.441 457.235 204.816L439.153 162.357L419.055 115.112C418.767 114.438 418.599 113.716 418.311 112.706H438.505C448.23 136.762 458.051 160.986 467.896 185.234L468.64 185.21Z" fill="#0F172A"/>
<path d="M385.055 112.702H410.7V127.593C402.224 128.122 393.772 127.4 384.983 128.002V209.19H366.422V127.978C360.274 127.208 354.415 127.978 348.364 127.521V112.702H366.253C366.253 110.826 366.253 109.359 366.253 107.891C366.431 103.06 366.872 98.2412 367.574 93.4577C370.24 79.6016 380.469 72.3367 392.739 70.7971C398.831 69.9786 405.018 70.1982 411.037 71.4467C412.357 71.7353 413.654 72.1443 415.095 72.5532V87.4437C413.39 87.2272 411.853 86.9145 410.292 86.8183C406.446 86.4419 402.582 86.2813 398.718 86.3372C395.681 86.3917 392.751 87.4709 390.403 89.4005C388.054 91.33 386.424 93.9969 385.776 96.9698C384.683 102.14 384.44 107.454 385.055 112.702Z" fill="#0F172A"/>
<path d="M248.229 127.72H229.956V112.709H248.109C248.398 108.451 248.109 104.506 248.109 100.537C248.109 96.5674 248.109 92.7906 248.109 88.7493L266.455 84.1064C266.747 87.2326 266.828 90.3752 266.695 93.5123C266.695 96.6636 266.695 99.7908 266.695 102.918V112.54H294.982V127.744H267.175C267.031 129.091 266.815 130.149 266.815 130.991C266.815 146.291 266.815 161.566 266.815 176.841C266.86 179.721 267.272 182.582 268.04 185.357C268.696 188.004 270.214 190.355 272.353 192.041C274.493 193.727 277.132 194.651 279.854 194.667C283.961 195.122 288.118 194.787 292.1 193.68C292.796 193.488 293.517 193.368 294.717 193.103C295.39 197.914 296.062 202.605 296.735 207.537C295.872 208.052 294.963 208.487 294.021 208.836C285.9 211.528 277.186 211.869 268.88 209.822C263.759 208.692 259.111 206.006 255.569 202.132C252.028 198.257 249.767 193.382 249.094 188.172C248.505 184.845 248.216 181.471 248.229 178.092C248.229 162.793 248.229 147.517 248.229 132.242V127.72Z" fill="#0F172A"/>
<path d="M313.818 112.701H332.044V209.382H313.818V112.701Z" fill="#0F172A"/>
<path d="M312.231 93.9829V75.1953H333.458V93.7904C326.409 94.5943 319.295 94.6588 312.231 93.9829Z" fill="#0F172A"/>
</g>
</svg>
