<svg width="173" height="250" viewBox="0 0 173 250" fill="none" xmlns="http://www.w3.org/2000/svg">
<mask id="mask0_171_220" style="mask-type:alpha" maskUnits="userSpaceOnUse" x="0" y="0" width="173" height="250">
<rect width="173" height="250" fill="#D9D9D9"/>
</mask>
<g mask="url(#mask0_171_220)">
<path d="M172.907 30.1989C172.09 31.546 171.706 32.2917 171.226 32.9653C148.462 66.0821 125.69 99.1908 102.91 132.292C85.8297 157.165 68.7649 182.023 51.7161 206.864C51.3413 207.639 50.7536 208.291 50.022 208.742C49.2904 209.194 48.4453 209.427 47.586 209.414C32.9624 209.414 18.3149 209.414 3.69133 209.414C3.45121 209.414 3.18707 209.414 2.56274 209.222C2.96981 208.345 3.4435 207.5 3.97954 206.696C22.5171 181.004 41.2227 155.433 59.5682 129.718C81.1793 99.2149 102.622 68.4716 124.137 37.8486C124.776 37.0989 125.346 36.2939 125.842 35.443C127.811 31.0649 131.101 30.0305 135.783 30.1989C146.661 30.5838 157.539 30.3432 168.416 30.3672L172.907 30.1989Z" fill="#00B3F8"/>
</g>
</svg>
