<svg width="56" height="56" viewBox="0 0 56 56" fill="none" xmlns="http://www.w3.org/2000/svg">
<path d="M27.8397 55.1208C20.6671 55.0912 13.7992 52.2164 8.74438 47.1275C3.68953 42.0387 0.860824 35.1518 0.879371 27.9791H0.000223639C-0.0144623 31.6477 0.694289 35.2832 2.08592 38.6776C3.47755 42.0721 5.52477 45.1589 8.11045 47.7614C10.6961 50.3639 13.7695 52.4311 17.1549 53.8448C20.5402 55.2584 24.1711 55.9908 27.8397 55.9999C31.4648 56.0084 35.0554 55.2969 38.4033 53.9067L38.0684 53.0974C34.8247 54.4366 31.3491 55.1241 27.8397 55.1208Z" fill="url(#paint0_linear_191_243)"/>
<path d="M27.8402 4.56863e-05C24.1959 -0.0065896 20.5864 0.709601 17.2207 2.10718L17.5416 2.91655C20.8061 1.56354 24.3064 0.871084 27.8402 0.879193C35.008 0.912431 41.87 3.78697 46.9215 8.87241C51.9729 13.9579 54.8014 20.8391 54.7865 28.007V28.1325H55.6656V28.007C55.6784 24.3407 54.9688 20.7078 53.5773 17.3159C52.1857 13.9239 50.1394 10.8394 47.5554 8.23856C44.9714 5.63769 41.9003 3.57144 38.5175 2.15784C35.1346 0.744246 31.5065 0.011022 27.8402 4.56863e-05Z" fill="url(#paint1_linear_191_243)"/>
<path d="M42.3529 50.9344C42.2583 51.002 42.1928 51.1028 42.1695 51.2167C42.1462 51.3306 42.1669 51.4491 42.2273 51.5484C42.269 51.6096 42.3252 51.6596 42.3909 51.6937C42.4567 51.7278 42.53 51.745 42.604 51.7437C42.6818 51.7638 42.7635 51.7638 42.8413 51.7437C42.9359 51.6761 43.0013 51.5753 43.0246 51.4614C43.0479 51.3475 43.0273 51.229 42.9669 51.1297C42.9403 51.0757 42.9031 51.0276 42.8575 50.9884C42.8119 50.9491 42.7588 50.9194 42.7015 50.9012C42.6441 50.8829 42.5837 50.8765 42.5238 50.8822C42.4639 50.8879 42.4057 50.9056 42.3529 50.9344Z" fill="url(#paint2_linear_191_243)"/>
<path d="M40.3844 52.0228C40.3321 52.0492 40.2856 52.086 40.2479 52.1308C40.2102 52.1757 40.182 52.2278 40.165 52.2839C40.148 52.3401 40.1426 52.399 40.1492 52.4573C40.1557 52.5156 40.174 52.5719 40.203 52.6229C40.2396 52.6919 40.2936 52.7502 40.3597 52.7918C40.4258 52.8334 40.5017 52.857 40.5797 52.8601C40.6489 52.8733 40.7199 52.8733 40.7891 52.8601C40.8899 52.8038 40.965 52.7107 40.9987 52.6003C41.0323 52.4898 41.0218 52.3706 40.9695 52.2677C40.9171 52.1647 40.827 52.0861 40.7179 52.0483C40.6088 52.0104 40.4893 52.0163 40.3844 52.0647V52.0228Z" fill="url(#paint3_linear_191_243)"/>
<path d="M44.236 49.5388C44.1895 49.5732 44.1504 49.6165 44.121 49.6662C44.0915 49.7159 44.0723 49.771 44.0645 49.8282C44.0567 49.8854 44.0604 49.9436 44.0755 49.9994C44.0906 50.0551 44.1166 50.1073 44.1522 50.1528C44.1925 50.2068 44.2454 50.2501 44.3061 50.2793C44.3669 50.3085 44.4337 50.3225 44.501 50.3203C44.5985 50.3219 44.6931 50.2871 44.7662 50.2226C44.8111 50.1885 44.8487 50.1457 44.8767 50.0967C44.9047 50.0477 44.9225 49.9935 44.929 49.9375C44.9355 49.8814 44.9306 49.8246 44.9146 49.7705C44.8986 49.7164 44.8719 49.6661 44.836 49.6226C44.8043 49.5749 44.7628 49.5344 44.7144 49.5039C44.6659 49.4734 44.6115 49.4536 44.5548 49.4457C44.498 49.4377 44.4403 49.442 44.3854 49.458C44.3304 49.4741 44.2795 49.5016 44.236 49.5388Z" fill="url(#paint4_linear_191_243)"/>
<path d="M9.35082 8.09361C9.45683 8.09576 9.56033 8.06125 9.64385 7.99592C9.72331 7.91067 9.76748 7.79849 9.76748 7.68195C9.76748 7.56542 9.72331 7.45321 9.64385 7.36797C9.60592 7.32605 9.55964 7.29256 9.50796 7.26963C9.45629 7.24671 9.40037 7.23486 9.34384 7.23486C9.2873 7.23486 9.23143 7.24671 9.17975 7.26963C9.12808 7.29256 9.08175 7.32605 9.04382 7.36797C9.00331 7.40818 8.97117 7.456 8.94923 7.50869C8.9273 7.56138 8.91602 7.6179 8.91602 7.67497C8.91602 7.73204 8.9273 7.78856 8.94923 7.84125C8.97117 7.89394 9.00331 7.94176 9.04382 7.98197C9.12907 8.05545 9.23828 8.09517 9.35082 8.09361Z" fill="url(#paint5_linear_191_243)"/>
<path d="M6.19571 11.5405C6.26015 11.5376 6.32327 11.5212 6.38096 11.4924C6.43865 11.4635 6.48967 11.4229 6.53065 11.3731C6.56733 11.3273 6.59462 11.2747 6.61097 11.2183C6.62731 11.162 6.63239 11.103 6.62592 11.0446C6.61944 10.9863 6.60151 10.9298 6.57319 10.8784C6.54488 10.8271 6.50669 10.7817 6.46085 10.7451C6.41533 10.7096 6.36317 10.6835 6.30741 10.6685C6.25165 10.6534 6.19344 10.6497 6.13622 10.6575C6.07899 10.6653 6.02387 10.6845 5.97418 10.7139C5.92448 10.7433 5.88119 10.7824 5.84685 10.8288C5.81055 10.8735 5.78354 10.925 5.76738 10.9802C5.75122 11.0354 5.74627 11.0933 5.75277 11.1505C5.75927 11.2077 5.7771 11.263 5.80524 11.3132C5.83338 11.3634 5.87126 11.4075 5.91664 11.4428C5.99531 11.5072 6.09409 11.5418 6.19571 11.5405Z" fill="url(#paint6_linear_191_243)"/>
<path d="M3.65715 15.4478C3.73707 15.4535 3.81684 15.4353 3.8864 15.3955C3.95595 15.3558 4.01217 15.2963 4.04788 15.2246C4.0766 15.1746 4.09469 15.1193 4.10107 15.0621C4.10745 15.0049 4.10196 14.947 4.08493 14.892C4.06791 14.8369 4.03974 14.786 4.00214 14.7424C3.96455 14.6988 3.91836 14.6634 3.86647 14.6385C3.81634 14.609 3.76077 14.5899 3.7031 14.5824C3.64544 14.5749 3.58686 14.579 3.53084 14.5946C3.47483 14.6103 3.42254 14.637 3.37711 14.6733C3.33167 14.7096 3.29404 14.7547 3.26643 14.8059C3.21976 14.9125 3.21384 15.0325 3.24986 15.1431C3.28588 15.2538 3.3613 15.3473 3.46177 15.406C3.5204 15.4413 3.58919 15.4561 3.65715 15.4478Z" fill="url(#paint7_linear_191_243)"/>
<path d="M15.0292 4.06086C15.0983 4.07405 15.1693 4.07405 15.2385 4.06086C15.3389 4.00222 15.4134 3.90776 15.4471 3.79646C15.4807 3.68516 15.471 3.56524 15.4199 3.4608C15.3637 3.35781 15.2693 3.28104 15.157 3.2471C15.0448 3.21315 14.9236 3.22477 14.8198 3.2794C14.7693 3.30585 14.7245 3.34201 14.688 3.38582C14.6516 3.42964 14.6241 3.48026 14.6073 3.53473C14.5904 3.58919 14.5844 3.64645 14.5898 3.70322C14.5951 3.75998 14.6117 3.81513 14.6384 3.86549C14.6814 3.9288 14.7398 3.97999 14.8083 4.0142C14.8767 4.04841 14.9527 4.06448 15.0292 4.06086Z" fill="url(#paint8_linear_191_243)"/>
<path d="M7.68903 9.75427C7.7493 9.75465 7.809 9.74242 7.86428 9.71839C7.91955 9.69436 7.96918 9.65905 8.01 9.61472C8.08946 9.52947 8.13363 9.41726 8.13363 9.30073C8.13363 9.1842 8.08946 9.07201 8.01 8.98676C7.92641 8.9041 7.81358 8.85773 7.69602 8.85773C7.57845 8.85773 7.46563 8.9041 7.38203 8.98676C7.30351 9.0697 7.25977 9.17956 7.25977 9.29377C7.25977 9.40797 7.30351 9.51784 7.38203 9.60077C7.41945 9.6466 7.46615 9.68397 7.51907 9.71043C7.57199 9.73689 7.62992 9.75183 7.68903 9.75427Z" fill="url(#paint9_linear_191_243)"/>
<path d="M11.1363 6.60045C11.2295 6.60135 11.3194 6.56638 11.3875 6.50278C11.4333 6.46796 11.4718 6.42444 11.5008 6.37474C11.5298 6.32504 11.5488 6.27012 11.5565 6.21311C11.5643 6.15609 11.5608 6.09812 11.5462 6.04246C11.5315 5.98681 11.5061 5.93459 11.4712 5.88877C11.4364 5.84296 11.3929 5.80445 11.3432 5.77545C11.2935 5.74645 11.2386 5.72752 11.1816 5.71975C11.1246 5.71197 11.0666 5.7155 11.0109 5.73014C10.9553 5.74477 10.9031 5.77023 10.8572 5.80505C10.7849 5.86284 10.7323 5.94168 10.7068 6.03067C10.6812 6.11966 10.684 6.21439 10.7147 6.30175C10.7453 6.38911 10.8023 6.46479 10.8779 6.5183C10.9534 6.57181 11.0438 6.60052 11.1363 6.60045Z" fill="url(#paint10_linear_191_243)"/>
<path d="M13.0198 5.24689C13.0976 5.26698 13.1792 5.26698 13.257 5.24689C13.3566 5.18374 13.4273 5.08372 13.4534 4.96867C13.4796 4.85363 13.4591 4.73292 13.3965 4.6329C13.3289 4.53834 13.2281 4.47282 13.1142 4.44953C13.0003 4.42623 12.8818 4.44687 12.7825 4.5073C12.688 4.57489 12.6225 4.67576 12.5992 4.78964C12.5759 4.90352 12.5965 5.022 12.6569 5.1213C12.7037 5.16875 12.7607 5.20477 12.8237 5.22655C12.8866 5.24834 12.9537 5.25529 13.0198 5.24689Z" fill="url(#paint11_linear_191_243)"/>
<path d="M4.84113 13.4523C4.91482 13.4505 4.98683 13.4299 5.05031 13.3924C5.11379 13.3549 5.16667 13.3018 5.20387 13.2382C5.24108 13.1746 5.26142 13.1025 5.26294 13.0288C5.26446 12.9551 5.24711 12.8822 5.21256 12.8171C5.17801 12.752 5.12739 12.6968 5.06551 12.6567C5.00363 12.6166 4.93253 12.5931 4.85897 12.5882C4.78541 12.5833 4.71185 12.5973 4.64523 12.6289C4.57861 12.6605 4.52116 12.7085 4.47833 12.7685C4.41446 12.8669 4.39181 12.9864 4.41531 13.1013C4.43881 13.2162 4.50656 13.3172 4.60392 13.3825C4.67618 13.4247 4.75756 13.4486 4.84113 13.4523Z" fill="url(#paint12_linear_191_243)"/>
<path d="M0.460448 26.6254C0.571773 26.6222 0.677836 26.5774 0.757869 26.5C0.837902 26.4225 0.886124 26.3179 0.893037 26.2068C0.896811 26.1488 0.888871 26.0907 0.8697 26.0359C0.850529 25.9811 0.820529 25.9307 0.781462 25.8877C0.742394 25.8447 0.695044 25.8101 0.64229 25.7858C0.589537 25.7615 0.532468 25.748 0.474416 25.7463C0.36051 25.7422 0.249367 25.7819 0.16375 25.8571C0.0781342 25.9324 0.0245031 26.0375 0.0138899 26.151C0.0120294 26.2115 0.0220907 26.2717 0.0435298 26.3283C0.064969 26.3849 0.0973664 26.4367 0.138838 26.4807C0.180309 26.5248 0.230066 26.5603 0.285249 26.5851C0.340431 26.6099 0.399965 26.6236 0.460448 26.6254Z" fill="url(#paint13_linear_191_243)"/>
<path d="M0.683704 24.2951C0.789588 24.2867 0.888986 24.2408 0.964091 24.1657C1.0392 24.0906 1.08506 23.9911 1.09347 23.8852C1.10187 23.7794 1.07227 23.6739 1.00996 23.5879C0.947639 23.5019 0.856692 23.4409 0.75346 23.4159C0.692744 23.4005 0.62946 23.3981 0.567742 23.4088C0.506024 23.4195 0.447256 23.443 0.395226 23.4778C0.343196 23.5127 0.299095 23.5581 0.265764 23.6112C0.232434 23.6642 0.210615 23.7236 0.201757 23.7856C0.1929 23.8477 0.197171 23.9108 0.21432 23.9711C0.231469 24.0313 0.261138 24.0873 0.301324 24.1353C0.341509 24.1833 0.391345 24.2224 0.447607 24.2499C0.503869 24.2774 0.56528 24.2928 0.627874 24.2951H0.683704Z" fill="url(#paint14_linear_191_243)"/>
<path d="M2.65141 17.5689C2.73878 17.567 2.82367 17.5396 2.8956 17.49C2.96754 17.4404 3.02332 17.3708 3.05607 17.2898C3.0829 17.2368 3.09854 17.1789 3.10202 17.1196C3.10549 17.0604 3.09675 17.001 3.0763 16.9453C3.05584 16.8895 3.02415 16.8386 2.98316 16.7957C2.94217 16.7527 2.89279 16.7186 2.83807 16.6956C2.78335 16.6726 2.72445 16.661 2.66508 16.6617C2.60572 16.6624 2.54711 16.6753 2.49295 16.6997C2.43879 16.724 2.39025 16.7592 2.35029 16.8031C2.31032 16.847 2.27982 16.8987 2.26069 16.9549C2.23553 17.0067 2.22137 17.0633 2.21908 17.1209C2.21679 17.1785 2.2264 17.236 2.24736 17.2897C2.26832 17.3434 2.30017 17.3922 2.34088 17.4331C2.38158 17.4739 2.43027 17.5059 2.48392 17.527C2.53575 17.5537 2.59311 17.5681 2.65141 17.5689Z" fill="url(#paint15_linear_191_243)"/>
<path d="M1.63303 19.7179C1.67861 19.7311 1.727 19.7311 1.77258 19.7179C1.86566 19.7167 1.95602 19.6865 2.03108 19.6315C2.10614 19.5764 2.16212 19.4993 2.1912 19.4109C2.22633 19.3017 2.21667 19.1831 2.16433 19.081C2.112 18.979 2.0213 18.9019 1.91214 18.8667C1.80296 18.8297 1.68355 18.8375 1.58018 18.8886C1.47681 18.9396 1.39791 19.0296 1.3609 19.1388C1.32389 19.248 1.33176 19.3674 1.38279 19.4707C1.43382 19.5741 1.52385 19.653 1.63303 19.69V19.7179Z" fill="url(#paint16_linear_191_243)"/>
<path d="M45.9794 48.1435C45.9389 48.1837 45.9067 48.2315 45.8848 48.2842C45.8628 48.3369 45.8516 48.3934 45.8516 48.4505C45.8516 48.5075 45.8628 48.5641 45.8848 48.6167C45.9067 48.6694 45.9389 48.7173 45.9794 48.7575C46.0155 48.8047 46.0619 48.8431 46.1151 48.8697C46.1683 48.8963 46.2269 48.9104 46.2864 48.911C46.3433 48.9113 46.3997 48.9003 46.4524 48.8788C46.505 48.8572 46.5529 48.8255 46.5933 48.7854C46.6338 48.7452 46.666 48.6973 46.688 48.6446C46.7099 48.5919 46.7212 48.5355 46.7212 48.4784C46.7212 48.4213 46.7099 48.3648 46.688 48.3121C46.666 48.2594 46.6338 48.2116 46.5933 48.1714C46.5561 48.1273 46.5102 48.0913 46.4584 48.0658C46.4066 48.0403 46.3502 48.0258 46.2925 48.0232C46.2348 48.0206 46.1772 48.0299 46.1233 48.0506C46.0695 48.0713 46.0205 48.1029 45.9794 48.1435Z" fill="url(#paint17_linear_191_243)"/>
<path d="M1.08893 21.9925H1.20059C1.29776 21.9845 1.3901 21.9466 1.46501 21.8842C1.53991 21.8218 1.59373 21.7378 1.61921 21.6437C1.64428 21.529 1.6232 21.4091 1.56053 21.3098C1.49785 21.2106 1.39863 21.1401 1.28431 21.1134C1.17552 21.102 1.0663 21.1308 0.977395 21.1946C0.888486 21.2583 0.826077 21.3524 0.801983 21.4592C0.777888 21.5659 0.793801 21.6777 0.846698 21.7734C0.899595 21.8692 0.985773 21.9422 1.08893 21.9786V21.9925Z" fill="url(#paint18_linear_191_243)"/>
<path d="M52.5805 38.7659C52.5576 38.82 52.5455 38.8781 52.5449 38.9368C52.5444 38.9955 52.5555 39.0538 52.5776 39.1082C52.5996 39.1627 52.6322 39.2122 52.6734 39.254C52.7146 39.2959 52.7636 39.3292 52.8177 39.352H52.9852C53.0726 39.3502 53.1574 39.3228 53.2294 39.2732C53.3013 39.2236 53.3572 39.154 53.3899 39.073C53.4156 38.9702 53.4039 38.8616 53.3569 38.7667C53.3099 38.6718 53.2307 38.5966 53.1334 38.5547C53.0361 38.5128 52.9271 38.5068 52.8258 38.5378C52.7246 38.5689 52.6376 38.6349 52.5805 38.7241V38.7659Z" fill="url(#paint19_linear_191_243)"/>
<path d="M47.6829 46.4549C47.6406 46.4941 47.6069 46.5416 47.5838 46.5944C47.5608 46.6472 47.5488 46.7042 47.5488 46.7619C47.5488 46.8195 47.5608 46.8765 47.5838 46.9294C47.6069 46.9822 47.6406 47.0297 47.6829 47.0689C47.7209 47.1131 47.768 47.1486 47.821 47.173C47.8739 47.1973 47.9315 47.2099 47.9898 47.2099C48.0482 47.2099 48.1058 47.1973 48.1588 47.173C48.2118 47.1486 48.2589 47.1131 48.2969 47.0689C48.3374 47.0287 48.3696 46.9809 48.3915 46.9282C48.4135 46.8755 48.4247 46.819 48.4247 46.7619C48.4247 46.7048 48.4135 46.6483 48.3915 46.5956C48.3696 46.5429 48.3374 46.4951 48.2969 46.4549C48.2577 46.4126 48.2102 46.3789 48.1574 46.3558C48.1046 46.3328 48.0475 46.3209 47.9898 46.3209C47.9322 46.3209 47.8752 46.3328 47.8224 46.3558C47.7696 46.3789 47.7221 46.4126 47.6829 46.4549Z" fill="url(#paint20_linear_191_243)"/>
<path d="M49.0774 44.6967C48.9989 44.7796 48.9551 44.8895 48.9551 45.0037C48.9551 45.1179 48.9989 45.2277 49.0774 45.3107C49.155 45.3672 49.2468 45.4011 49.3425 45.4083C49.415 45.4076 49.4862 45.3887 49.5494 45.3532C49.6127 45.3178 49.666 45.2671 49.7045 45.2057C49.743 45.1443 49.7656 45.0742 49.7699 45.0018C49.7743 44.9295 49.7604 44.8572 49.7295 44.7916C49.6987 44.726 49.6518 44.6692 49.5933 44.6264C49.5347 44.5837 49.4664 44.5563 49.3945 44.5469C49.3226 44.5374 49.2495 44.5462 49.1819 44.5723C49.1143 44.5985 49.0544 44.6413 49.0076 44.6967H49.0774Z" fill="url(#paint21_linear_191_243)"/>
<path d="M51.5905 40.8451C51.5358 40.9489 51.5242 41.0701 51.5582 41.1823C51.5921 41.2946 51.6689 41.389 51.7719 41.4452C51.8409 41.4595 51.9122 41.4595 51.9812 41.4452C52.0593 41.4421 52.1351 41.4185 52.2012 41.3769C52.2673 41.3353 52.3214 41.277 52.3579 41.208C52.413 41.1079 52.4264 40.9902 52.395 40.8804C52.3636 40.7706 52.2901 40.6777 52.1905 40.6219C52.1366 40.5963 52.0781 40.5817 52.0184 40.5792C51.9588 40.5766 51.8993 40.586 51.8433 40.6068C51.7874 40.6276 51.7362 40.6594 51.6927 40.7004C51.6493 40.7413 51.6145 40.7905 51.5905 40.8451Z" fill="url(#paint22_linear_191_243)"/>
<path d="M54.5637 34.091C54.5078 34.0743 54.449 34.0696 54.3911 34.077C54.3332 34.0844 54.2775 34.1039 54.2275 34.1341C54.1776 34.1643 54.1346 34.2047 54.1012 34.2525C54.0677 34.3004 54.0446 34.3547 54.0334 34.412C54.0189 34.4679 54.0157 34.5261 54.0241 34.5833C54.0324 34.6405 54.0522 34.6954 54.0821 34.7448C54.112 34.7942 54.1515 34.8372 54.1982 34.8711C54.245 34.905 54.2982 34.9292 54.3545 34.9422H54.4521C54.553 34.9415 54.6507 34.9067 54.7293 34.8433C54.8079 34.7799 54.8626 34.6918 54.8847 34.5934C54.897 34.5393 54.8984 34.4833 54.8889 34.4287C54.8794 34.374 54.8592 34.3218 54.8293 34.2751C54.7994 34.2283 54.7606 34.188 54.715 34.1564C54.6694 34.1248 54.618 34.1026 54.5637 34.091Z" fill="url(#paint23_linear_191_243)"/>
<path d="M53.9626 36.3517C53.9088 36.3298 53.851 36.3194 53.7929 36.321C53.7348 36.3226 53.6776 36.3364 53.6251 36.3613C53.5726 36.3862 53.5259 36.4219 53.4879 36.4659C53.4499 36.5099 53.4214 36.5613 53.4044 36.6169C53.3847 36.6728 53.3763 36.732 53.3796 36.7911C53.383 36.8503 53.3982 36.9082 53.4242 36.9614C53.4502 37.0147 53.4865 37.0622 53.531 37.1013C53.5755 37.1404 53.6274 37.1702 53.6835 37.189H53.8231C53.9317 37.1983 54.0397 37.1662 54.1257 37.0993C54.2116 37.0324 54.2691 36.9355 54.2867 36.828C54.3043 36.7205 54.2808 36.6103 54.2207 36.5194C54.1606 36.4285 54.0685 36.3637 53.9626 36.3378V36.3517Z" fill="url(#paint24_linear_191_243)"/>
<path d="M55.1911 29.4583C55.1343 29.4545 55.0773 29.4619 55.0234 29.4803C54.9694 29.4986 54.9196 29.5273 54.8769 29.5649C54.8341 29.6025 54.7991 29.6482 54.774 29.6994C54.7489 29.7505 54.7342 29.8061 54.7306 29.8629C54.7249 29.9209 54.7309 29.9794 54.7483 30.035C54.7658 30.0905 54.7942 30.142 54.832 30.1863C54.8698 30.2306 54.9161 30.2668 54.9682 30.2928C55.0204 30.3188 55.0772 30.3339 55.1354 30.3374C55.2467 30.3341 55.3527 30.2894 55.4328 30.2119C55.5128 30.1345 55.561 30.0299 55.5679 29.9188C55.576 29.8084 55.5414 29.6991 55.4713 29.6134C55.4012 29.5278 55.3009 29.4723 55.1911 29.4583Z" fill="url(#paint25_linear_191_243)"/>
<path d="M54.9806 31.7886C54.8659 31.7701 54.7485 31.7979 54.6543 31.866C54.5601 31.934 54.4968 32.0367 54.4783 32.1514C54.4597 32.2662 54.4875 32.3835 54.5556 32.4778C54.6236 32.572 54.7264 32.6353 54.8411 32.6538C54.946 32.6518 55.0468 32.613 55.1259 32.5441C55.205 32.4752 55.2573 32.3806 55.2737 32.277C55.2922 32.1739 55.2728 32.0676 55.2189 31.9778C55.165 31.888 55.0803 31.8207 54.9806 31.7886Z" fill="url(#paint26_linear_191_243)"/>
<path d="M50.4742 42.8128C50.4117 42.9128 50.3912 43.0335 50.4173 43.1486C50.4435 43.2636 50.5141 43.3636 50.6138 43.4268C50.6772 43.4781 50.7556 43.5075 50.8371 43.5105C50.9119 43.5078 50.9851 43.4875 51.0506 43.4511C51.1161 43.4147 51.1721 43.3634 51.2139 43.3012C51.2623 43.2036 51.2732 43.0917 51.2449 42.9865C51.2165 42.8814 51.1507 42.7902 51.0598 42.7302C50.9689 42.6702 50.8592 42.6454 50.7514 42.6607C50.6435 42.6759 50.545 42.73 50.4742 42.8128Z" fill="url(#paint27_linear_191_243)"/>
<path d="M5.38672 38.5007L5.58202 38.417L5.7774 38.3193L5.38672 38.5007Z" fill="url(#paint28_linear_191_243)"/>
<path d="M27.811 2.6514C24.144 2.64872 20.5219 3.45893 17.2055 5.02371C14.2068 6.42385 11.5134 8.40121 9.2793 10.8428L9.9212 11.4428C12.0807 9.10008 14.6788 7.20367 17.5683 5.86097C20.7719 4.35185 24.2698 3.57032 27.811 3.57241C32.4519 3.58729 36.9923 4.92502 40.8999 7.42876C44.8075 9.93249 47.9203 13.4984 49.8733 17.7084V17.7922L50.6268 17.3456C48.6149 12.9801 45.3998 9.27884 41.3586 6.67615C37.3174 4.07346 32.6178 2.67728 27.811 2.6514Z" fill="url(#paint29_linear_191_243)"/>
<path d="M45.7151 44.6129C43.4403 47.085 40.6798 49.0612 37.6064 50.4178C34.533 51.7744 31.2126 52.4823 27.8532 52.4972C23.2182 52.48 18.6841 51.1425 14.7817 48.6415C10.8794 46.1404 7.77042 42.5793 5.81886 38.3752L5.60955 38.4449L5.02344 38.7519C7.04371 43.1176 10.2674 46.8165 14.3161 49.4143C18.3649 52.0121 23.0706 53.4011 27.8811 53.4182C31.362 53.4015 34.802 52.6666 37.9859 51.2595C41.1698 49.8524 44.0291 47.8035 46.3849 45.2408L45.7151 44.6129Z" fill="url(#paint30_linear_191_243)"/>
<path d="M10.5352 13.1174C8.59045 15.3969 7.11552 18.0385 6.19531 20.8901L7.01863 21.1692C8.11905 17.7303 10.055 14.6179 12.6531 12.1105C15.2512 9.60314 18.4305 7.77908 21.9063 6.80159C25.3822 5.82409 29.0462 5.72364 32.5704 6.50926C36.0946 7.29487 39.369 8.94202 42.1005 11.3033L42.3936 10.9823L42.6308 10.6055C40.3636 8.65206 37.7321 7.16669 34.888 6.23509C32.0439 5.30349 29.0435 4.94409 26.0599 5.17759C23.0763 5.41109 20.1684 6.23288 17.5039 7.59558C14.8394 8.95829 12.471 10.8349 10.5352 13.1174Z" fill="url(#paint31_linear_191_243)"/>
<path d="M13.6332 44.7664H13.5634L13.0332 45.4642C15.3005 47.4177 17.932 48.903 20.776 49.8346C23.6201 50.7662 26.6205 51.1256 29.6041 50.8921C32.5877 50.6586 35.4956 49.8368 38.1601 48.4741C40.8247 47.1114 43.193 45.2348 45.1288 42.9523C47.0603 40.6741 48.534 38.0444 49.4687 35.2075L48.6314 34.9284C47.5329 38.3582 45.6022 41.4627 43.0116 43.9645C40.4211 46.4664 37.2513 48.2879 33.7854 49.2663C30.3194 50.2448 26.665 50.3497 23.1486 49.5718C19.6322 48.7939 16.3631 47.1574 13.6332 44.8083V44.7664Z" fill="url(#paint32_linear_191_243)"/>
<path d="M22.4421 36V33.744H27.1461V21.216H26.9541L23.0661 25.368L21.4101 23.88L25.6821 19.248H29.8101V33.744H33.8901V36H22.4421Z" fill="url(#paint33_linear_191_243)"/>
<defs>
<linearGradient id="paint0_linear_191_243" x1="48.1715" y1="9.96366" x2="9.3777" y2="51.4926" gradientUnits="userSpaceOnUse">
<stop stop-color="#B3E9FF"/>
<stop offset="1" stop-color="#50CDFF"/>
</linearGradient>
<linearGradient id="paint1_linear_191_243" x1="44.474" y1="6.51685" x2="5.68019" y2="48.0457" gradientUnits="userSpaceOnUse">
<stop stop-color="#B3E9FF"/>
<stop offset="1" stop-color="#50CDFF"/>
</linearGradient>
<linearGradient id="paint2_linear_191_243" x1="65.7825" y1="26.4302" x2="26.9889" y2="67.9449" gradientUnits="userSpaceOnUse">
<stop stop-color="#B3E9FF"/>
<stop offset="1" stop-color="#50CDFF"/>
</linearGradient>
<linearGradient id="paint3_linear_191_243" x1="65.2932" y1="25.9693" x2="26.4989" y2="67.4979" gradientUnits="userSpaceOnUse">
<stop stop-color="#B3E9FF"/>
<stop offset="1" stop-color="#50CDFF"/>
</linearGradient>
<linearGradient id="paint4_linear_191_243" x1="66.1319" y1="26.7511" x2="27.3386" y2="68.2683" gradientUnits="userSpaceOnUse">
<stop stop-color="#B3E9FF"/>
<stop offset="1" stop-color="#50CDFF"/>
</linearGradient>
<linearGradient id="paint5_linear_191_243" x1="26.291" y1="-10.48" x2="-12.5031" y2="31.0472" gradientUnits="userSpaceOnUse">
<stop stop-color="#B3E9FF"/>
<stop offset="1" stop-color="#50CDFF"/>
</linearGradient>
<linearGradient id="paint6_linear_191_243" x1="26.3185" y1="-10.4381" x2="-12.4756" y2="31.0772" gradientUnits="userSpaceOnUse">
<stop stop-color="#B3E9FF"/>
<stop offset="1" stop-color="#50CDFF"/>
</linearGradient>
<linearGradient id="paint7_linear_191_243" x1="26.933" y1="-9.87987" x2="-11.8749" y2="31.6484" gradientUnits="userSpaceOnUse">
<stop stop-color="#B3E9FF"/>
<stop offset="1" stop-color="#50CDFF"/>
</linearGradient>
<linearGradient id="paint8_linear_191_243" x1="27.3096" y1="-9.51712" x2="-11.4845" y2="31.9992" gradientUnits="userSpaceOnUse">
<stop stop-color="#B3E9FF"/>
<stop offset="1" stop-color="#50CDFF"/>
</linearGradient>
<linearGradient id="paint9_linear_191_243" x1="26.2348" y1="-10.5361" x2="-12.5598" y2="30.993" gradientUnits="userSpaceOnUse">
<stop stop-color="#B3E9FF"/>
<stop offset="1" stop-color="#50CDFF"/>
</linearGradient>
<linearGradient id="paint10_linear_191_243" x1="26.4861" y1="-10.2844" x2="-12.3072" y2="31.2297" gradientUnits="userSpaceOnUse">
<stop stop-color="#B3E9FF"/>
<stop offset="1" stop-color="#50CDFF"/>
</linearGradient>
<linearGradient id="paint11_linear_191_243" x1="26.835" y1="-9.9776" x2="-11.9728" y2="31.5517" gradientUnits="userSpaceOnUse">
<stop stop-color="#B3E9FF"/>
<stop offset="1" stop-color="#50CDFF"/>
</linearGradient>
<linearGradient id="paint12_linear_191_243" x1="26.5549" y1="-10.2288" x2="-12.253" y2="31.3009" gradientUnits="userSpaceOnUse">
<stop stop-color="#B3E9FF"/>
<stop offset="1" stop-color="#50CDFF"/>
</linearGradient>
<linearGradient id="paint13_linear_191_243" x1="30.798" y1="-6.26584" x2="-7.99612" y2="35.2634" gradientUnits="userSpaceOnUse">
<stop stop-color="#B3E9FF"/>
<stop offset="1" stop-color="#50CDFF"/>
</linearGradient>
<linearGradient id="paint14_linear_191_243" x1="29.779" y1="-7.21445" x2="-9.02882" y2="34.3004" gradientUnits="userSpaceOnUse">
<stop stop-color="#B3E9FF"/>
<stop offset="1" stop-color="#50CDFF"/>
</linearGradient>
<linearGradient id="paint15_linear_191_243" x1="27.434" y1="-9.40497" x2="-11.3592" y2="32.1227" gradientUnits="userSpaceOnUse">
<stop stop-color="#B3E9FF"/>
<stop offset="1" stop-color="#50CDFF"/>
</linearGradient>
<linearGradient id="paint16_linear_191_243" x1="28.0911" y1="-8.79151" x2="-10.7168" y2="32.7237" gradientUnits="userSpaceOnUse">
<stop stop-color="#B3E9FF"/>
<stop offset="1" stop-color="#50CDFF"/>
</linearGradient>
<linearGradient id="paint17_linear_191_243" x1="66.3244" y1="26.9325" x2="27.5305" y2="68.4599" gradientUnits="userSpaceOnUse">
<stop stop-color="#B3E9FF"/>
<stop offset="1" stop-color="#50CDFF"/>
</linearGradient>
<linearGradient id="paint18_linear_191_243" x1="28.8721" y1="-8.06521" x2="-9.92111" y2="33.463" gradientUnits="userSpaceOnUse">
<stop stop-color="#B3E9FF"/>
<stop offset="1" stop-color="#50CDFF"/>
</linearGradient>
<linearGradient id="paint19_linear_191_243" x1="65.1961" y1="25.872" x2="26.4026" y2="67.4027" gradientUnits="userSpaceOnUse">
<stop stop-color="#B3E9FF"/>
<stop offset="1" stop-color="#50CDFF"/>
</linearGradient>
<linearGradient id="paint20_linear_191_243" x1="66.3975" y1="26.988" x2="27.5896" y2="68.52" gradientUnits="userSpaceOnUse">
<stop stop-color="#B3E9FF"/>
<stop offset="1" stop-color="#50CDFF"/>
</linearGradient>
<linearGradient id="paint21_linear_191_243" x1="66.312" y1="26.9049" x2="27.5051" y2="68.4354" gradientUnits="userSpaceOnUse">
<stop stop-color="#B3E9FF"/>
<stop offset="1" stop-color="#50CDFF"/>
</linearGradient>
<linearGradient id="paint22_linear_191_243" x1="65.7124" y1="26.3462" x2="26.9043" y2="67.8749" gradientUnits="userSpaceOnUse">
<stop stop-color="#B3E9FF"/>
<stop offset="1" stop-color="#50CDFF"/>
</linearGradient>
<linearGradient id="paint23_linear_191_243" x1="63.7735" y1="24.5461" x2="24.9657" y2="66.0741" gradientUnits="userSpaceOnUse">
<stop stop-color="#B3E9FF"/>
<stop offset="1" stop-color="#50CDFF"/>
</linearGradient>
<linearGradient id="paint24_linear_191_243" x1="64.5545" y1="25.272" x2="25.7614" y2="66.802" gradientUnits="userSpaceOnUse">
<stop stop-color="#B3E9FF"/>
<stop offset="1" stop-color="#50CDFF"/>
</linearGradient>
<linearGradient id="paint25_linear_191_243" x1="61.8479" y1="22.746" x2="23.0399" y2="64.2772" gradientUnits="userSpaceOnUse">
<stop stop-color="#B3E9FF"/>
<stop offset="1" stop-color="#50CDFF"/>
</linearGradient>
<linearGradient id="paint26_linear_191_243" x1="62.8652" y1="23.695" x2="24.0718" y2="65.2248" gradientUnits="userSpaceOnUse">
<stop stop-color="#B3E9FF"/>
<stop offset="1" stop-color="#50CDFF"/>
</linearGradient>
<linearGradient id="paint27_linear_191_243" x1="66.0758" y1="26.6953" x2="27.2823" y2="68.225" gradientUnits="userSpaceOnUse">
<stop stop-color="#B3E9FF"/>
<stop offset="1" stop-color="#50CDFF"/>
</linearGradient>
<linearGradient id="paint28_linear_191_243" x1="39.6135" y1="1.98013" x2="0.817824" y2="43.5048" gradientUnits="userSpaceOnUse">
<stop stop-color="#B3E9FF"/>
<stop offset="1" stop-color="#50CDFF"/>
</linearGradient>
<linearGradient id="paint29_linear_191_243" x1="40.5097" y1="2.80491" x2="1.70189" y2="44.3338" gradientUnits="userSpaceOnUse">
<stop stop-color="#B3E9FF"/>
<stop offset="1" stop-color="#50CDFF"/>
</linearGradient>
<linearGradient id="paint30_linear_191_243" x1="52.1203" y1="13.6615" x2="13.3265" y2="55.1905" gradientUnits="userSpaceOnUse">
<stop stop-color="#B3E9FF"/>
<stop offset="1" stop-color="#50CDFF"/>
</linearGradient>
<linearGradient id="paint31_linear_191_243" x1="37.6072" y1="0.0977238" x2="-1.18664" y2="41.6267" gradientUnits="userSpaceOnUse">
<stop stop-color="#B3E9FF"/>
<stop offset="1" stop-color="#50CDFF"/>
</linearGradient>
<linearGradient id="paint32_linear_191_243" x1="55.0087" y1="16.3548" x2="16.2149" y2="57.8838" gradientUnits="userSpaceOnUse">
<stop stop-color="#B3E9FF"/>
<stop offset="1" stop-color="#50CDFF"/>
</linearGradient>
<linearGradient id="paint33_linear_191_243" x1="187.127" y1="-168.282" x2="-575.078" y2="542.843" gradientUnits="userSpaceOnUse">
<stop stop-color="#A0DFFF"/>
<stop offset="1" stop-color="#00B3F8"/>
</linearGradient>
</defs>
</svg>
