<svg width="392" height="551" viewBox="0 0 392 551" fill="none" xmlns="http://www.w3.org/2000/svg">
<path d="M195.725 430.317C142.424 430.317 92.387 437.1 54.8345 449.388C20.5064 460.615 0 475.872 0 490.165C0 504.459 20.5064 519.657 54.8345 530.962C92.387 543.25 142.424 550.033 195.725 550.033C249.026 550.033 299.083 543.25 336.616 530.962C370.944 519.716 391.451 504.479 391.451 490.165C391.451 475.852 370.944 460.674 336.616 449.388C299.083 437.1 249.046 430.317 195.725 430.317Z" fill="#008ECD"/>
<path d="M195.724 426.523C147.83 426.523 102.885 432.736 69.166 444.001C38.3179 454.324 19.8955 468.322 19.8955 481.357C19.8955 494.393 38.3179 508.47 69.166 518.713C102.885 529.999 147.81 536.212 195.724 536.212C243.638 536.212 288.563 529.999 322.301 518.713C353.149 508.391 371.454 494.412 371.454 481.357C371.454 468.302 353.051 454.245 322.301 444.001C288.563 432.696 243.657 426.523 195.724 426.523Z" fill="#A0DFFF"/>
<path d="M38.7513 360.678C38.7513 332.7 109.177 309.953 195.725 309.953C282.272 309.953 352.698 332.7 352.698 360.678H354.664C354.664 331.619 283.373 307.987 195.725 307.987C108.076 307.987 36.7852 331.58 36.7852 360.678H38.7513Z" fill="#A0DFFF"/>
<path d="M308.952 336.475C278.635 326.547 238.428 321.081 195.724 321.081C153.021 321.081 112.814 326.547 82.4966 336.475C50.4885 346.955 32.8525 361.602 32.8525 377.764H42.683C42.683 366.596 58.7068 354.662 85.5637 345.873C114.918 336.259 154.043 330.97 195.665 330.97C237.288 330.97 276.472 336.259 305.767 345.873C332.624 354.662 348.648 366.596 348.648 377.764H358.478C358.596 361.641 340.96 346.955 308.952 336.475Z" fill="#62CDFF"/>
<path d="M188.726 490.264C262.317 490.264 348.707 394.868 348.707 394.868C351.786 391.246 353.54 386.684 353.682 381.932C353.682 353.364 282.902 330.203 195.725 330.203C108.548 330.203 37.7686 353.364 37.7686 381.932C37.9076 386.688 39.6699 391.253 42.7625 394.868C42.7625 394.868 115.135 490.264 188.726 490.264Z" fill="#008ECD"/>
<path d="M308.952 336.475C278.635 326.547 238.428 321.081 195.724 321.081C153.021 321.081 112.814 326.547 82.4966 336.475C50.4885 346.955 32.8525 361.602 32.8525 377.764H42.683C42.683 366.596 58.7068 354.662 85.5637 345.873C114.918 336.259 154.043 330.97 195.665 330.97C237.288 330.97 276.472 336.259 305.767 345.873C332.624 354.662 348.648 366.596 348.648 377.764H358.478C358.596 361.641 340.96 346.955 308.952 336.475Z" fill="#00B3F8"/>
<path d="M305.884 301.557C276.53 291.943 237.404 286.654 195.782 286.654C154.16 286.654 114.975 291.943 85.6804 301.557C58.8235 310.346 42.7998 322.26 42.7998 333.448C42.7998 333.664 42.7998 333.9 42.7998 334.116C60.3374 311.801 122.171 295.325 195.762 295.325C269.354 295.325 331.187 311.801 348.745 334.116C348.745 333.9 348.745 333.664 348.745 333.448C348.764 322.319 332.741 310.346 305.884 301.557Z" fill="#008ECD"/>
<path d="M42.683 333.448C42.683 322.26 58.7068 310.346 85.5637 301.557C114.918 291.943 154.043 286.654 195.665 286.654C237.288 286.654 276.472 291.943 305.767 301.557C332.624 310.346 348.648 322.26 348.648 333.448V333.585H358.478V333.448C358.478 317.345 340.783 302.698 308.834 292.159C278.517 282.231 238.31 276.765 195.606 276.765C152.903 276.765 112.696 282.231 82.3786 292.159C50.3705 302.639 32.7346 317.286 32.7346 333.448C32.7265 333.493 32.7265 333.54 32.7346 333.585H42.5651C42.5651 333.585 42.683 333.487 42.683 333.448Z" fill="#00B3F8"/>
<path d="M38.7513 315.556C38.7513 287.579 109.177 264.811 195.725 264.811C282.272 264.811 352.698 287.579 352.698 315.556H354.664C354.664 286.497 283.373 262.845 195.725 262.845C108.076 262.845 36.7852 286.438 36.7852 315.556H38.7513Z" fill="#A0DFFF"/>
<path d="M269.786 276.863H121.68V477.543H269.786V276.863Z" fill="#00B3F8"/>
<path d="M195.725 243.302C269.316 243.302 331.15 259.778 348.707 282.073C351.796 278.489 353.578 273.963 353.76 269.235C353.76 240.667 282.981 217.507 195.804 217.507C108.627 217.507 37.7686 240.569 37.7686 269.235C37.9045 273.991 39.6671 278.557 42.7625 282.172C60.3001 259.778 122.134 243.302 195.725 243.302Z" fill="#008ECD"/>
<path d="M308.952 227.947C278.635 218.018 238.428 212.552 195.725 212.552C153.021 212.552 112.814 217.959 82.438 227.947C50.4299 238.426 32.7939 253.073 32.7939 269.235H42.6244C42.6244 258.048 58.6482 246.133 85.5051 237.325C114.859 227.73 153.984 222.422 195.607 222.422C237.229 222.422 276.413 227.73 305.708 237.325C332.565 246.133 348.589 258.048 348.589 269.235H358.419C358.596 253.014 340.961 238.367 308.952 227.947Z" fill="#00B3F8"/>
<path d="M305.884 409.614C276.53 419.209 237.405 424.517 195.783 424.517C154.16 424.517 114.976 419.209 85.6809 409.614C58.8239 400.826 42.8002 388.892 42.8002 377.704H32.9697C32.9697 393.826 50.6646 408.474 82.6138 418.993C112.931 428.921 153.138 434.387 195.841 434.387C238.545 434.387 278.752 428.921 309.069 418.993C341.077 408.513 358.713 393.866 358.713 377.704H348.883C348.765 388.892 332.741 400.826 305.884 409.614Z" fill="#62CDFF"/>
<path d="M348.765 377.704C348.765 388.892 332.741 400.826 305.884 409.614C276.53 419.209 237.405 424.517 195.783 424.517C154.16 424.517 114.976 419.209 85.6809 409.614C58.8239 400.826 42.8002 388.892 42.8002 377.704H32.9697V468.145C32.9697 484.247 50.6646 498.895 82.6138 509.433C112.931 519.362 153.138 524.828 195.841 524.828C238.545 524.828 278.752 519.362 309.069 509.433C341.077 498.954 358.713 484.306 358.713 468.145V377.704H348.765Z" fill="url(#paint0_linear_5929_4906)"/>
<path d="M305.884 409.614C276.53 419.209 237.405 424.517 195.783 424.517C154.16 424.517 114.976 419.209 85.6809 409.614C58.8239 400.826 42.8002 388.892 42.8002 377.704H32.9697C32.9697 393.826 50.6646 408.474 82.6138 418.993C112.931 428.921 153.138 434.387 195.841 434.387C238.545 434.387 278.752 428.921 309.069 418.993C341.077 408.513 358.713 393.866 358.713 377.704H348.883C348.765 388.892 332.741 400.826 305.884 409.614Z" fill="#00B3F8"/>
<path d="M348.765 269.235C348.765 280.422 332.741 292.336 305.884 301.125C276.53 310.739 237.405 316.028 195.783 316.028C154.16 316.028 114.976 310.739 85.6809 301.125C58.8239 292.336 42.8002 280.422 42.8002 269.235H32.9697V298.392C32.9697 314.514 50.6646 329.161 82.6138 339.68C112.931 349.609 153.138 355.075 195.841 355.075C238.545 355.075 278.752 349.609 309.069 339.68C341.077 329.201 358.713 314.553 358.713 298.392V269.235H348.765Z" fill="url(#paint1_linear_5929_4906)"/>
<path d="M305.884 301.027C276.53 310.641 237.405 315.93 195.783 315.93C154.16 315.93 114.976 310.641 85.6809 301.027C58.8239 292.238 42.8002 280.324 42.8002 269.136H32.9697C32.9697 285.239 50.6646 299.886 82.6138 310.425C112.931 320.353 153.138 325.819 195.841 325.819C238.545 325.819 278.752 320.353 309.069 310.425C341.077 299.945 358.713 285.298 358.713 269.136H348.883C348.765 280.324 332.741 292.238 305.884 301.027Z" fill="#00B3F8"/>
<path d="M352.698 315.556C352.698 343.534 282.292 366.281 195.725 366.281C109.157 366.281 38.7513 343.534 38.7513 315.556H36.7852C36.7852 344.615 108.096 368.247 195.725 368.247C283.354 368.247 354.664 344.654 354.664 315.556H352.698Z" fill="#A0DFFF"/>
<path d="M352.698 360.678C352.698 388.656 282.292 411.423 195.725 411.423C109.157 411.423 38.7513 388.656 38.7513 360.678H36.7852C36.7852 389.737 108.096 413.389 195.725 413.389C283.354 413.389 354.664 389.796 354.664 360.678H352.698Z" fill="#A0DFFF"/>
<path d="M348.765 333.448C348.765 344.635 332.741 356.549 305.884 365.357C276.53 374.952 237.405 380.26 195.783 380.26C154.16 380.26 114.976 374.952 85.6809 365.357C58.8239 356.549 42.8002 344.635 42.8002 333.448H32.9697V342.551C32.9697 358.673 50.6646 373.3 82.6138 383.839C112.931 393.669 153.138 399.214 195.841 399.214C238.545 399.214 278.752 393.748 309.069 383.839C341.077 373.34 358.713 358.712 358.713 342.551V333.448H348.765Z" fill="url(#paint2_linear_5929_4906)"/>
<path d="M348.765 333.585C348.627 344.733 332.643 356.589 305.884 365.338C276.53 374.952 237.405 380.261 195.782 380.261C154.16 380.261 114.976 374.952 85.6807 365.338C58.9418 356.589 42.9377 344.733 42.8198 333.585H32.9893C32.9893 349.648 50.6841 364.237 82.6136 374.696C112.931 384.527 153.138 390.091 195.841 390.091C238.545 390.091 278.752 384.606 309.069 374.696C340.999 364.237 358.615 349.648 358.713 333.585H348.765Z" fill="#00B3F8"/>
<path d="M195.723 254.214C175.551 254.214 156.617 256.789 142.422 261.429C129.426 265.676 121.68 271.456 121.68 276.863C121.68 282.27 129.426 288.05 142.422 292.297C156.617 296.957 175.551 299.513 195.723 299.513C215.895 299.513 234.829 296.957 249.024 292.297C262.02 288.05 269.786 282.27 269.786 276.863C269.786 271.456 262.02 265.676 249.024 261.429C234.829 256.789 215.895 254.214 195.723 254.214Z" fill="#D6F8FF"/>
<path d="M195.724 487.275C192.452 487.222 189.19 487.666 186.051 488.593C183.692 489.359 182.276 490.421 182.276 491.404C182.276 492.387 183.692 493.37 186.051 494.196C192.38 495.952 199.068 495.952 205.398 494.196C207.757 493.429 209.173 492.367 209.173 491.404C209.173 490.441 207.757 489.438 205.398 488.593C202.259 487.666 198.997 487.222 195.724 487.275Z" fill="#D6F8FF"/>
<path d="M327.511 82.3569L280.993 34.0498L212.003 12.4227L132.73 20.9556L79.9202 47.7536L50.2715 94.4681L63.4443 147.101L131.196 177.103L209.132 158.583L245.21 172.109L263.79 203.823L298.079 210.999L334.255 186.914L339.072 135.501L327.511 82.3569Z" stroke="#D6F8FF" stroke-width="2.94915" stroke-linejoin="round"/>
<path d="M50.2715 94.4681L134.656 73.2539L173.054 94.4681L131.196 177.103L94.7053 83.3006" stroke="#D6F8FF" stroke-width="1.47458" stroke-linejoin="round"/>
<path d="M215.68 83.3793L173.055 94.4681L212.003 12.4227L215.68 83.3793ZM215.68 83.3793L245.21 121.797L304.036 109.43L327.512 82.3569L215.68 83.3793Z" stroke="#D6F8FF" stroke-width="1.47458" stroke-linejoin="round"/>
<path d="M79.9203 47.7536L134.656 73.2539L132.73 20.9556L173.054 94.4681L94.7053 83.3006L63.4443 147.101L173.054 94.4681" stroke="#D6F8FF" stroke-width="1.47458" stroke-linejoin="round"/>
<path d="M334.256 186.914L314.005 147.101H277.711L245.211 172.109V121.797" stroke="#D6F8FF" stroke-width="1.47458" stroke-linejoin="round"/>
<path d="M314.005 147.101L339.073 135.501L245.211 121.797" stroke="#D6F8FF" stroke-width="1.47458" stroke-linejoin="round"/>
<path d="M263.79 203.823L277.71 147.101L245.21 121.797L280.993 34.0499L215.68 83.3793" stroke="#D6F8FF" stroke-width="1.47458" stroke-linejoin="round"/>
<path d="M298.081 210.999L277.712 147.101" stroke="#D6F8FF" stroke-width="1.47458" stroke-linejoin="round"/>
<path d="M245.21 121.797L173.055 94.468L179.11 140.082L209.133 158.583L245.21 121.797Z" stroke="#D6F8FF" stroke-width="1.47458" stroke-linejoin="round"/>
<path d="M131.196 177.103L179.11 140.082" stroke="#D6F8FF" stroke-width="1.47458" stroke-linejoin="round"/>
<path d="M209.132 158.583L215.679 83.3793L132.729 20.9556" stroke="#D6F8FF" stroke-width="1.47458" stroke-linejoin="round"/>
<path d="M339.074 135.501L304.038 109.43L261.314 82.3569" stroke="#D6F8FF" stroke-width="1.47458" stroke-linejoin="round"/>
<path d="M348.766 105.242C348.679 107.157 348.026 109.002 346.89 110.545C345.755 112.089 344.187 113.261 342.385 113.914C340.584 114.566 338.629 114.671 336.768 114.213C334.907 113.755 333.224 112.756 331.931 111.342C330.638 109.928 329.793 108.162 329.502 106.268C329.212 104.374 329.49 102.436 330.301 100.7C331.111 98.9638 332.418 97.5067 334.057 96.5129C335.695 95.5192 337.592 95.0334 339.506 95.1169C342.076 95.2342 344.494 96.3662 346.23 98.2645C347.966 100.163 348.878 102.672 348.766 105.242Z" fill="url(#paint3_radial_5929_4906)" style="mix-blend-mode:screen"/>
<path d="M105.816 84.5982C105.732 86.5143 105.082 88.3625 103.948 89.9089C102.813 91.4552 101.245 92.6303 99.4426 93.2853C97.64 93.9403 95.6836 94.0458 93.821 93.5884C91.9584 93.1311 90.2733 92.1315 88.9791 90.7161C87.6849 89.3007 86.8396 87.5331 86.5503 85.6372C86.2611 83.7412 86.5408 81.802 87.3541 80.065C88.1673 78.3281 89.4776 76.8714 91.1191 75.8795C92.7606 74.8875 94.6594 74.4048 96.5753 74.4924C99.1399 74.6098 101.553 75.7397 103.286 77.6343C105.018 79.5289 105.928 82.0334 105.816 84.5982Z" fill="url(#paint4_radial_5929_4906)" style="mix-blend-mode:screen"/>
<path d="M107.997 144.879C107.909 146.794 107.256 148.64 106.119 150.184C104.982 151.727 103.413 152.899 101.611 153.551C99.8078 154.203 97.8522 154.306 95.991 153.847C94.1299 153.387 92.4467 152.386 91.1544 150.97C89.8622 149.554 89.0188 147.787 88.731 145.892C88.4431 143.996 88.7238 142.058 89.5375 140.322C90.3512 138.586 91.6613 137.131 93.3022 136.14C94.9431 135.148 96.841 134.666 98.756 134.753C101.322 134.876 103.736 136.01 105.468 137.908C107.199 139.806 108.109 142.312 107.997 144.879Z" fill="url(#paint5_radial_5929_4906)" style="mix-blend-mode:screen"/>
<path d="M272.698 84.4213C272.614 86.3374 271.964 88.1856 270.829 89.732C269.695 91.2783 268.127 92.4534 266.325 93.1084C264.522 93.7634 262.566 93.8689 260.703 93.4116C258.84 92.9542 257.155 91.9546 255.861 90.5392C254.567 89.1238 253.721 87.3562 253.432 85.4602C253.143 83.5643 253.423 81.6251 254.236 79.8881C255.049 78.1512 256.36 76.6946 258.001 75.7026C259.642 74.7106 261.541 74.2279 263.457 74.3155C266.02 74.438 268.43 75.5694 270.161 77.4629C271.893 79.3563 272.805 81.8579 272.698 84.4213Z" fill="url(#paint6_radial_5929_4906)" style="mix-blend-mode:screen"/>
<path d="M227.927 16.7875C227.784 19.9615 226.702 23.0217 224.82 25.5811C222.937 28.1405 220.338 30.0841 217.35 31.166C214.363 32.248 211.122 32.4197 208.037 31.6595C204.952 30.8993 202.162 29.2413 200.019 26.8952C197.877 24.5491 196.478 21.6203 196 18.4792C195.522 15.3381 195.987 12.1258 197.334 9.24863C198.682 6.37147 200.853 3.95865 203.572 2.31535C206.292 0.672049 209.437 -0.127909 212.611 0.0166364C216.866 0.2104 220.869 2.08595 223.742 5.2309C226.614 8.37585 228.119 12.5327 227.927 16.7875Z" fill="url(#paint7_radial_5929_4906)" style="mix-blend-mode:screen"/>
<path d="M189.099 95.1955C188.956 98.3695 187.874 101.43 185.992 103.989C184.109 106.549 181.51 108.492 178.522 109.574C175.535 110.656 172.294 110.828 169.209 110.068C166.124 109.307 163.334 107.649 161.191 105.303C159.049 102.957 157.65 100.028 157.172 96.8872C156.694 93.7461 157.158 90.5338 158.506 87.6567C159.854 84.7795 162.025 82.3667 164.744 80.7234C167.464 79.0801 170.609 78.2801 173.783 78.4247C178.038 78.6184 182.041 80.494 184.913 83.6389C187.786 86.7839 189.291 90.9407 189.099 95.1955Z" fill="url(#paint8_radial_5929_4906)" style="mix-blend-mode:screen"/>
<path d="M293.754 147.336C293.611 150.51 292.53 153.571 290.647 156.13C288.764 158.69 286.165 160.633 283.178 161.715C280.19 162.797 276.949 162.969 273.864 162.209C270.779 161.448 267.989 159.79 265.846 157.444C263.704 155.098 262.305 152.169 261.827 149.028C261.349 145.887 261.814 142.675 263.162 139.798C264.509 136.92 266.68 134.508 269.4 132.864C272.119 131.221 275.264 130.421 278.438 130.566C280.546 130.659 282.614 131.167 284.525 132.061C286.436 132.955 288.152 134.217 289.575 135.774C290.997 137.332 292.099 139.155 292.816 141.139C293.533 143.123 293.852 145.229 293.754 147.336Z" fill="url(#paint9_radial_5929_4906)" style="mix-blend-mode:screen"/>
<path d="M314.122 211.726C313.979 214.9 312.899 217.959 311.017 220.518C309.135 223.077 306.537 225.021 303.551 226.104C300.565 227.187 297.325 227.36 294.24 226.601C291.155 225.843 288.365 224.187 286.221 221.842C284.078 219.498 282.678 216.571 282.197 213.431C281.717 210.291 282.179 207.08 283.523 204.202C284.868 201.324 287.036 198.91 289.753 197.264C292.47 195.618 295.613 194.815 298.787 194.955C300.895 195.049 302.965 195.557 304.877 196.45C306.789 197.344 308.506 198.606 309.93 200.163C311.354 201.721 312.457 203.543 313.177 205.527C313.896 207.512 314.218 209.618 314.122 211.726Z" fill="url(#paint10_radial_5929_4906)" style="mix-blend-mode:screen"/>
<defs>
<linearGradient id="paint0_linear_5929_4906" x1="1.98398" y1="451.276" x2="392.334" y2="451.276" gradientUnits="userSpaceOnUse">
<stop stop-color="#20B3ED"/>
<stop offset="0.12" stop-color="#1A89B5"/>
<stop offset="0.25" stop-color="#13607E"/>
<stop offset="0.32" stop-color="#114F68"/>
<stop offset="0.68" stop-color="#114F68"/>
<stop offset="0.73" stop-color="#12536D"/>
<stop offset="0.79" stop-color="#135E7C"/>
<stop offset="0.85" stop-color="#167296"/>
<stop offset="0.92" stop-color="#1A8CB9"/>
<stop offset="0.99" stop-color="#1FADE5"/>
<stop offset="1" stop-color="#20B3ED"/>
</linearGradient>
<linearGradient id="paint1_linear_5929_4906" x1="32.8518" y1="312.037" x2="358.595" y2="312.037" gradientUnits="userSpaceOnUse">
<stop stop-color="#20B3ED"/>
<stop offset="0.12" stop-color="#1A89B5"/>
<stop offset="0.25" stop-color="#13607E"/>
<stop offset="0.32" stop-color="#114F68"/>
<stop offset="0.68" stop-color="#114F68"/>
<stop offset="0.73" stop-color="#12536D"/>
<stop offset="0.79" stop-color="#135E7C"/>
<stop offset="0.85" stop-color="#167296"/>
<stop offset="0.92" stop-color="#1A8CB9"/>
<stop offset="0.99" stop-color="#1FADE5"/>
<stop offset="1" stop-color="#20B3ED"/>
</linearGradient>
<linearGradient id="paint2_linear_5929_4906" x1="32.8518" y1="366.321" x2="358.595" y2="366.321" gradientUnits="userSpaceOnUse">
<stop stop-color="#20B3ED"/>
<stop offset="0.12" stop-color="#1A89B5"/>
<stop offset="0.25" stop-color="#13607E"/>
<stop offset="0.32" stop-color="#114F68"/>
<stop offset="0.68" stop-color="#114F68"/>
<stop offset="0.73" stop-color="#12536D"/>
<stop offset="0.79" stop-color="#135E7C"/>
<stop offset="0.85" stop-color="#167296"/>
<stop offset="0.92" stop-color="#1A8CB9"/>
<stop offset="0.99" stop-color="#1FADE5"/>
<stop offset="1" stop-color="#20B3ED"/>
</linearGradient>
<radialGradient id="paint3_radial_5929_4906" cx="0" cy="0" r="1" gradientUnits="userSpaceOnUse" gradientTransform="translate(339.073 104.81) scale(9.69288 9.69287)">
<stop stop-color="#E9F9FF"/>
<stop offset="0.11" stop-color="#CBF0FF"/>
<stop offset="0.27" stop-color="#97E2FF"/>
<stop offset="0.32" stop-color="#91D8F4" stop-opacity="0.96"/>
<stop offset="0.42" stop-color="#82C0D8" stop-opacity="0.84"/>
<stop offset="0.55" stop-color="#6A99AB" stop-opacity="0.64"/>
<stop offset="0.7" stop-color="#48646F" stop-opacity="0.37"/>
<stop offset="0.88" stop-color="#1C2528" stop-opacity="0.03"/>
<stop offset="0.9" stop-color="#151E21" stop-opacity="0"/>
</radialGradient>
<radialGradient id="paint4_radial_5929_4906" cx="0" cy="0" r="1" gradientUnits="userSpaceOnUse" gradientTransform="translate(96.1428 84.1656) scale(9.69289 9.69287)">
<stop stop-color="#E9F9FF"/>
<stop offset="0.11" stop-color="#CBF0FF"/>
<stop offset="0.27" stop-color="#97E2FF"/>
<stop offset="0.32" stop-color="#91D8F4" stop-opacity="0.96"/>
<stop offset="0.42" stop-color="#82C0D8" stop-opacity="0.84"/>
<stop offset="0.55" stop-color="#6A99AB" stop-opacity="0.64"/>
<stop offset="0.7" stop-color="#48646F" stop-opacity="0.37"/>
<stop offset="0.88" stop-color="#1C2528" stop-opacity="0.03"/>
<stop offset="0.9" stop-color="#151E21" stop-opacity="0"/>
</radialGradient>
<radialGradient id="paint5_radial_5929_4906" cx="0" cy="0" r="1" gradientUnits="userSpaceOnUse" gradientTransform="translate(98.3825 144.446) scale(9.69287 9.69287)">
<stop stop-color="#E9F9FF"/>
<stop offset="0.11" stop-color="#CBF0FF"/>
<stop offset="0.27" stop-color="#97E2FF"/>
<stop offset="0.32" stop-color="#91D8F4" stop-opacity="0.96"/>
<stop offset="0.42" stop-color="#82C0D8" stop-opacity="0.84"/>
<stop offset="0.55" stop-color="#6A99AB" stop-opacity="0.64"/>
<stop offset="0.7" stop-color="#48646F" stop-opacity="0.37"/>
<stop offset="0.88" stop-color="#1C2528" stop-opacity="0.03"/>
<stop offset="0.9" stop-color="#151E21" stop-opacity="0"/>
</radialGradient>
<radialGradient id="paint6_radial_5929_4906" cx="0" cy="0" r="1" gradientUnits="userSpaceOnUse" gradientTransform="translate(263.005 84.0281) scale(9.69291 9.69287)">
<stop stop-color="#E9F9FF"/>
<stop offset="0.11" stop-color="#CBF0FF"/>
<stop offset="0.27" stop-color="#97E2FF"/>
<stop offset="0.32" stop-color="#91D8F4" stop-opacity="0.96"/>
<stop offset="0.42" stop-color="#82C0D8" stop-opacity="0.84"/>
<stop offset="0.55" stop-color="#6A99AB" stop-opacity="0.64"/>
<stop offset="0.7" stop-color="#48646F" stop-opacity="0.37"/>
<stop offset="0.88" stop-color="#1C2528" stop-opacity="0.03"/>
<stop offset="0.9" stop-color="#151E21" stop-opacity="0"/>
</radialGradient>
<radialGradient id="paint7_radial_5929_4906" cx="0" cy="0" r="1" gradientUnits="userSpaceOnUse" gradientTransform="translate(211.785 16.06) scale(16.063 16.063)">
<stop stop-color="#E9F9FF"/>
<stop offset="0.11" stop-color="#CBF0FF"/>
<stop offset="0.27" stop-color="#97E2FF"/>
<stop offset="0.32" stop-color="#91D8F4" stop-opacity="0.96"/>
<stop offset="0.42" stop-color="#82C0D8" stop-opacity="0.84"/>
<stop offset="0.55" stop-color="#6A99AB" stop-opacity="0.64"/>
<stop offset="0.7" stop-color="#48646F" stop-opacity="0.37"/>
<stop offset="0.88" stop-color="#1C2528" stop-opacity="0.03"/>
<stop offset="0.9" stop-color="#151E21" stop-opacity="0"/>
</radialGradient>
<radialGradient id="paint8_radial_5929_4906" cx="0" cy="0" r="1" gradientUnits="userSpaceOnUse" gradientTransform="translate(173.056 94.468) scale(16.063 16.063)">
<stop stop-color="#E9F9FF"/>
<stop offset="0.11" stop-color="#CBF0FF"/>
<stop offset="0.27" stop-color="#97E2FF"/>
<stop offset="0.32" stop-color="#91D8F4" stop-opacity="0.96"/>
<stop offset="0.42" stop-color="#82C0D8" stop-opacity="0.84"/>
<stop offset="0.55" stop-color="#6A99AB" stop-opacity="0.64"/>
<stop offset="0.7" stop-color="#48646F" stop-opacity="0.37"/>
<stop offset="0.88" stop-color="#1C2528" stop-opacity="0.03"/>
<stop offset="0.9" stop-color="#151E21" stop-opacity="0"/>
</radialGradient>
<radialGradient id="paint9_radial_5929_4906" cx="0" cy="0" r="1" gradientUnits="userSpaceOnUse" gradientTransform="translate(277.711 146.629) scale(16.063 16.063)">
<stop stop-color="#E9F9FF"/>
<stop offset="0.11" stop-color="#CBF0FF"/>
<stop offset="0.27" stop-color="#97E2FF"/>
<stop offset="0.32" stop-color="#91D8F4" stop-opacity="0.96"/>
<stop offset="0.42" stop-color="#82C0D8" stop-opacity="0.84"/>
<stop offset="0.55" stop-color="#6A99AB" stop-opacity="0.64"/>
<stop offset="0.7" stop-color="#48646F" stop-opacity="0.37"/>
<stop offset="0.88" stop-color="#1C2528" stop-opacity="0.03"/>
<stop offset="0.9" stop-color="#151E21" stop-opacity="0"/>
</radialGradient>
<radialGradient id="paint10_radial_5929_4906" cx="0" cy="0" r="1" gradientUnits="userSpaceOnUse" gradientTransform="translate(298.079 210.999) scale(16.063 16.063)">
<stop stop-color="#FCE9FF"/>
<stop offset="0.11" stop-color="#CBF0FF"/>
<stop offset="0.27" stop-color="#97E2FF"/>
<stop offset="0.32" stop-color="#91D8F4" stop-opacity="0.96"/>
<stop offset="0.42" stop-color="#82C0D8" stop-opacity="0.84"/>
<stop offset="0.55" stop-color="#6A99AB" stop-opacity="0.64"/>
<stop offset="0.7" stop-color="#48646F" stop-opacity="0.37"/>
<stop offset="0.88" stop-color="#1C2528" stop-opacity="0.03"/>
<stop offset="0.9" stop-color="#151E21" stop-opacity="0"/>
</radialGradient>
</defs>
</svg>
