<svg width="392" height="338" viewBox="0 0 392 338" fill="none" xmlns="http://www.w3.org/2000/svg">
<path d="M195.725 217.765C142.424 217.765 92.387 224.548 54.8345 236.836C20.5064 248.063 0 263.32 0 277.613C0 291.907 20.5064 307.105 54.8345 318.41C92.387 330.698 142.424 337.481 195.725 337.481C249.026 337.481 299.083 330.698 336.616 318.41C370.944 307.164 391.451 291.926 391.451 277.613C391.451 263.3 370.944 248.122 336.616 236.836C299.083 224.548 249.046 217.765 195.725 217.765Z" fill="#008ECD"/>
<path d="M195.724 213.971C147.83 213.971 102.885 220.184 69.166 231.449C38.3179 241.771 19.8955 255.77 19.8955 268.805C19.8955 281.841 38.3179 295.918 69.166 306.161C102.885 317.447 147.81 323.66 195.724 323.66C243.638 323.66 288.563 317.447 322.301 306.161C353.149 295.839 371.454 281.86 371.454 268.805C371.454 255.75 353.051 241.693 322.301 231.449C288.563 220.144 243.657 213.971 195.724 213.971Z" fill="#A0DFFF"/>
<path d="M38.7513 148.126C38.7513 120.148 109.177 97.4006 195.725 97.4006C282.272 97.4006 352.698 120.148 352.698 148.126H354.664C354.664 119.067 283.373 95.4345 195.725 95.4345C108.076 95.4345 36.7852 119.028 36.7852 148.126H38.7513Z" fill="#A0DFFF"/>
<path d="M308.952 123.923C278.635 113.995 238.428 108.529 195.724 108.529C153.021 108.529 112.814 113.995 82.4966 123.923C50.4885 134.403 32.8525 149.05 32.8525 165.211H42.683C42.683 154.044 58.7068 142.11 85.5637 133.321C114.918 123.707 154.043 118.418 195.665 118.418C237.288 118.418 276.472 123.707 305.767 133.321C332.624 142.11 348.648 154.044 348.648 165.211H358.478C358.596 149.089 340.96 134.403 308.952 123.923Z" fill="#62CDFF"/>
<path d="M188.726 277.712C262.317 277.712 348.707 182.316 348.707 182.316C351.786 178.694 353.54 174.131 353.682 169.38C353.682 140.812 282.902 117.651 195.725 117.651C108.548 117.651 37.7686 140.812 37.7686 169.38C37.9076 174.135 39.6699 178.701 42.7625 182.316C42.7625 182.316 115.135 277.712 188.726 277.712Z" fill="#008ECD"/>
<path d="M308.952 123.923C278.635 113.995 238.428 108.529 195.724 108.529C153.021 108.529 112.814 113.995 82.4966 123.923C50.4885 134.403 32.8525 149.05 32.8525 165.211H42.683C42.683 154.044 58.7068 142.11 85.5637 133.321C114.918 123.707 154.043 118.418 195.665 118.418C237.288 118.418 276.472 123.707 305.767 133.321C332.624 142.11 348.648 154.044 348.648 165.211H358.478C358.596 149.089 340.96 134.403 308.952 123.923Z" fill="#00B3F8"/>
<path d="M305.884 89.0054C276.53 79.3911 237.404 74.1023 195.782 74.1023C154.16 74.1023 114.975 79.3911 85.6804 89.0054C58.8235 97.7938 42.7998 109.708 42.7998 120.896C42.7998 121.112 42.7998 121.348 42.7998 121.564C60.3374 99.2487 122.171 82.7728 195.762 82.7728C269.354 82.7728 331.187 99.2487 348.745 121.564C348.745 121.348 348.745 121.112 348.745 120.896C348.764 109.767 332.741 97.7938 305.884 89.0054Z" fill="#008ECD"/>
<path d="M42.683 120.896C42.683 109.708 58.7068 97.7938 85.5637 89.0054C114.918 79.3912 154.043 74.1023 195.665 74.1023C237.288 74.1023 276.472 79.3912 305.767 89.0054C332.624 97.7938 348.648 109.708 348.648 120.896V121.033H358.478V120.896C358.478 104.793 340.783 90.1457 308.834 79.6074C278.517 69.6786 238.31 64.2128 195.606 64.2128C152.903 64.2128 112.696 69.6786 82.3786 79.6074C50.3705 90.0867 32.7346 104.734 32.7346 120.896C32.7265 120.941 32.7265 120.988 32.7346 121.033H42.5651C42.5651 121.033 42.683 120.935 42.683 120.896Z" fill="#00B3F8"/>
<path d="M38.7513 103.004C38.7513 75.0264 109.177 52.259 195.725 52.259C282.272 52.259 352.698 75.0264 352.698 103.004H354.664C354.664 73.9451 283.373 50.2929 195.725 50.2929C108.076 50.2929 36.7852 73.8861 36.7852 103.004H38.7513Z" fill="#A0DFFF"/>
<path d="M269.786 64.3111H121.68V264.991H269.786V64.3111Z" fill="#00B3F8"/>
<path d="M195.725 30.7498C269.316 30.7498 331.15 47.2257 348.707 69.5212C351.796 65.9371 353.578 61.4108 353.76 56.6826C353.76 28.1152 282.981 4.95453 195.804 4.95453C108.627 4.95453 37.7686 28.0169 37.7686 56.6826C37.9045 61.4392 39.6671 66.0054 42.7625 69.6195C60.3001 47.2257 122.134 30.7498 195.725 30.7498Z" fill="#008ECD"/>
<path d="M308.952 15.3946C278.635 5.46576 238.428 0 195.725 0C153.021 0 112.814 5.40678 82.438 15.3946C50.4299 25.8739 32.7939 40.5213 32.7939 56.6827H42.6244C42.6244 45.4956 58.6482 33.581 85.5051 24.7728C114.859 15.1783 153.984 9.86983 195.607 9.86983C237.229 9.86983 276.413 15.1783 305.708 24.7728C332.565 33.581 348.589 45.4956 348.589 56.6827H358.419C358.596 40.4623 340.961 25.8149 308.952 15.3946Z" fill="#00B3F8"/>
<path d="M305.884 197.062C276.53 206.657 237.405 211.965 195.783 211.965C154.16 211.965 114.976 206.657 85.6809 197.062C58.8239 188.274 42.8002 176.34 42.8002 165.152H32.9697C32.9697 181.274 50.6646 195.922 82.6138 206.441C112.931 216.369 153.138 221.835 195.841 221.835C238.545 221.835 278.752 216.369 309.069 206.441C341.077 195.961 358.713 181.314 358.713 165.152H348.883C348.765 176.34 332.741 188.274 305.884 197.062Z" fill="#62CDFF"/>
<path d="M348.765 165.152C348.765 176.34 332.741 188.274 305.884 197.062C276.53 206.657 237.405 211.965 195.783 211.965C154.16 211.965 114.976 206.657 85.6809 197.062C58.8239 188.274 42.8002 176.34 42.8002 165.152H32.9697V255.593C32.9697 271.695 50.6646 286.343 82.6138 296.881C112.931 306.81 153.138 312.276 195.841 312.276C238.545 312.276 278.752 306.81 309.069 296.881C341.077 286.402 358.713 271.754 358.713 255.593V165.152H348.765Z" fill="url(#paint0_linear_5936_4969)"/>
<path d="M305.884 197.062C276.53 206.657 237.405 211.965 195.783 211.965C154.16 211.965 114.976 206.657 85.6809 197.062C58.8239 188.274 42.8002 176.34 42.8002 165.152H32.9697C32.9697 181.274 50.6646 195.922 82.6138 206.441C112.931 216.369 153.138 221.835 195.841 221.835C238.545 221.835 278.752 216.369 309.069 206.441C341.077 195.961 358.713 181.314 358.713 165.152H348.883C348.765 176.34 332.741 188.274 305.884 197.062Z" fill="#00B3F8"/>
<path d="M348.765 56.6827C348.765 67.8698 332.741 79.7844 305.884 88.5728C276.53 98.1871 237.405 103.476 195.783 103.476C154.16 103.476 114.976 98.1871 85.6809 88.5728C58.8239 79.7844 42.8002 67.8698 42.8002 56.6827H32.9697V85.8399C32.9697 101.962 50.6646 116.609 82.6138 127.128C112.931 137.057 153.138 142.523 195.841 142.523C238.545 142.523 278.752 137.057 309.069 127.128C341.077 116.649 358.713 102.001 358.713 85.8399V56.6827H348.765Z" fill="url(#paint1_linear_5936_4969)"/>
<path d="M305.884 88.4745C276.53 98.0887 237.405 103.378 195.783 103.378C154.16 103.378 114.976 98.0887 85.6809 88.4745C58.8239 79.686 42.8002 67.7715 42.8002 56.5844H32.9697C32.9697 72.6867 50.6646 87.3342 82.6138 97.8725C112.931 107.801 153.138 113.267 195.841 113.267C238.545 113.267 278.752 107.801 309.069 97.8725C341.077 87.3931 358.713 72.7457 358.713 56.5844H348.883C348.765 67.7715 332.741 79.686 305.884 88.4745Z" fill="#00B3F8"/>
<path d="M352.698 103.004C352.698 130.982 282.292 153.729 195.725 153.729C109.157 153.729 38.7513 130.982 38.7513 103.004H36.7852C36.7852 132.063 108.096 155.695 195.725 155.695C283.354 155.695 354.664 132.102 354.664 103.004H352.698Z" fill="#A0DFFF"/>
<path d="M352.698 148.126C352.698 176.104 282.292 198.871 195.725 198.871C109.157 198.871 38.7513 176.104 38.7513 148.126H36.7852C36.7852 177.185 108.096 200.837 195.725 200.837C283.354 200.837 354.664 177.244 354.664 148.126H352.698Z" fill="#A0DFFF"/>
<path d="M348.765 120.895C348.765 132.083 332.741 143.997 305.884 152.805C276.53 162.4 237.405 167.708 195.783 167.708C154.16 167.708 114.976 162.4 85.6809 152.805C58.8239 143.997 42.8002 132.083 42.8002 120.895H32.9697V129.998C32.9697 146.121 50.6646 160.748 82.6138 171.287C112.931 181.117 153.138 186.661 195.841 186.661C238.545 186.661 278.752 181.196 309.069 171.287C341.077 160.788 358.713 146.16 358.713 129.998V120.895H348.765Z" fill="url(#paint2_linear_5936_4969)"/>
<path d="M348.765 121.033C348.627 132.181 332.643 144.037 305.884 152.786C276.53 162.4 237.405 167.708 195.782 167.708C154.16 167.708 114.976 162.4 85.6807 152.786C58.9418 144.037 42.9377 132.181 42.8198 121.033H32.9893C32.9893 137.096 50.6841 151.685 82.6136 162.144C112.931 171.975 153.138 177.539 195.841 177.539C238.545 177.539 278.752 172.054 309.069 162.144C340.999 151.685 358.615 137.096 358.713 121.033H348.765Z" fill="#00B3F8"/>
<path d="M195.723 41.6616C175.551 41.6616 156.617 44.2372 142.422 48.8772C129.426 53.124 121.68 58.9043 121.68 64.3111C121.68 69.7178 129.426 75.4982 142.422 79.745C156.617 84.4046 175.551 86.9605 195.723 86.9605C215.895 86.9605 234.829 84.4046 249.024 79.745C262.02 75.4982 269.786 69.7178 269.786 64.3111C269.786 58.9043 262.02 53.124 249.024 48.8772C234.829 44.2372 215.895 41.6616 195.723 41.6616Z" fill="#D6F8FF"/>
<path d="M195.724 274.723C192.452 274.67 189.19 275.114 186.051 276.04C183.692 276.807 182.276 277.869 182.276 278.852C182.276 279.835 183.692 280.818 186.051 281.644C192.38 283.4 199.068 283.4 205.398 281.644C207.757 280.877 209.173 279.815 209.173 278.852C209.173 277.889 207.757 276.886 205.398 276.04C202.259 275.114 198.997 274.67 195.724 274.723Z" fill="#D6F8FF"/>
<defs>
<linearGradient id="paint0_linear_5936_4969" x1="1.98398" y1="238.724" x2="392.334" y2="238.724" gradientUnits="userSpaceOnUse">
<stop stop-color="#20B3ED"/>
<stop offset="0.12" stop-color="#1A89B5"/>
<stop offset="0.25" stop-color="#13607E"/>
<stop offset="0.32" stop-color="#114F68"/>
<stop offset="0.68" stop-color="#114F68"/>
<stop offset="0.73" stop-color="#12536D"/>
<stop offset="0.79" stop-color="#135E7C"/>
<stop offset="0.85" stop-color="#167296"/>
<stop offset="0.92" stop-color="#1A8CB9"/>
<stop offset="0.99" stop-color="#1FADE5"/>
<stop offset="1" stop-color="#20B3ED"/>
</linearGradient>
<linearGradient id="paint1_linear_5936_4969" x1="32.8518" y1="99.4847" x2="358.595" y2="99.4847" gradientUnits="userSpaceOnUse">
<stop stop-color="#20B3ED"/>
<stop offset="0.12" stop-color="#1A89B5"/>
<stop offset="0.25" stop-color="#13607E"/>
<stop offset="0.32" stop-color="#114F68"/>
<stop offset="0.68" stop-color="#114F68"/>
<stop offset="0.73" stop-color="#12536D"/>
<stop offset="0.79" stop-color="#135E7C"/>
<stop offset="0.85" stop-color="#167296"/>
<stop offset="0.92" stop-color="#1A8CB9"/>
<stop offset="0.99" stop-color="#1FADE5"/>
<stop offset="1" stop-color="#20B3ED"/>
</linearGradient>
<linearGradient id="paint2_linear_5936_4969" x1="32.8518" y1="153.769" x2="358.595" y2="153.769" gradientUnits="userSpaceOnUse">
<stop stop-color="#20B3ED"/>
<stop offset="0.12" stop-color="#1A89B5"/>
<stop offset="0.25" stop-color="#13607E"/>
<stop offset="0.32" stop-color="#114F68"/>
<stop offset="0.68" stop-color="#114F68"/>
<stop offset="0.73" stop-color="#12536D"/>
<stop offset="0.79" stop-color="#135E7C"/>
<stop offset="0.85" stop-color="#167296"/>
<stop offset="0.92" stop-color="#1A8CB9"/>
<stop offset="0.99" stop-color="#1FADE5"/>
<stop offset="1" stop-color="#20B3ED"/>
</linearGradient>
</defs>
</svg>
