<svg width="417" height="649" viewBox="0 0 417 649" fill="none" xmlns="http://www.w3.org/2000/svg">
<path d="M206.929 528.629C153.628 528.629 103.591 535.412 66.0386 547.7C31.7105 558.927 11.2041 574.184 11.2041 588.477C11.2041 602.771 31.7105 617.969 66.0386 629.274C103.591 641.562 153.628 648.345 206.929 648.345C260.23 648.345 310.287 641.562 347.82 629.274C382.148 618.028 402.655 602.79 402.655 588.477C402.655 574.164 382.148 558.986 347.82 547.7C310.287 535.412 260.25 528.629 206.929 528.629Z" fill="#008ECD"/>
<path d="M206.928 524.835C159.034 524.835 114.089 531.048 80.3701 542.313C49.522 552.635 31.0996 566.634 31.0996 579.669C31.0996 592.705 49.522 606.782 80.3701 617.025C114.089 628.311 159.014 634.523 206.928 634.523C254.842 634.523 299.767 628.311 333.505 617.025C364.354 606.703 382.658 592.724 382.658 579.669C382.658 566.614 364.255 552.557 333.505 542.313C299.767 531.008 254.861 524.835 206.928 524.835Z" fill="#A0DFFF"/>
<path d="M49.9554 458.99C49.9554 431.012 120.381 408.265 206.929 408.265C293.477 408.265 363.902 431.012 363.902 458.99H365.868C365.868 429.931 294.578 406.298 206.929 406.298C119.28 406.298 47.9893 429.892 47.9893 458.99H49.9554Z" fill="#A0DFFF"/>
<path d="M320.156 434.787C289.839 424.858 249.632 419.393 206.928 419.393C164.225 419.393 124.018 424.858 93.7007 434.787C61.6926 445.267 44.0566 459.914 44.0566 476.075H53.8871C53.8871 464.908 69.9109 452.974 96.7678 444.185C126.122 434.571 165.247 429.282 206.869 429.282C248.492 429.282 287.676 434.571 316.971 444.185C343.828 452.974 359.852 464.908 359.852 476.075H369.682C369.8 459.953 352.164 445.267 320.156 434.787Z" fill="#62CDFF"/>
<path d="M199.93 588.576C273.521 588.576 359.911 493.18 359.911 493.18C362.99 489.558 364.744 484.995 364.886 480.243C364.886 451.676 294.106 428.515 206.929 428.515C119.752 428.515 48.9727 451.676 48.9727 480.243C49.1117 484.999 50.874 489.565 53.9666 493.18C53.9666 493.18 126.339 588.576 199.93 588.576Z" fill="#008ECD"/>
<path d="M320.156 434.787C289.839 424.858 249.632 419.393 206.928 419.393C164.225 419.393 124.018 424.858 93.7007 434.787C61.6926 445.267 44.0566 459.914 44.0566 476.075H53.8871C53.8871 464.908 69.9109 452.974 96.7678 444.185C126.122 434.571 165.247 429.282 206.869 429.282C248.492 429.282 287.676 434.571 316.971 444.185C343.828 452.974 359.852 464.908 359.852 476.075H369.682C369.8 459.953 352.164 445.267 320.156 434.787Z" fill="#00B3F8"/>
<path d="M317.088 399.869C287.734 390.255 248.609 384.966 206.986 384.966C165.364 384.966 126.179 390.255 96.8845 399.869C70.0276 408.658 54.0039 420.572 54.0039 431.759C54.0039 431.976 54.0039 432.212 54.0039 432.428C71.5415 410.113 133.375 393.637 206.967 393.637C280.558 393.637 342.392 410.113 359.949 432.428C359.949 432.212 359.949 431.976 359.949 431.759C359.968 420.631 343.945 408.658 317.088 399.869Z" fill="#008ECD"/>
<path d="M53.8871 431.759C53.8871 420.572 69.9109 408.658 96.7678 399.869C126.122 390.255 165.247 384.966 206.869 384.966C248.492 384.966 287.676 390.255 316.971 399.869C343.828 408.658 359.852 420.572 359.852 431.759V431.897H369.682V431.759C369.682 415.657 351.987 401.01 320.038 390.471C289.721 380.543 249.514 375.077 206.81 375.077C164.107 375.077 123.9 380.543 93.5827 390.471C61.5746 400.951 43.9387 415.598 43.9387 431.759C43.9306 431.805 43.9306 431.852 43.9387 431.897H53.7692C53.7692 431.897 53.8871 431.799 53.8871 431.759Z" fill="#00B3F8"/>
<path d="M49.9554 413.868C49.9554 385.89 120.381 363.123 206.929 363.123C293.477 363.123 363.902 385.89 363.902 413.868H365.868C365.868 384.809 294.578 361.157 206.929 361.157C119.28 361.157 47.9893 384.75 47.9893 413.868H49.9554Z" fill="#A0DFFF"/>
<path d="M280.99 375.175H132.884V575.855H280.99V375.175Z" fill="#00B3F8"/>
<path d="M206.929 341.614C280.52 341.614 342.354 358.09 359.911 380.385C363 376.801 364.782 372.275 364.964 367.547C364.964 338.979 294.185 315.818 207.008 315.818C119.831 315.818 48.9727 338.881 48.9727 367.547C49.1086 372.303 50.8712 376.869 53.9666 380.483C71.5042 358.09 133.338 341.614 206.929 341.614Z" fill="#008ECD"/>
<path d="M320.157 326.259C289.839 316.33 249.632 310.864 206.929 310.864C164.225 310.864 124.018 316.271 93.6421 326.259C61.634 336.738 43.998 351.385 43.998 367.547H53.8285C53.8285 356.36 69.8523 344.445 96.7092 335.637C126.063 326.042 165.188 320.734 206.811 320.734C248.433 320.734 287.618 326.042 316.912 335.637C343.769 344.445 359.793 356.36 359.793 367.547H369.624C369.801 351.326 352.165 336.679 320.157 326.259Z" fill="#00B3F8"/>
<path d="M317.088 507.926C287.734 517.521 248.609 522.829 206.987 522.829C165.364 522.829 126.18 517.521 96.885 507.926C70.028 499.138 54.0043 487.203 54.0043 476.016H44.1738C44.1738 492.138 61.8687 506.786 93.8179 517.304C124.135 527.233 164.342 532.699 207.046 532.699C249.749 532.699 289.956 527.233 320.273 517.304C352.281 506.825 369.917 492.178 369.917 476.016H360.087C359.969 487.203 343.945 499.138 317.088 507.926Z" fill="#62CDFF"/>
<path d="M359.969 476.016C359.969 487.203 343.945 499.138 317.088 507.926C287.734 517.521 248.609 522.829 206.987 522.829C165.364 522.829 126.18 517.521 96.885 507.926C70.028 499.138 54.0043 487.203 54.0043 476.016H44.1738V566.457C44.1738 582.559 61.8687 597.207 93.8179 607.745C124.135 617.674 164.342 623.14 207.046 623.14C249.749 623.14 289.956 617.674 320.273 607.745C352.281 597.266 369.917 582.618 369.917 566.457V476.016H359.969Z" fill="url(#paint0_linear_5922_4070)"/>
<path d="M317.088 507.926C287.734 517.521 248.609 522.829 206.987 522.829C165.364 522.829 126.18 517.521 96.885 507.926C70.028 499.138 54.0043 487.203 54.0043 476.016H44.1738C44.1738 492.138 61.8687 506.786 93.8179 517.304C124.135 527.233 164.342 532.699 207.046 532.699C249.749 532.699 289.956 527.233 320.273 517.304C352.281 506.825 369.917 492.178 369.917 476.016H360.087C359.969 487.203 343.945 499.138 317.088 507.926Z" fill="#00B3F8"/>
<path d="M359.969 367.547C359.969 378.734 343.945 390.648 317.088 399.437C287.734 409.051 248.609 414.34 206.987 414.34C165.364 414.34 126.18 409.051 96.885 399.437C70.028 390.648 54.0043 378.734 54.0043 367.547H44.1738V396.704C44.1738 412.826 61.8687 427.473 93.8179 437.992C124.135 447.921 164.342 453.387 207.046 453.387C249.749 453.387 289.956 447.921 320.273 437.992C352.281 427.513 369.917 412.865 369.917 396.704V367.547H359.969Z" fill="url(#paint1_linear_5922_4070)"/>
<path d="M317.088 399.338C287.734 408.953 248.609 414.241 206.987 414.241C165.364 414.241 126.18 408.953 96.885 399.338C70.028 390.55 54.0043 378.635 54.0043 367.448H44.1738C44.1738 383.551 61.8687 398.198 93.8179 408.736C124.135 418.665 164.342 424.131 207.046 424.131C249.749 424.131 289.956 418.665 320.273 408.736C352.281 398.257 369.917 383.61 369.917 367.448H360.087C359.969 378.635 343.945 390.55 317.088 399.338Z" fill="#00B3F8"/>
<path d="M363.902 413.868C363.902 441.846 293.496 464.593 206.929 464.593C120.361 464.593 49.9554 441.846 49.9554 413.868H47.9893C47.9893 442.927 119.3 466.559 206.929 466.559C294.558 466.559 365.868 442.966 365.868 413.868H363.902Z" fill="#A0DFFF"/>
<path d="M363.902 458.99C363.902 486.968 293.496 509.735 206.929 509.735C120.361 509.735 49.9554 486.968 49.9554 458.99H47.9893C47.9893 488.049 119.3 511.701 206.929 511.701C294.558 511.701 365.868 488.108 365.868 458.99H363.902Z" fill="#A0DFFF"/>
<path d="M359.969 431.759C359.969 442.947 343.945 454.861 317.088 463.669C287.734 473.264 248.609 478.572 206.987 478.572C165.364 478.572 126.18 473.264 96.885 463.669C70.028 454.861 54.0043 442.947 54.0043 431.759H44.1738V440.862C44.1738 456.984 61.8687 471.612 93.8179 482.151C124.135 491.981 164.342 497.525 207.046 497.525C249.749 497.525 289.956 492.06 320.273 482.151C352.281 471.652 369.917 457.024 369.917 440.862V431.759H359.969Z" fill="url(#paint2_linear_5922_4070)"/>
<path d="M359.969 431.897C359.831 443.045 343.847 454.901 317.088 463.65C287.734 473.264 248.609 478.572 206.986 478.572C165.364 478.572 126.18 473.264 96.8848 463.65C70.1459 454.901 54.1418 443.045 54.0239 431.897H44.1934C44.1934 447.96 61.8882 462.549 93.8177 473.008C124.135 482.839 164.342 488.403 207.045 488.403C249.749 488.403 289.956 482.918 320.273 473.008C352.203 462.549 369.819 447.96 369.917 431.897H359.969Z" fill="#00B3F8"/>
<path d="M206.927 352.526C186.755 352.526 167.821 355.101 153.626 359.741C140.63 363.988 132.884 369.768 132.884 375.175C132.884 380.582 140.63 386.362 153.626 390.609C167.821 395.269 186.755 397.824 206.927 397.824C227.099 397.824 246.033 395.269 260.228 390.609C273.224 386.362 280.99 380.582 280.99 375.175C280.99 369.768 273.224 363.988 260.228 359.741C246.033 355.101 227.099 352.526 206.927 352.526Z" fill="#D6F8FF"/>
<path d="M206.929 585.587C203.656 585.534 200.394 585.978 197.255 586.904C194.896 587.671 193.48 588.733 193.48 589.716C193.48 590.699 194.896 591.682 197.255 592.508C203.585 594.264 210.272 594.264 216.602 592.508C218.961 591.741 220.377 590.679 220.377 589.716C220.377 588.753 218.961 587.75 216.602 586.904C213.463 585.978 210.201 585.534 206.929 585.587Z" fill="#D6F8FF"/>
<path d="M338.715 180.669L292.197 132.362L223.207 110.735L143.934 119.267L91.1243 146.065L61.4756 192.78L74.6484 245.412L142.4 275.415L220.336 256.894L256.414 270.421L274.994 302.134L309.283 309.311L345.459 285.226L350.276 233.812L338.715 180.669Z" stroke="#D6F8FF" stroke-width="2.94915" stroke-linejoin="round"/>
<path d="M61.4756 192.78L145.861 171.566L184.259 192.78L142.4 275.415L105.909 181.613" stroke="#D6F8FF" stroke-width="1.47458" stroke-linejoin="round"/>
<path d="M226.884 181.691L184.259 192.78L223.207 110.735L226.884 181.691ZM226.884 181.691L256.415 220.109L315.24 207.742L338.716 180.669L226.884 181.691Z" stroke="#D6F8FF" stroke-width="1.47458" stroke-linejoin="round"/>
<path d="M91.1244 146.065L145.861 171.566L143.934 119.268L184.259 192.78L105.909 181.613L74.6484 245.412L184.259 192.78" stroke="#D6F8FF" stroke-width="1.47458" stroke-linejoin="round"/>
<path d="M345.46 285.226L325.209 245.412H288.915L256.415 270.421V220.109" stroke="#D6F8FF" stroke-width="1.47458" stroke-linejoin="round"/>
<path d="M325.209 245.412L350.277 233.812L256.415 220.109" stroke="#D6F8FF" stroke-width="1.47458" stroke-linejoin="round"/>
<path d="M274.994 302.134L288.914 245.413L256.415 220.109L292.198 132.362L226.884 181.691" stroke="#D6F8FF" stroke-width="1.47458" stroke-linejoin="round"/>
<path d="M309.285 309.311L288.916 245.412" stroke="#D6F8FF" stroke-width="1.47458" stroke-linejoin="round"/>
<path d="M256.415 220.109L184.259 192.78L190.314 238.393L220.337 256.894L256.415 220.109Z" stroke="#D6F8FF" stroke-width="1.47458" stroke-linejoin="round"/>
<path d="M142.4 275.415L190.314 238.393" stroke="#D6F8FF" stroke-width="1.47458" stroke-linejoin="round"/>
<path d="M220.336 256.895L226.883 181.691L143.934 119.268" stroke="#D6F8FF" stroke-width="1.47458" stroke-linejoin="round"/>
<path d="M350.278 233.813L315.242 207.742L272.519 180.669" stroke="#D6F8FF" stroke-width="1.47458" stroke-linejoin="round"/>
<path d="M359.97 203.554C359.883 205.468 359.23 207.314 358.095 208.857C356.959 210.401 355.391 211.573 353.589 212.226C351.788 212.878 349.833 212.982 347.972 212.525C346.112 212.067 344.428 211.068 343.135 209.654C341.842 208.24 340.997 206.474 340.707 204.58C340.416 202.686 340.694 200.748 341.505 199.012C342.315 197.276 343.622 195.819 345.261 194.825C346.899 193.831 348.796 193.345 350.71 193.429C353.28 193.546 355.698 194.678 357.434 196.576C359.17 198.475 360.082 200.984 359.97 203.554Z" fill="url(#paint3_radial_5922_4070)" style="mix-blend-mode:screen"/>
<path d="M117.02 182.91C116.936 184.826 116.286 186.674 115.152 188.221C114.017 189.767 112.449 190.942 110.647 191.597C108.844 192.252 106.888 192.358 105.025 191.9C103.162 191.443 101.477 190.443 100.183 189.028C98.889 187.613 98.0437 185.845 97.7544 183.949C97.4652 182.053 97.7449 180.114 98.5582 178.377C99.3714 176.64 100.682 175.183 102.323 174.191C103.965 173.199 105.863 172.717 107.779 172.804C110.344 172.922 112.757 174.052 114.49 175.946C116.222 177.841 117.132 180.345 117.02 182.91Z" fill="url(#paint4_radial_5922_4070)" style="mix-blend-mode:screen"/>
<path d="M119.201 243.191C119.113 245.106 118.46 246.952 117.323 248.496C116.186 250.039 114.617 251.211 112.815 251.863C111.012 252.515 109.056 252.618 107.195 252.159C105.334 251.699 103.651 250.698 102.359 249.282C101.066 247.866 100.223 246.099 99.9351 244.203C99.6473 242.308 99.9279 240.37 100.742 238.634C101.555 236.898 102.865 235.443 104.506 234.452C106.147 233.46 108.045 232.978 109.96 233.065C112.526 233.188 114.94 234.322 116.672 236.22C118.404 238.117 119.313 240.624 119.201 243.191Z" fill="url(#paint5_radial_5922_4070)" style="mix-blend-mode:screen"/>
<path d="M283.902 182.733C283.818 184.649 283.168 186.497 282.033 188.044C280.899 189.59 279.331 190.765 277.529 191.42C275.726 192.075 273.77 192.181 271.907 191.723C270.044 191.266 268.359 190.266 267.065 188.851C265.771 187.436 264.926 185.668 264.636 183.772C264.347 181.876 264.627 179.937 265.44 178.2C266.253 176.463 267.564 175.006 269.205 174.014C270.847 173.023 272.745 172.54 274.661 172.627C277.224 172.75 279.634 173.881 281.366 175.775C283.097 177.668 284.009 180.17 283.902 182.733Z" fill="url(#paint6_radial_5922_4070)" style="mix-blend-mode:screen"/>
<path d="M103.158 111.01C103.07 112.925 102.417 114.771 101.28 116.315C100.143 117.858 98.5745 119.03 96.7718 119.682C94.969 120.334 93.0133 120.437 91.1522 119.978C89.291 119.518 87.6079 118.517 86.3156 117.101C85.0233 115.685 84.1799 113.918 83.8921 112.022C83.6043 110.127 83.885 108.189 84.6986 106.453C85.5123 104.717 86.8224 103.262 88.4633 102.271C90.1042 101.279 92.0022 100.797 93.9172 100.884C95.1905 100.937 96.4407 101.242 97.5958 101.78C98.7508 102.319 99.7877 103.081 100.647 104.022C101.506 104.964 102.17 106.066 102.601 107.265C103.032 108.464 103.221 109.737 103.158 111.01Z" fill="url(#paint7_radial_5922_4070)" style="mix-blend-mode:screen"/>
<path d="M17.9862 168.361C17.9226 169.7 17.4635 170.991 16.6668 172.07C15.8701 173.148 14.7716 173.966 13.51 174.421C12.2485 174.876 10.8805 174.946 9.57897 174.623C8.27742 174.301 7.10064 173.6 6.1974 172.608C5.29416 171.617 4.70493 170.381 4.50418 169.055C4.30343 167.729 4.50016 166.374 5.06951 165.16C5.63885 163.945 6.55529 162.927 7.703 162.234C8.8507 161.54 10.1782 161.203 11.5178 161.263C12.4089 161.304 13.2832 161.52 14.0908 161.898C14.8984 162.277 15.6233 162.811 16.2242 163.471C16.825 164.13 17.2899 164.901 17.5923 165.74C17.8947 166.579 18.0285 167.47 17.9862 168.361Z" fill="url(#paint8_radial_5922_4070)" style="mix-blend-mode:screen"/>
<path d="M67.453 243.8C67.3894 245.14 66.9303 246.43 66.1336 247.509C65.3369 248.587 64.2384 249.406 62.9768 249.86C61.7153 250.315 60.3473 250.385 59.0457 250.063C57.7442 249.74 56.5674 249.039 55.6642 248.048C54.761 247.057 54.1717 245.82 53.971 244.494C53.7702 243.168 53.967 241.813 54.5363 240.599C55.1056 239.385 56.0221 238.367 57.1698 237.673C58.3175 236.98 59.645 236.642 60.9846 236.703C61.8756 236.743 62.75 236.959 63.5576 237.337C64.3652 237.716 65.0901 238.251 65.691 238.91C66.2918 239.569 66.7567 240.34 67.0591 241.18C67.3614 242.019 67.4953 242.909 67.453 243.8Z" fill="url(#paint9_radial_5922_4070)" style="mix-blend-mode:screen"/>
<path d="M360.695 122.61C360.632 123.949 360.172 125.24 359.376 126.318C358.579 127.397 357.48 128.215 356.219 128.67C354.957 129.124 353.589 129.195 352.288 128.872C350.986 128.55 349.81 127.848 348.906 126.857C348.003 125.866 347.414 124.63 347.213 123.304C347.012 121.978 347.209 120.622 347.778 119.408C348.348 118.194 349.264 117.176 350.412 116.483C351.56 115.789 352.887 115.452 354.227 115.512C355.118 115.553 355.992 115.768 356.8 116.147C357.607 116.526 358.332 117.06 358.933 117.719C359.534 118.379 359.999 119.15 360.301 119.989C360.604 120.828 360.737 121.719 360.695 122.61Z" fill="url(#paint10_radial_5922_4070)" style="mix-blend-mode:screen"/>
<path d="M265.42 72.1794C265.36 73.5191 264.905 74.8111 264.111 75.8921C263.318 76.9731 262.222 77.7947 260.961 78.253C259.701 78.7113 258.333 78.7857 257.031 78.4669C255.728 78.1481 254.549 77.4503 253.643 76.4618C252.737 75.4733 252.144 74.2383 251.94 72.913C251.735 71.5877 251.928 70.2315 252.494 69.0157C253.06 67.8 253.973 66.7793 255.119 66.0826C256.265 65.3859 257.592 65.0444 258.932 65.1014C260.729 65.1831 262.422 65.9738 263.638 67.3003C264.854 68.6269 265.494 70.3813 265.42 72.1794Z" fill="url(#paint11_radial_5922_4070)" style="mix-blend-mode:screen"/>
<path d="M225.056 287.507C224.996 288.846 224.541 290.138 223.747 291.219C222.954 292.3 221.858 293.122 220.597 293.58C219.337 294.039 217.969 294.113 216.667 293.794C215.364 293.475 214.185 292.778 213.279 291.789C212.373 290.801 211.78 289.566 211.575 288.24C211.371 286.915 211.564 285.559 212.13 284.343C212.696 283.127 213.609 282.107 214.755 281.41C215.901 280.713 217.228 280.372 218.567 280.429C219.458 280.467 220.333 280.68 221.142 281.056C221.95 281.433 222.677 281.965 223.279 282.622C223.882 283.28 224.349 284.049 224.654 284.888C224.959 285.726 225.095 286.616 225.056 287.507Z" fill="url(#paint12_radial_5922_4070)" style="mix-blend-mode:screen"/>
<path d="M44.3709 335.421C44.3112 336.761 43.8552 338.054 43.0607 339.135C42.2662 340.216 41.1688 341.038 39.9074 341.495C38.646 341.953 37.2773 342.026 35.9743 341.705C34.6713 341.385 33.4927 340.685 32.5875 339.695C31.6823 338.704 31.0912 337.467 30.889 336.141C30.6868 334.814 30.8825 333.458 31.4515 332.242C32.0205 331.027 32.9371 330.008 34.0853 329.314C35.2336 328.62 36.562 328.282 37.9024 328.343C39.6967 328.429 41.3838 329.222 42.5957 330.548C43.8075 331.874 44.4457 333.626 44.3709 335.421Z" fill="url(#paint13_radial_5922_4070)" style="mix-blend-mode:screen"/>
<path d="M309.913 335.892C309.853 337.233 309.397 338.526 308.603 339.607C307.808 340.688 306.711 341.51 305.449 341.967C304.188 342.425 302.819 342.498 301.516 342.177C300.213 341.857 299.035 341.157 298.129 340.166C297.224 339.176 296.633 337.939 296.431 336.613C296.229 335.286 296.424 333.93 296.993 332.714C297.562 331.499 298.479 330.48 299.627 329.786C300.776 329.092 302.104 328.754 303.444 328.814C304.335 328.852 305.208 329.066 306.016 329.442C306.823 329.819 307.549 330.351 308.15 331.009C308.751 331.667 309.216 332.437 309.519 333.275C309.821 334.113 309.955 335.002 309.913 335.892Z" fill="url(#paint14_radial_5922_4070)" style="mix-blend-mode:screen"/>
<path d="M389.54 271.208C389.48 272.548 389.024 273.841 388.23 274.922C387.435 276.003 386.338 276.825 385.076 277.282C383.815 277.74 382.446 277.813 381.143 277.492C379.84 277.172 378.662 276.472 377.756 275.482C376.851 274.491 376.26 273.254 376.058 271.928C375.856 270.601 376.051 269.245 376.62 268.03C377.189 266.814 378.106 265.795 379.254 265.101C380.403 264.407 381.731 264.069 383.071 264.13C384.868 264.211 386.558 265.003 387.771 266.33C388.983 267.657 389.62 269.411 389.54 271.208Z" fill="url(#paint15_radial_5922_4070)" style="mix-blend-mode:screen"/>
<path d="M258.617 398.139C258.553 399.479 258.094 400.769 257.298 401.848C256.501 402.926 255.402 403.745 254.141 404.199C252.879 404.654 251.511 404.724 250.21 404.401C248.908 404.079 247.732 403.378 246.828 402.387C245.925 401.396 245.336 400.159 245.135 398.833C244.934 397.507 245.131 396.152 245.7 394.938C246.27 393.724 247.186 392.705 248.334 392.012C249.482 391.319 250.809 390.981 252.149 391.042C253.04 391.082 253.914 391.298 254.722 391.676C255.529 392.055 256.254 392.589 256.855 393.249C257.456 393.908 257.921 394.679 258.223 395.518C258.526 396.358 258.659 397.248 258.617 398.139Z" fill="url(#paint16_radial_5922_4070)" style="mix-blend-mode:screen"/>
<path d="M327.607 68.3061C327.579 68.9196 327.37 69.5112 327.007 70.0059C326.643 70.5007 326.14 70.8765 325.563 71.0859C324.986 71.2953 324.359 71.3289 323.763 71.1824C323.166 71.0359 322.627 70.7159 322.212 70.2628C321.798 69.8098 321.527 69.244 321.433 68.637C321.34 68.0299 321.429 67.4089 321.689 66.8523C321.948 66.2958 322.367 65.8287 322.892 65.51C323.417 65.1914 324.025 65.0355 324.638 65.0621C325.461 65.1029 326.234 65.4664 326.79 66.0738C327.345 66.6812 327.639 67.4834 327.607 68.3061Z" fill="url(#paint17_radial_5922_4070)" style="mix-blend-mode:screen"/>
<path d="M245.306 3.24789C245.278 3.86219 245.069 4.45435 244.704 4.94937C244.339 5.4444 243.835 5.82003 243.257 6.02865C242.679 6.23727 242.051 6.26952 241.454 6.12131C240.858 5.97309 240.318 5.65108 239.905 5.19607C239.491 4.74105 239.222 4.1735 239.131 3.56531C239.04 2.95712 239.132 2.33567 239.394 1.77965C239.657 1.22363 240.079 0.758061 240.606 0.441933C241.134 0.125805 241.743 -0.0266743 242.357 0.00382374C243.178 0.044576 243.949 0.408827 244.502 1.01683C245.055 1.62483 245.344 2.42705 245.306 3.24789Z" fill="url(#paint18_radial_5922_4070)" style="mix-blend-mode:screen"/>
<path d="M6.20964 267.885C6.18164 268.499 5.97194 269.092 5.60712 269.587C5.2423 270.082 4.73879 270.457 4.16032 270.666C3.58186 270.874 2.95447 270.907 2.35766 270.758C1.76086 270.61 1.2215 270.288 0.807849 269.833C0.3942 269.378 0.124916 268.811 0.0340807 268.203C-0.0567545 267.594 0.0349568 266.973 0.297603 266.417C0.56025 265.861 0.981984 265.395 1.50944 265.079C2.03689 264.763 2.64632 264.611 3.26049 264.641C3.66772 264.659 4.06745 264.757 4.43657 264.93C4.80568 265.103 5.13685 265.347 5.41104 265.649C5.68523 265.95 5.89696 266.303 6.03402 266.687C6.17109 267.071 6.2308 267.478 6.20964 267.885Z" fill="url(#paint19_radial_5922_4070)" style="mix-blend-mode:screen"/>
<path d="M153.233 397.962C153.205 398.577 152.995 399.169 152.631 399.664C152.266 400.159 151.762 400.534 151.184 400.743C150.605 400.952 149.978 400.984 149.381 400.836C148.784 400.687 148.245 400.365 147.831 399.91C147.418 399.455 147.148 398.888 147.058 398.28C146.967 397.671 147.058 397.05 147.321 396.494C147.584 395.938 148.005 395.472 148.533 395.156C149.06 394.84 149.67 394.688 150.284 394.718C151.105 394.759 151.876 395.123 152.428 395.731C152.981 396.339 153.27 397.141 153.233 397.962Z" fill="url(#paint20_radial_5922_4070)" style="mix-blend-mode:screen"/>
<path d="M385.863 339.313C385.835 339.927 385.626 340.518 385.262 341.013C384.899 341.508 384.396 341.884 383.819 342.093C383.242 342.302 382.615 342.336 382.019 342.189C381.422 342.043 380.883 341.723 380.468 341.27C380.053 340.817 379.782 340.251 379.689 339.644C379.596 339.037 379.685 338.416 379.945 337.859C380.204 337.303 380.623 336.836 381.148 336.517C381.673 336.199 382.281 336.043 382.894 336.069C383.302 336.087 383.703 336.185 384.073 336.358C384.443 336.53 384.776 336.774 385.051 337.076C385.327 337.377 385.541 337.73 385.68 338.114C385.819 338.498 385.881 338.905 385.863 339.313Z" fill="url(#paint21_radial_5922_4070)" style="mix-blend-mode:screen"/>
<path d="M122.858 352.663C122.834 353.279 122.627 353.873 122.265 354.37C121.902 354.868 121.4 355.247 120.821 355.459C120.243 355.67 119.615 355.705 119.017 355.559C118.419 355.413 117.877 355.092 117.462 354.638C117.046 354.184 116.775 353.616 116.683 353.007C116.59 352.398 116.681 351.776 116.943 351.218C117.206 350.661 117.627 350.195 118.155 349.878C118.683 349.561 119.294 349.408 119.909 349.439C120.314 349.456 120.712 349.554 121.08 349.726C121.448 349.897 121.778 350.14 122.052 350.439C122.326 350.739 122.538 351.089 122.676 351.471C122.815 351.853 122.876 352.258 122.858 352.663Z" fill="url(#paint22_radial_5922_4070)" style="mix-blend-mode:screen"/>
<path d="M245.306 149.31C245.278 149.924 245.069 150.516 244.704 151.011C244.339 151.506 243.835 151.882 243.257 152.09C242.679 152.299 242.051 152.331 241.454 152.183C240.858 152.035 240.318 151.713 239.905 151.258C239.491 150.803 239.222 150.235 239.131 149.627C239.04 149.019 239.132 148.397 239.394 147.841C239.657 147.285 240.079 146.82 240.606 146.504C241.134 146.187 241.743 146.035 242.357 146.065C243.178 146.106 243.949 146.47 244.502 147.078C245.055 147.686 245.344 148.489 245.306 149.31Z" fill="url(#paint23_radial_5922_4070)" style="mix-blend-mode:screen"/>
<path d="M156.065 93.492C156.037 94.1055 155.828 94.697 155.465 95.1918C155.101 95.6866 154.598 96.0624 154.021 96.2718C153.444 96.4812 152.817 96.5147 152.221 96.3682C151.624 96.2217 151.085 95.9018 150.67 95.4487C150.256 94.9956 149.985 94.4299 149.891 93.8228C149.798 93.2158 149.887 92.5948 150.147 92.0382C150.406 91.4816 150.825 91.0145 151.35 90.6959C151.875 90.3773 152.483 90.2214 153.096 90.248C153.919 90.2888 154.692 90.6523 155.248 91.2597C155.803 91.8671 156.097 92.6693 156.065 93.492Z" fill="url(#paint24_radial_5922_4070)" style="mix-blend-mode:screen"/>
<path d="M338.715 152.318C338.687 152.932 338.477 153.524 338.112 154.019C337.747 154.514 337.244 154.89 336.665 155.098C336.087 155.307 335.459 155.339 334.863 155.191C334.266 155.043 333.726 154.721 333.313 154.266C332.899 153.811 332.63 153.243 332.539 152.635C332.448 152.027 332.54 151.405 332.802 150.849C333.065 150.293 333.487 149.828 334.014 149.512C334.542 149.195 335.151 149.043 335.765 149.074C336.173 149.091 336.572 149.189 336.941 149.362C337.311 149.535 337.642 149.779 337.916 150.081C338.19 150.383 338.402 150.736 338.539 151.119C338.676 151.503 338.736 151.911 338.715 152.318Z" fill="url(#paint25_radial_5922_4070)" style="mix-blend-mode:screen"/>
<path d="M109.371 31.3435C109.343 31.9578 109.133 32.55 108.768 33.045C108.403 33.54 107.9 33.9157 107.321 34.1243C106.743 34.3329 106.116 34.3651 105.519 34.2169C104.922 34.0687 104.383 33.7467 103.969 33.2917C103.555 32.8367 103.286 32.2691 103.195 31.661C103.104 31.0528 103.196 30.4313 103.459 29.8753C103.721 29.3193 104.143 28.8537 104.671 28.5376C105.198 28.2214 105.807 28.069 106.422 28.0995C106.829 28.1171 107.229 28.2152 107.598 28.3881C107.967 28.561 108.298 28.8054 108.572 29.107C108.846 29.4086 109.058 29.7615 109.195 30.1454C109.332 30.5293 109.392 30.9365 109.371 31.3435Z" fill="url(#paint26_radial_5922_4070)" style="mix-blend-mode:screen"/>
<path d="M150.127 224.985C150.099 225.599 149.889 226.191 149.524 226.686C149.159 227.181 148.656 227.557 148.077 227.766C147.499 227.974 146.872 228.006 146.275 227.858C145.678 227.71 145.139 227.388 144.725 226.933C144.311 226.478 144.042 225.91 143.951 225.302C143.86 224.694 143.952 224.073 144.215 223.517C144.477 222.96 144.899 222.495 145.426 222.179C145.954 221.863 146.563 221.71 147.178 221.741C147.998 221.781 148.769 222.146 149.322 222.754C149.875 223.362 150.164 224.164 150.127 224.985Z" fill="url(#paint27_radial_5922_4070)" style="mix-blend-mode:screen"/>
<path d="M175.136 296.924C175.109 297.538 174.9 298.129 174.536 298.624C174.172 299.119 173.67 299.495 173.092 299.704C172.515 299.913 171.889 299.947 171.292 299.801C170.696 299.654 170.156 299.334 169.742 298.881C169.327 298.428 169.056 297.862 168.963 297.255C168.87 296.648 168.958 296.027 169.218 295.47C169.478 294.914 169.896 294.447 170.421 294.128C170.946 293.81 171.554 293.654 172.168 293.68C172.576 293.698 172.976 293.796 173.346 293.969C173.717 294.141 174.049 294.385 174.325 294.687C174.601 294.988 174.814 295.341 174.953 295.725C175.093 296.109 175.155 296.516 175.136 296.924Z" fill="url(#paint28_radial_5922_4070)" style="mix-blend-mode:screen"/>
<path d="M416.22 168.361C416.156 169.7 415.697 170.991 414.9 172.07C414.103 173.148 413.005 173.966 411.743 174.421C410.482 174.876 409.114 174.946 407.812 174.623C406.511 174.301 405.334 173.6 404.431 172.608C403.528 171.617 402.938 170.381 402.738 169.055C402.537 167.729 402.734 166.374 403.303 165.16C403.872 163.945 404.789 162.927 405.936 162.234C407.084 161.54 408.412 161.203 409.751 161.263C410.642 161.304 411.517 161.52 412.324 161.898C413.132 162.277 413.857 162.811 414.458 163.471C415.058 164.13 415.523 164.901 415.826 165.74C416.128 166.579 416.262 167.47 416.22 168.361Z" fill="url(#paint29_radial_5922_4070)" style="mix-blend-mode:screen"/>
<path d="M178.813 54.8187C178.754 56.1592 178.298 57.4518 177.503 58.5331C176.709 59.6144 175.611 60.4358 174.35 60.8933C173.088 61.3508 171.72 61.424 170.417 61.1034C169.114 60.7829 167.935 60.0832 167.03 59.0927C166.125 58.1022 165.534 56.8655 165.331 55.539C165.129 54.2125 165.325 52.8558 165.894 51.6406C166.463 50.4254 167.379 49.4062 168.528 48.712C169.676 48.0178 171.004 47.6798 172.345 47.7407C174.139 47.8274 175.826 48.6203 177.038 49.9463C178.25 51.2723 178.888 53.0239 178.813 54.8187Z" fill="url(#paint30_radial_5922_4070)" style="mix-blend-mode:screen"/>
<path d="M239.131 115.099C238.988 118.273 237.907 121.334 236.024 123.893C234.141 126.452 231.542 128.396 228.555 129.478C225.567 130.56 222.326 130.732 219.241 129.971C216.156 129.211 213.366 127.553 211.223 125.207C209.081 122.861 207.682 119.932 207.204 116.791C206.726 113.65 207.191 110.438 208.539 107.561C209.886 104.683 212.057 102.271 214.777 100.627C217.496 98.9839 220.641 98.184 223.815 98.3285C228.07 98.5223 232.074 100.398 234.946 103.543C237.818 106.688 239.323 110.845 239.131 115.099Z" fill="url(#paint31_radial_5922_4070)" style="mix-blend-mode:screen"/>
<path d="M106.813 304.631C106.67 307.805 105.589 310.864 103.707 313.423C101.826 315.982 99.2276 317.926 96.2414 319.009C93.2552 320.092 90.015 320.265 86.9305 319.506C83.8459 318.748 81.0555 317.092 78.912 314.748C76.7684 312.403 75.368 309.476 74.8878 306.336C74.4075 303.197 74.869 299.985 76.2139 297.107C77.5587 294.229 79.7266 291.815 82.4434 290.169C85.1602 288.523 88.304 287.72 91.4773 287.861C95.7336 288.054 99.7391 289.929 102.614 293.074C105.49 296.218 107 300.375 106.813 304.631Z" fill="url(#paint32_radial_5922_4070)" style="mix-blend-mode:screen"/>
<path d="M200.303 193.507C200.16 196.681 199.078 199.742 197.196 202.301C195.313 204.86 192.714 206.804 189.726 207.886C186.739 208.968 183.498 209.14 180.413 208.379C177.328 207.619 174.538 205.961 172.395 203.615C170.253 201.269 168.854 198.34 168.376 195.199C167.898 192.058 168.363 188.846 169.71 185.969C171.058 183.091 173.229 180.679 175.948 179.035C178.668 177.392 181.813 176.592 184.987 176.737C189.242 176.93 193.245 178.806 196.118 181.951C198.99 185.096 200.495 189.253 200.303 193.507Z" fill="url(#paint33_radial_5922_4070)" style="mix-blend-mode:screen"/>
<path d="M304.958 245.648C304.815 248.822 303.734 251.883 301.851 254.442C299.968 257.001 297.369 258.945 294.382 260.027C291.394 261.109 288.153 261.281 285.068 260.52C281.983 259.76 279.193 258.102 277.051 255.756C274.908 253.41 273.509 250.481 273.031 247.34C272.553 244.199 273.018 240.987 274.366 238.11C275.714 235.232 277.884 232.82 280.604 231.176C283.323 229.533 286.468 228.733 289.642 228.878C291.75 228.971 293.818 229.479 295.729 230.373C297.64 231.267 299.356 232.529 300.779 234.086C302.201 235.644 303.303 237.467 304.02 239.451C304.737 241.435 305.056 243.541 304.958 245.648Z" fill="url(#paint34_radial_5922_4070)" style="mix-blend-mode:screen"/>
<path d="M325.327 310.038C325.184 313.211 324.103 316.271 322.221 318.83C320.339 321.389 317.741 323.333 314.755 324.416C311.769 325.498 308.529 325.671 305.444 324.913C302.36 324.154 299.569 322.498 297.426 320.154C295.282 317.81 293.882 314.883 293.401 311.743C292.921 308.603 293.383 305.391 294.727 302.514C296.072 299.636 298.24 297.222 300.957 295.576C303.674 293.93 306.818 293.127 309.991 293.267C312.099 293.361 314.169 293.869 316.081 294.762C317.993 295.656 319.71 296.917 321.134 298.475C322.558 300.032 323.661 301.855 324.381 303.839C325.1 305.823 325.422 307.93 325.327 310.038Z" fill="url(#paint35_radial_5922_4070)" style="mix-blend-mode:screen"/>
<path d="M197.844 344.563C197.701 347.737 196.619 350.797 194.737 353.356C192.854 355.916 190.255 357.859 187.267 358.941C184.28 360.023 181.039 360.195 177.954 359.435C174.869 358.675 172.079 357.017 169.936 354.671C167.794 352.324 166.395 349.396 165.917 346.255C165.439 343.113 165.904 339.901 167.251 337.024C168.599 334.147 170.77 331.734 173.489 330.091C176.209 328.447 179.354 327.647 182.528 327.792C186.783 327.986 190.786 329.861 193.659 333.006C196.531 336.151 198.036 340.308 197.844 344.563Z" fill="url(#paint36_radial_5922_4070)" style="mix-blend-mode:screen"/>
<defs>
<linearGradient id="paint0_linear_5922_4070" x1="13.1881" y1="549.588" x2="403.538" y2="549.588" gradientUnits="userSpaceOnUse">
<stop stop-color="#20B3ED"/>
<stop offset="0.12" stop-color="#1A89B5"/>
<stop offset="0.25" stop-color="#13607E"/>
<stop offset="0.32" stop-color="#114F68"/>
<stop offset="0.68" stop-color="#114F68"/>
<stop offset="0.73" stop-color="#12536D"/>
<stop offset="0.79" stop-color="#135E7C"/>
<stop offset="0.85" stop-color="#167296"/>
<stop offset="0.92" stop-color="#1A8CB9"/>
<stop offset="0.99" stop-color="#1FADE5"/>
<stop offset="1" stop-color="#20B3ED"/>
</linearGradient>
<linearGradient id="paint1_linear_5922_4070" x1="44.0559" y1="410.349" x2="369.799" y2="410.349" gradientUnits="userSpaceOnUse">
<stop stop-color="#20B3ED"/>
<stop offset="0.12" stop-color="#1A89B5"/>
<stop offset="0.25" stop-color="#13607E"/>
<stop offset="0.32" stop-color="#114F68"/>
<stop offset="0.68" stop-color="#114F68"/>
<stop offset="0.73" stop-color="#12536D"/>
<stop offset="0.79" stop-color="#135E7C"/>
<stop offset="0.85" stop-color="#167296"/>
<stop offset="0.92" stop-color="#1A8CB9"/>
<stop offset="0.99" stop-color="#1FADE5"/>
<stop offset="1" stop-color="#20B3ED"/>
</linearGradient>
<linearGradient id="paint2_linear_5922_4070" x1="44.0559" y1="464.633" x2="369.799" y2="464.633" gradientUnits="userSpaceOnUse">
<stop stop-color="#20B3ED"/>
<stop offset="0.12" stop-color="#1A89B5"/>
<stop offset="0.25" stop-color="#13607E"/>
<stop offset="0.32" stop-color="#114F68"/>
<stop offset="0.68" stop-color="#114F68"/>
<stop offset="0.73" stop-color="#12536D"/>
<stop offset="0.79" stop-color="#135E7C"/>
<stop offset="0.85" stop-color="#167296"/>
<stop offset="0.92" stop-color="#1A8CB9"/>
<stop offset="0.99" stop-color="#1FADE5"/>
<stop offset="1" stop-color="#20B3ED"/>
</linearGradient>
<radialGradient id="paint3_radial_5922_4070" cx="0" cy="0" r="1" gradientUnits="userSpaceOnUse" gradientTransform="translate(350.278 203.122) scale(9.69288 9.69287)">
<stop stop-color="#E9F9FF"/>
<stop offset="0.11" stop-color="#CBF0FF"/>
<stop offset="0.27" stop-color="#97E2FF"/>
<stop offset="0.32" stop-color="#91D8F4" stop-opacity="0.96"/>
<stop offset="0.42" stop-color="#82C0D8" stop-opacity="0.84"/>
<stop offset="0.55" stop-color="#6A99AB" stop-opacity="0.64"/>
<stop offset="0.7" stop-color="#48646F" stop-opacity="0.37"/>
<stop offset="0.88" stop-color="#1C2528" stop-opacity="0.03"/>
<stop offset="0.9" stop-color="#151E21" stop-opacity="0"/>
</radialGradient>
<radialGradient id="paint4_radial_5922_4070" cx="0" cy="0" r="1" gradientUnits="userSpaceOnUse" gradientTransform="translate(107.347 182.478) scale(9.69289 9.69287)">
<stop stop-color="#E9F9FF"/>
<stop offset="0.11" stop-color="#CBF0FF"/>
<stop offset="0.27" stop-color="#97E2FF"/>
<stop offset="0.32" stop-color="#91D8F4" stop-opacity="0.96"/>
<stop offset="0.42" stop-color="#82C0D8" stop-opacity="0.84"/>
<stop offset="0.55" stop-color="#6A99AB" stop-opacity="0.64"/>
<stop offset="0.7" stop-color="#48646F" stop-opacity="0.37"/>
<stop offset="0.88" stop-color="#1C2528" stop-opacity="0.03"/>
<stop offset="0.9" stop-color="#151E21" stop-opacity="0"/>
</radialGradient>
<radialGradient id="paint5_radial_5922_4070" cx="0" cy="0" r="1" gradientUnits="userSpaceOnUse" gradientTransform="translate(109.587 242.758) scale(9.69287 9.69287)">
<stop stop-color="#E9F9FF"/>
<stop offset="0.11" stop-color="#CBF0FF"/>
<stop offset="0.27" stop-color="#97E2FF"/>
<stop offset="0.32" stop-color="#91D8F4" stop-opacity="0.96"/>
<stop offset="0.42" stop-color="#82C0D8" stop-opacity="0.84"/>
<stop offset="0.55" stop-color="#6A99AB" stop-opacity="0.64"/>
<stop offset="0.7" stop-color="#48646F" stop-opacity="0.37"/>
<stop offset="0.88" stop-color="#1C2528" stop-opacity="0.03"/>
<stop offset="0.9" stop-color="#151E21" stop-opacity="0"/>
</radialGradient>
<radialGradient id="paint6_radial_5922_4070" cx="0" cy="0" r="1" gradientUnits="userSpaceOnUse" gradientTransform="translate(274.209 182.34) scale(9.69291 9.69287)">
<stop stop-color="#E9F9FF"/>
<stop offset="0.11" stop-color="#CBF0FF"/>
<stop offset="0.27" stop-color="#97E2FF"/>
<stop offset="0.32" stop-color="#91D8F4" stop-opacity="0.96"/>
<stop offset="0.42" stop-color="#82C0D8" stop-opacity="0.84"/>
<stop offset="0.55" stop-color="#6A99AB" stop-opacity="0.64"/>
<stop offset="0.7" stop-color="#48646F" stop-opacity="0.37"/>
<stop offset="0.88" stop-color="#1C2528" stop-opacity="0.03"/>
<stop offset="0.9" stop-color="#151E21" stop-opacity="0"/>
</radialGradient>
<radialGradient id="paint7_radial_5922_4070" cx="0" cy="0" r="1" gradientUnits="userSpaceOnUse" gradientTransform="translate(93.4847 110.577) scale(9.69287 9.69288)">
<stop stop-color="#E9F9FF"/>
<stop offset="0.11" stop-color="#CBF0FF"/>
<stop offset="0.27" stop-color="#97E2FF"/>
<stop offset="0.32" stop-color="#91D8F4" stop-opacity="0.96"/>
<stop offset="0.42" stop-color="#82C0D8" stop-opacity="0.84"/>
<stop offset="0.55" stop-color="#6A99AB" stop-opacity="0.64"/>
<stop offset="0.7" stop-color="#48646F" stop-opacity="0.37"/>
<stop offset="0.88" stop-color="#1C2528" stop-opacity="0.03"/>
<stop offset="0.9" stop-color="#151E21" stop-opacity="0"/>
</radialGradient>
<radialGradient id="paint8_radial_5922_4070" cx="0" cy="0" r="1" gradientUnits="userSpaceOnUse" gradientTransform="translate(11.2032 168.046) scale(6.78304 6.78304)">
<stop stop-color="#E9F9FF"/>
<stop offset="0.11" stop-color="#CBF0FF"/>
<stop offset="0.27" stop-color="#97E2FF"/>
<stop offset="0.32" stop-color="#91D8F4" stop-opacity="0.96"/>
<stop offset="0.42" stop-color="#82C0D8" stop-opacity="0.84"/>
<stop offset="0.55" stop-color="#6A99AB" stop-opacity="0.64"/>
<stop offset="0.7" stop-color="#48646F" stop-opacity="0.37"/>
<stop offset="0.88" stop-color="#1C2528" stop-opacity="0.03"/>
<stop offset="0.9" stop-color="#151E21" stop-opacity="0"/>
</radialGradient>
<radialGradient id="paint9_radial_5922_4070" cx="0" cy="0" r="1" gradientUnits="userSpaceOnUse" gradientTransform="translate(60.67 243.486) scale(6.78304 6.78305)">
<stop stop-color="#E9F9FF"/>
<stop offset="0.11" stop-color="#CBF0FF"/>
<stop offset="0.27" stop-color="#97E2FF"/>
<stop offset="0.32" stop-color="#91D8F4" stop-opacity="0.96"/>
<stop offset="0.42" stop-color="#82C0D8" stop-opacity="0.84"/>
<stop offset="0.55" stop-color="#6A99AB" stop-opacity="0.64"/>
<stop offset="0.7" stop-color="#48646F" stop-opacity="0.37"/>
<stop offset="0.88" stop-color="#1C2528" stop-opacity="0.03"/>
<stop offset="0.9" stop-color="#151E21" stop-opacity="0"/>
</radialGradient>
<radialGradient id="paint10_radial_5922_4070" cx="0" cy="0" r="1" gradientUnits="userSpaceOnUse" gradientTransform="translate(353.912 122.295) scale(6.78304 6.78305)">
<stop stop-color="#E9F9FF"/>
<stop offset="0.11" stop-color="#CBF0FF"/>
<stop offset="0.27" stop-color="#97E2FF"/>
<stop offset="0.32" stop-color="#91D8F4" stop-opacity="0.96"/>
<stop offset="0.42" stop-color="#82C0D8" stop-opacity="0.84"/>
<stop offset="0.55" stop-color="#6A99AB" stop-opacity="0.64"/>
<stop offset="0.7" stop-color="#48646F" stop-opacity="0.37"/>
<stop offset="0.88" stop-color="#1C2528" stop-opacity="0.03"/>
<stop offset="0.9" stop-color="#151E21" stop-opacity="0"/>
</radialGradient>
<radialGradient id="paint11_radial_5922_4070" cx="0" cy="0" r="1" gradientUnits="userSpaceOnUse" gradientTransform="translate(258.637 71.8845) scale(6.78303 6.78305)">
<stop stop-color="#E9F9FF"/>
<stop offset="0.11" stop-color="#CBF0FF"/>
<stop offset="0.27" stop-color="#97E2FF"/>
<stop offset="0.32" stop-color="#91D8F4" stop-opacity="0.96"/>
<stop offset="0.42" stop-color="#82C0D8" stop-opacity="0.84"/>
<stop offset="0.55" stop-color="#6A99AB" stop-opacity="0.64"/>
<stop offset="0.7" stop-color="#48646F" stop-opacity="0.37"/>
<stop offset="0.88" stop-color="#1C2528" stop-opacity="0.03"/>
<stop offset="0.9" stop-color="#151E21" stop-opacity="0"/>
</radialGradient>
<radialGradient id="paint12_radial_5922_4070" cx="0" cy="0" r="1" gradientUnits="userSpaceOnUse" gradientTransform="translate(218.272 287.212) scale(6.78308 6.78305)">
<stop stop-color="#E9F9FF"/>
<stop offset="0.11" stop-color="#CBF0FF"/>
<stop offset="0.27" stop-color="#97E2FF"/>
<stop offset="0.32" stop-color="#91D8F4" stop-opacity="0.96"/>
<stop offset="0.42" stop-color="#82C0D8" stop-opacity="0.84"/>
<stop offset="0.55" stop-color="#6A99AB" stop-opacity="0.64"/>
<stop offset="0.7" stop-color="#48646F" stop-opacity="0.37"/>
<stop offset="0.88" stop-color="#1C2528" stop-opacity="0.03"/>
<stop offset="0.9" stop-color="#151E21" stop-opacity="0"/>
</radialGradient>
<radialGradient id="paint13_radial_5922_4070" cx="0" cy="0" r="1" gradientUnits="userSpaceOnUse" gradientTransform="translate(37.5878 335.126) scale(6.78304 6.78305)">
<stop stop-color="#E9F9FF"/>
<stop offset="0.11" stop-color="#CBF0FF"/>
<stop offset="0.27" stop-color="#97E2FF"/>
<stop offset="0.32" stop-color="#91D8F4" stop-opacity="0.96"/>
<stop offset="0.42" stop-color="#82C0D8" stop-opacity="0.84"/>
<stop offset="0.55" stop-color="#6A99AB" stop-opacity="0.64"/>
<stop offset="0.7" stop-color="#48646F" stop-opacity="0.37"/>
<stop offset="0.88" stop-color="#1C2528" stop-opacity="0.03"/>
<stop offset="0.9" stop-color="#151E21" stop-opacity="0"/>
</radialGradient>
<radialGradient id="paint14_radial_5922_4070" cx="0" cy="0" r="1" gradientUnits="userSpaceOnUse" gradientTransform="translate(303.032 335.598) scale(6.78305 6.78305)">
<stop stop-color="#E9F9FF"/>
<stop offset="0.11" stop-color="#CCF1FF"/>
<stop offset="0.27" stop-color="#97E2FF"/>
<stop offset="0.32" stop-color="#91D8F4" stop-opacity="0.96"/>
<stop offset="0.42" stop-color="#82C0D8" stop-opacity="0.84"/>
<stop offset="0.55" stop-color="#6A99AB" stop-opacity="0.64"/>
<stop offset="0.7" stop-color="#48646F" stop-opacity="0.37"/>
<stop offset="0.88" stop-color="#1C2528" stop-opacity="0.03"/>
<stop offset="0.9" stop-color="#151E21" stop-opacity="0"/>
</radialGradient>
<radialGradient id="paint15_radial_5922_4070" cx="0" cy="0" r="1" gradientUnits="userSpaceOnUse" gradientTransform="translate(382.757 270.929) scale(6.78323 6.78306)">
<stop stop-color="#E9F9FF"/>
<stop offset="0.11" stop-color="#CBF0FF"/>
<stop offset="0.27" stop-color="#97E2FF"/>
<stop offset="0.32" stop-color="#91D8F4" stop-opacity="0.96"/>
<stop offset="0.42" stop-color="#82C0D8" stop-opacity="0.84"/>
<stop offset="0.55" stop-color="#6A99AB" stop-opacity="0.64"/>
<stop offset="0.7" stop-color="#48646F" stop-opacity="0.37"/>
<stop offset="0.88" stop-color="#1C2528" stop-opacity="0.03"/>
<stop offset="0.9" stop-color="#151E21" stop-opacity="0"/>
</radialGradient>
<radialGradient id="paint16_radial_5922_4070" cx="0" cy="0" r="1" gradientUnits="userSpaceOnUse" gradientTransform="translate(251.834 397.825) scale(6.78304 6.78304)">
<stop stop-color="#E9F9FF"/>
<stop offset="0.11" stop-color="#CBF0FF"/>
<stop offset="0.27" stop-color="#97E2FF"/>
<stop offset="0.32" stop-color="#91D8F4" stop-opacity="0.96"/>
<stop offset="0.42" stop-color="#82C0D8" stop-opacity="0.84"/>
<stop offset="0.55" stop-color="#6A99AB" stop-opacity="0.64"/>
<stop offset="0.7" stop-color="#48646F" stop-opacity="0.37"/>
<stop offset="0.88" stop-color="#1C2528" stop-opacity="0.03"/>
<stop offset="0.9" stop-color="#151E21" stop-opacity="0"/>
</radialGradient>
<radialGradient id="paint17_radial_5922_4070" cx="0" cy="0" r="1" gradientUnits="userSpaceOnUse" gradientTransform="translate(324.5 68.1762) scale(3.10611 3.10645)">
<stop stop-color="#E9F9FF"/>
<stop offset="0.11" stop-color="#CBF0FF"/>
<stop offset="0.27" stop-color="#97E2FF"/>
<stop offset="0.32" stop-color="#91D8F4" stop-opacity="0.96"/>
<stop offset="0.42" stop-color="#82C0D8" stop-opacity="0.84"/>
<stop offset="0.55" stop-color="#6A99AB" stop-opacity="0.64"/>
<stop offset="0.7" stop-color="#48646F" stop-opacity="0.37"/>
<stop offset="0.88" stop-color="#1C2528" stop-opacity="0.03"/>
<stop offset="0.9" stop-color="#151E21" stop-opacity="0"/>
</radialGradient>
<radialGradient id="paint18_radial_5922_4070" cx="0" cy="0" r="1" gradientUnits="userSpaceOnUse" gradientTransform="translate(242.22 3.11027) scale(3.10646 3.10644)">
<stop stop-color="#E9F9FF"/>
<stop offset="0.11" stop-color="#CBF0FF"/>
<stop offset="0.27" stop-color="#97E2FF"/>
<stop offset="0.32" stop-color="#91D8F4" stop-opacity="0.96"/>
<stop offset="0.42" stop-color="#82C0D8" stop-opacity="0.84"/>
<stop offset="0.55" stop-color="#6A99AB" stop-opacity="0.64"/>
<stop offset="0.7" stop-color="#48646F" stop-opacity="0.37"/>
<stop offset="0.88" stop-color="#1C2528" stop-opacity="0.03"/>
<stop offset="0.9" stop-color="#151E21" stop-opacity="0"/>
</radialGradient>
<radialGradient id="paint19_radial_5922_4070" cx="0" cy="0" r="1" gradientUnits="userSpaceOnUse" gradientTransform="translate(3.12287 267.747) scale(3.10643)">
<stop stop-color="#E8F8FF"/>
<stop offset="0.11" stop-color="#CBF0FF"/>
<stop offset="0.27" stop-color="#97E2FF"/>
<stop offset="0.32" stop-color="#91D8F4" stop-opacity="0.96"/>
<stop offset="0.42" stop-color="#82C0D8" stop-opacity="0.84"/>
<stop offset="0.55" stop-color="#6A99AB" stop-opacity="0.64"/>
<stop offset="0.7" stop-color="#48646F" stop-opacity="0.37"/>
<stop offset="0.88" stop-color="#1C2528" stop-opacity="0.03"/>
<stop offset="0.9" stop-color="#151E21" stop-opacity="0"/>
</radialGradient>
<radialGradient id="paint20_radial_5922_4070" cx="0" cy="0" r="1" gradientUnits="userSpaceOnUse" gradientTransform="translate(150.146 397.825) scale(3.10643 3.10644)">
<stop stop-color="#E9F9FF"/>
<stop offset="0.11" stop-color="#CBF0FF"/>
<stop offset="0.27" stop-color="#97E2FF"/>
<stop offset="0.32" stop-color="#91D8F4" stop-opacity="0.96"/>
<stop offset="0.42" stop-color="#82C0D8" stop-opacity="0.84"/>
<stop offset="0.55" stop-color="#6A99AB" stop-opacity="0.64"/>
<stop offset="0.7" stop-color="#48646F" stop-opacity="0.37"/>
<stop offset="0.88" stop-color="#1C2528" stop-opacity="0.03"/>
<stop offset="0.9" stop-color="#151E21" stop-opacity="0"/>
</radialGradient>
<radialGradient id="paint21_radial_5922_4070" cx="0" cy="0" r="1" gradientUnits="userSpaceOnUse" gradientTransform="translate(382.757 339.176) scale(3.10643 3.10644)">
<stop stop-color="#E9F9FF"/>
<stop offset="0.11" stop-color="#CBF0FF"/>
<stop offset="0.27" stop-color="#97E2FF"/>
<stop offset="0.32" stop-color="#91D8F4" stop-opacity="0.96"/>
<stop offset="0.42" stop-color="#82C0D8" stop-opacity="0.84"/>
<stop offset="0.55" stop-color="#6A99AB" stop-opacity="0.64"/>
<stop offset="0.7" stop-color="#48646F" stop-opacity="0.37"/>
<stop offset="0.88" stop-color="#1C2528" stop-opacity="0.03"/>
<stop offset="0.9" stop-color="#151E21" stop-opacity="0"/>
</radialGradient>
<radialGradient id="paint22_radial_5922_4070" cx="0" cy="0" r="1" gradientUnits="userSpaceOnUse" gradientTransform="translate(119.751 352.552) scale(3.10692 3.10644)">
<stop stop-color="#E9F9FF"/>
<stop offset="0.11" stop-color="#CBF0FF"/>
<stop offset="0.27" stop-color="#97E2FF"/>
<stop offset="0.32" stop-color="#91D8F4" stop-opacity="0.96"/>
<stop offset="0.42" stop-color="#82C0D8" stop-opacity="0.84"/>
<stop offset="0.55" stop-color="#6A99AB" stop-opacity="0.64"/>
<stop offset="0.7" stop-color="#48646F" stop-opacity="0.37"/>
<stop offset="0.88" stop-color="#1C2528" stop-opacity="0.03"/>
<stop offset="0.9" stop-color="#151E21" stop-opacity="0"/>
</radialGradient>
<radialGradient id="paint23_radial_5922_4070" cx="0" cy="0" r="1" gradientUnits="userSpaceOnUse" gradientTransform="translate(242.2 149.179) scale(3.10654 3.10643)">
<stop stop-color="#E9F9FF"/>
<stop offset="0.11" stop-color="#CBF0FF"/>
<stop offset="0.27" stop-color="#97E2FF"/>
<stop offset="0.32" stop-color="#91D8F4" stop-opacity="0.96"/>
<stop offset="0.42" stop-color="#82C0D8" stop-opacity="0.84"/>
<stop offset="0.55" stop-color="#6A99AB" stop-opacity="0.64"/>
<stop offset="0.7" stop-color="#48646F" stop-opacity="0.37"/>
<stop offset="0.88" stop-color="#1C2528" stop-opacity="0.03"/>
<stop offset="0.9" stop-color="#151E21" stop-opacity="0"/>
</radialGradient>
<radialGradient id="paint24_radial_5922_4070" cx="0" cy="0" r="1" gradientUnits="userSpaceOnUse" gradientTransform="translate(152.958 93.3621) scale(3.10611 3.10643)">
<stop stop-color="#E9F9FF"/>
<stop offset="0.11" stop-color="#CBF0FF"/>
<stop offset="0.27" stop-color="#97E2FF"/>
<stop offset="0.32" stop-color="#91D8F4" stop-opacity="0.96"/>
<stop offset="0.42" stop-color="#82C0D8" stop-opacity="0.84"/>
<stop offset="0.55" stop-color="#6A99AB" stop-opacity="0.64"/>
<stop offset="0.7" stop-color="#48646F" stop-opacity="0.37"/>
<stop offset="0.88" stop-color="#1C2528" stop-opacity="0.03"/>
<stop offset="0.9" stop-color="#151E21" stop-opacity="0"/>
</radialGradient>
<radialGradient id="paint25_radial_5922_4070" cx="0" cy="0" r="1" gradientUnits="userSpaceOnUse" gradientTransform="translate(335.628 152.18) scale(3.10646 3.10643)">
<stop stop-color="#E8F8FF"/>
<stop offset="0.11" stop-color="#CBF0FF"/>
<stop offset="0.27" stop-color="#97E2FF"/>
<stop offset="0.32" stop-color="#91D8F4" stop-opacity="0.96"/>
<stop offset="0.42" stop-color="#82C0D8" stop-opacity="0.84"/>
<stop offset="0.55" stop-color="#6A99AB" stop-opacity="0.64"/>
<stop offset="0.7" stop-color="#48646F" stop-opacity="0.37"/>
<stop offset="0.88" stop-color="#1C2528" stop-opacity="0.03"/>
<stop offset="0.9" stop-color="#151E21" stop-opacity="0"/>
</radialGradient>
<radialGradient id="paint26_radial_5922_4070" cx="0" cy="0" r="1" gradientUnits="userSpaceOnUse" gradientTransform="translate(106.265 31.2127) scale(3.10698 3.10644)">
<stop stop-color="#E9F9FF"/>
<stop offset="0.11" stop-color="#CBF0FF"/>
<stop offset="0.27" stop-color="#97E2FF"/>
<stop offset="0.32" stop-color="#91D8F4" stop-opacity="0.96"/>
<stop offset="0.42" stop-color="#82C0D8" stop-opacity="0.84"/>
<stop offset="0.55" stop-color="#6A99AB" stop-opacity="0.64"/>
<stop offset="0.7" stop-color="#48646F" stop-opacity="0.37"/>
<stop offset="0.88" stop-color="#1C2528" stop-opacity="0.03"/>
<stop offset="0.9" stop-color="#151E21" stop-opacity="0"/>
</radialGradient>
<radialGradient id="paint27_radial_5922_4070" cx="0" cy="0" r="1" gradientUnits="userSpaceOnUse" gradientTransform="translate(147.04 224.847) scale(3.10646 3.10644)">
<stop stop-color="#E9F9FF"/>
<stop offset="0.11" stop-color="#CBF0FF"/>
<stop offset="0.27" stop-color="#97E2FF"/>
<stop offset="0.32" stop-color="#91D8F4" stop-opacity="0.96"/>
<stop offset="0.42" stop-color="#82C0D8" stop-opacity="0.84"/>
<stop offset="0.55" stop-color="#6A99AB" stop-opacity="0.64"/>
<stop offset="0.7" stop-color="#48646F" stop-opacity="0.37"/>
<stop offset="0.88" stop-color="#1C2528" stop-opacity="0.03"/>
<stop offset="0.9" stop-color="#151E21" stop-opacity="0"/>
</radialGradient>
<radialGradient id="paint28_radial_5922_4070" cx="0" cy="0" r="1" gradientUnits="userSpaceOnUse" gradientTransform="translate(172.03 296.787) scale(3.10645 3.10645)">
<stop stop-color="#E9F9FF"/>
<stop offset="0.11" stop-color="#CBF0FF"/>
<stop offset="0.27" stop-color="#97E2FF"/>
<stop offset="0.32" stop-color="#91D8F4" stop-opacity="0.96"/>
<stop offset="0.42" stop-color="#82C0D8" stop-opacity="0.84"/>
<stop offset="0.55" stop-color="#6A99AB" stop-opacity="0.64"/>
<stop offset="0.7" stop-color="#48646F" stop-opacity="0.37"/>
<stop offset="0.88" stop-color="#1C2528" stop-opacity="0.03"/>
<stop offset="0.9" stop-color="#151E21" stop-opacity="0"/>
</radialGradient>
<radialGradient id="paint29_radial_5922_4070" cx="0" cy="0" r="1" gradientUnits="userSpaceOnUse" gradientTransform="translate(409.437 168.046) scale(6.78304)">
<stop stop-color="#E9F9FF"/>
<stop offset="0.11" stop-color="#CBF0FF"/>
<stop offset="0.27" stop-color="#97E2FF"/>
<stop offset="0.32" stop-color="#91D8F4" stop-opacity="0.96"/>
<stop offset="0.42" stop-color="#82C0D8" stop-opacity="0.84"/>
<stop offset="0.55" stop-color="#6A99AB" stop-opacity="0.64"/>
<stop offset="0.7" stop-color="#48646F" stop-opacity="0.37"/>
<stop offset="0.88" stop-color="#1C2528" stop-opacity="0.03"/>
<stop offset="0.9" stop-color="#151E21" stop-opacity="0"/>
</radialGradient>
<radialGradient id="paint30_radial_5922_4070" cx="0" cy="0" r="1" gradientUnits="userSpaceOnUse" gradientTransform="translate(172.03 54.5237) scale(6.78304 6.78305)">
<stop stop-color="#E9F9FF"/>
<stop offset="0.11" stop-color="#CBF0FF"/>
<stop offset="0.27" stop-color="#97E2FF"/>
<stop offset="0.32" stop-color="#91D8F4" stop-opacity="0.96"/>
<stop offset="0.42" stop-color="#82C0D8" stop-opacity="0.84"/>
<stop offset="0.55" stop-color="#6A99AB" stop-opacity="0.64"/>
<stop offset="0.7" stop-color="#48646F" stop-opacity="0.37"/>
<stop offset="0.88" stop-color="#1C2528" stop-opacity="0.03"/>
<stop offset="0.9" stop-color="#151E21" stop-opacity="0"/>
</radialGradient>
<radialGradient id="paint31_radial_5922_4070" cx="0" cy="0" r="1" gradientUnits="userSpaceOnUse" gradientTransform="translate(222.99 114.372) scale(16.063 16.063)">
<stop stop-color="#E9F9FF"/>
<stop offset="0.11" stop-color="#CBF0FF"/>
<stop offset="0.27" stop-color="#97E2FF"/>
<stop offset="0.32" stop-color="#91D8F4" stop-opacity="0.96"/>
<stop offset="0.42" stop-color="#82C0D8" stop-opacity="0.84"/>
<stop offset="0.55" stop-color="#6A99AB" stop-opacity="0.64"/>
<stop offset="0.7" stop-color="#48646F" stop-opacity="0.37"/>
<stop offset="0.88" stop-color="#1C2528" stop-opacity="0.03"/>
<stop offset="0.9" stop-color="#151E21" stop-opacity="0"/>
</radialGradient>
<radialGradient id="paint32_radial_5922_4070" cx="0" cy="0" r="1" gradientUnits="userSpaceOnUse" gradientTransform="translate(90.7499 303.963) scale(16.063 16.063)">
<stop stop-color="#E9F9FF"/>
<stop offset="0.11" stop-color="#CBF0FF"/>
<stop offset="0.27" stop-color="#97E2FF"/>
<stop offset="0.32" stop-color="#91D8F4" stop-opacity="0.96"/>
<stop offset="0.42" stop-color="#82C0D8" stop-opacity="0.84"/>
<stop offset="0.55" stop-color="#6A99AB" stop-opacity="0.64"/>
<stop offset="0.7" stop-color="#48646F" stop-opacity="0.37"/>
<stop offset="0.88" stop-color="#1C2528" stop-opacity="0.03"/>
<stop offset="0.9" stop-color="#151E21" stop-opacity="0"/>
</radialGradient>
<radialGradient id="paint33_radial_5922_4070" cx="0" cy="0" r="1" gradientUnits="userSpaceOnUse" gradientTransform="translate(184.26 192.78) scale(16.063 16.063)">
<stop stop-color="#E9F9FF"/>
<stop offset="0.11" stop-color="#CBF0FF"/>
<stop offset="0.27" stop-color="#97E2FF"/>
<stop offset="0.32" stop-color="#91D8F4" stop-opacity="0.96"/>
<stop offset="0.42" stop-color="#82C0D8" stop-opacity="0.84"/>
<stop offset="0.55" stop-color="#6A99AB" stop-opacity="0.64"/>
<stop offset="0.7" stop-color="#48646F" stop-opacity="0.37"/>
<stop offset="0.88" stop-color="#1C2528" stop-opacity="0.03"/>
<stop offset="0.9" stop-color="#151E21" stop-opacity="0"/>
</radialGradient>
<radialGradient id="paint34_radial_5922_4070" cx="0" cy="0" r="1" gradientUnits="userSpaceOnUse" gradientTransform="translate(288.915 244.941) scale(16.063 16.063)">
<stop stop-color="#E9F9FF"/>
<stop offset="0.11" stop-color="#CBF0FF"/>
<stop offset="0.27" stop-color="#97E2FF"/>
<stop offset="0.32" stop-color="#91D8F4" stop-opacity="0.96"/>
<stop offset="0.42" stop-color="#82C0D8" stop-opacity="0.84"/>
<stop offset="0.55" stop-color="#6A99AB" stop-opacity="0.64"/>
<stop offset="0.7" stop-color="#48646F" stop-opacity="0.37"/>
<stop offset="0.88" stop-color="#1C2528" stop-opacity="0.03"/>
<stop offset="0.9" stop-color="#151E21" stop-opacity="0"/>
</radialGradient>
<radialGradient id="paint35_radial_5922_4070" cx="0" cy="0" r="1" gradientUnits="userSpaceOnUse" gradientTransform="translate(309.283 309.311) scale(16.063 16.063)">
<stop stop-color="#FCE9FF"/>
<stop offset="0.11" stop-color="#CBF0FF"/>
<stop offset="0.27" stop-color="#97E2FF"/>
<stop offset="0.32" stop-color="#91D8F4" stop-opacity="0.96"/>
<stop offset="0.42" stop-color="#82C0D8" stop-opacity="0.84"/>
<stop offset="0.55" stop-color="#6A99AB" stop-opacity="0.64"/>
<stop offset="0.7" stop-color="#48646F" stop-opacity="0.37"/>
<stop offset="0.88" stop-color="#1C2528" stop-opacity="0.03"/>
<stop offset="0.9" stop-color="#151E21" stop-opacity="0"/>
</radialGradient>
<radialGradient id="paint36_radial_5922_4070" cx="0" cy="0" r="1" gradientUnits="userSpaceOnUse" gradientTransform="translate(181.801 343.835) scale(16.063 16.063)">
<stop stop-color="#E9F9FF"/>
<stop offset="0.11" stop-color="#CBF0FF"/>
<stop offset="0.27" stop-color="#97E2FF"/>
<stop offset="0.32" stop-color="#91D8F4" stop-opacity="0.96"/>
<stop offset="0.42" stop-color="#82C0D8" stop-opacity="0.84"/>
<stop offset="0.55" stop-color="#6A99AB" stop-opacity="0.64"/>
<stop offset="0.7" stop-color="#48646F" stop-opacity="0.37"/>
<stop offset="0.88" stop-color="#1C2528" stop-opacity="0.03"/>
<stop offset="0.9" stop-color="#151E21" stop-opacity="0"/>
</radialGradient>
</defs>
</svg>
