<svg width="518" height="180" viewBox="0 0 518 180" fill="none" xmlns="http://www.w3.org/2000/svg">
<path d="M84.7153 69.0524C85.3876 69.3892 86.0119 69.7982 86.6843 70.0628C102.869 76.3894 108.584 90.9432 107.479 105.545C107.244 110.208 106.017 114.766 103.88 118.915C101.743 123.064 98.7454 126.707 95.0886 129.601C89.4356 133.796 82.8378 136.53 75.8787 137.563C71.3368 138.454 66.7235 138.929 62.0956 138.983C42.0693 139.175 22.043 139.127 2.06469 139.151C1.46438 139.151 0.864044 139.151 -0.0244141 139.007V6.31499C1.00812 6.31499 2.06468 6.05041 3.14524 6.05041H61.7114C70.243 5.90479 78.6897 7.76686 86.3721 11.487C107.047 21.6626 108.632 51.7804 92.0871 64.4096C89.7819 66.0454 87.2366 67.4166 84.7153 69.0524ZM19.3296 78.2177V122.504C20.194 122.504 20.7943 122.673 21.3947 122.673C33.785 122.673 46.1514 122.817 58.5178 122.673C63.0152 122.634 67.4968 122.134 71.8927 121.181C79.0964 119.594 85.1235 116.202 87.0925 108.432C87.9493 105.169 88.2976 101.794 88.125 98.4245C88.085 94.0489 86.5389 89.8211 83.7477 86.4552C80.9566 83.0893 77.0915 80.7914 72.8051 79.9496C69.0589 78.9908 65.2167 78.4583 61.3513 78.362C50.5937 78.1696 39.7401 78.362 29.1026 78.362L19.3296 78.2177ZM19.3296 22.2399V61.6432C20.2181 61.6432 20.8183 61.8117 21.4187 61.8117C34.0492 61.8117 46.6797 61.8117 59.3102 61.8117C62.176 61.7675 65.0308 61.4452 67.8346 60.8494C70.4421 60.4499 72.9426 59.5283 75.1869 58.1396C77.4312 56.751 79.3733 54.9236 80.8973 52.7667C82.6169 50.3123 83.7251 47.4811 84.1292 44.51C84.5333 41.5388 84.2217 38.5139 83.2203 35.6881C82.219 32.8622 80.557 30.3176 78.3732 28.2668C76.1895 26.2159 73.5475 24.7185 70.668 23.8997C66.1106 22.5484 61.3728 21.9074 56.6208 21.9993C45.359 21.879 34.1212 21.9993 22.8594 21.9993C21.7548 22.0234 20.6743 22.1437 19.3296 22.2399Z" fill="#0F172A"/>
<path d="M172.874 141.021C163.558 141.179 154.368 138.855 146.244 134.285C131.837 126.082 124.849 113.02 123.024 96.9504C122.251 90.0861 122.698 83.1389 124.345 76.4308C126.44 67.0107 131.436 58.4878 138.627 52.0651C145.818 45.6425 154.84 41.6446 164.422 40.6359C175.01 38.9948 185.846 40.4395 195.638 44.7975C201.44 47.3428 206.622 51.1194 210.826 55.8665C215.03 60.6136 218.155 66.2182 219.986 72.2932C222.393 79.2329 223.403 86.5817 222.958 93.9148C222.513 101.248 220.622 108.42 217.393 115.016C210.549 129.209 198.783 136.835 183.776 139.866C180.126 140.539 176.476 140.612 172.874 141.021ZM141.658 91.5379C141.802 92.6925 141.994 94.9297 142.306 97.1669C144.419 112.923 153.832 122.738 169.392 124.639C181.398 126.106 193.404 121.535 199.384 109.363C202.559 103.28 204.139 96.4875 203.975 89.6245C203.811 82.7615 201.909 76.0528 198.447 70.1282C196.632 66.7527 194.092 63.8221 191.012 61.5469C187.931 59.2717 184.385 57.7085 180.63 56.9697C178.562 56.4872 176.458 56.1814 174.339 56.0556C167.985 55.5108 161.628 57.0735 156.248 60.5031C150.868 63.9327 146.762 69.0389 144.563 75.0356C142.639 80.3179 141.632 85.8911 141.586 91.5139L141.658 91.5379Z" fill="#0F172A"/>
<path d="M468.64 114.898C478.245 90.6976 487.914 66.4975 497.647 42.2974H517.242C516.665 43.9332 516.257 45.3044 515.705 46.6034L496.831 91.9725C490.035 108.258 483.336 124.568 476.469 140.806C473.851 147.036 471.066 153.194 467.896 159.16C463.81 167.469 456.692 173.886 448.014 177.082C440.672 179.565 432.851 180.29 425.178 179.199C424.962 173.81 424.746 168.759 424.506 163.37C426.907 163.37 428.828 163.538 430.773 163.37C433.75 163.127 436.709 162.702 439.633 162.095C441.914 161.617 444.06 160.637 445.916 159.227C447.772 157.817 449.292 156.011 450.367 153.94C453.032 149.009 455.29 143.837 457.739 138.785C457.993 138.081 458.08 137.328 457.992 136.584C457.905 135.841 457.645 135.128 457.235 134.503L439.153 92.0447L419.055 44.7992C418.767 44.1256 418.599 43.4039 418.311 42.3936H438.505C448.23 66.4494 458.051 90.6735 467.896 114.922L468.64 114.898Z" fill="#0F172A"/>
<path d="M385.055 42.3898H410.7V57.2803C402.224 57.8095 393.772 57.0878 384.983 57.6892V138.877H366.422V57.6652C360.274 56.8954 354.415 57.6652 348.364 57.2081V42.3898H366.253C366.253 40.5134 366.253 39.046 366.253 37.5786C366.431 32.747 366.872 27.9287 367.574 23.1452C370.24 9.28906 380.469 2.02419 392.739 0.48462C398.831 -0.333949 405.018 -0.114303 411.037 1.13417C412.357 1.42284 413.654 1.83177 415.095 2.24072V17.1312C413.39 16.9147 411.853 16.602 410.292 16.5058C406.446 16.1294 402.582 15.9688 398.718 16.0247C395.681 16.0792 392.751 17.1584 390.403 19.088C388.054 21.0175 386.424 23.6844 385.776 26.6573C384.683 31.8273 384.44 37.1413 385.055 42.3898Z" fill="#0F172A"/>
<path d="M248.229 57.4071H229.956V42.3963H248.109C248.398 38.1384 248.109 34.1933 248.109 30.2241C248.109 26.2549 248.109 22.4781 248.109 18.4368L266.455 13.7939C266.747 16.9201 266.828 20.0627 266.695 23.1998C266.695 26.3511 266.695 29.4783 266.695 32.6056V42.2279H294.982V57.4311H267.175C267.031 58.7783 266.815 59.8367 266.815 60.6787C266.815 75.9781 266.815 91.2535 266.815 106.529C266.86 109.408 267.272 112.27 268.04 115.045C268.696 117.691 270.214 120.043 272.353 121.729C274.493 123.415 277.132 124.339 279.854 124.354C283.961 124.809 288.118 124.475 292.1 123.368C292.796 123.176 293.517 123.055 294.717 122.791C295.39 127.602 296.062 132.293 296.735 137.224C295.872 137.74 294.963 138.174 294.021 138.523C285.9 141.215 277.186 141.557 268.88 139.509C263.759 138.379 259.111 135.694 255.569 131.819C252.028 127.944 249.767 123.069 249.094 117.859C248.505 114.532 248.216 111.159 248.229 107.78C248.229 92.4804 248.229 77.205 248.229 61.9295V57.4071Z" fill="#0F172A"/>
<path d="M313.818 42.3889H332.044V139.069H313.818V42.3889Z" fill="#0F172A"/>
<path d="M312.231 23.6704V4.88281H333.458V23.4779C326.409 24.2818 319.295 24.3463 312.231 23.6704Z" fill="#0F172A"/>
</svg>
