<svg width="20" height="28" viewBox="0 0 20 28" fill="none" xmlns="http://www.w3.org/2000/svg">
<path d="M19.5026 3.45745C19.4091 3.61168 19.3652 3.69706 19.3102 3.77418C16.704 7.56571 14.0968 11.3563 11.4888 15.146C9.53321 17.9938 7.57947 20.8398 5.62755 23.6839C5.58465 23.7726 5.51736 23.8472 5.4336 23.8989C5.34984 23.9506 5.25308 23.9773 5.1547 23.9758C3.48045 23.9758 1.80346 23.9758 0.129211 23.9758C0.10172 23.9758 0.0714784 23.9758 0 23.9538C0.0466045 23.8534 0.100838 23.7567 0.162208 23.6646C2.28457 20.7232 4.42617 17.7955 6.52654 14.8513C9.00079 11.3591 11.4558 7.83929 13.9191 4.33327C13.9921 4.24743 14.0575 4.15526 14.1143 4.05785C14.3397 3.5566 14.7163 3.43817 15.2524 3.45745C16.4978 3.50152 17.7432 3.47397 18.9885 3.47673L19.5026 3.45745Z" fill="white"/>
<path d="M11.2225 20.382L4.12964 28L4.06641 27.9532L12.8638 15.1078C15.0823 18.0603 17.2789 20.9687 19.514 23.9762H19.0824C17.4494 23.9762 15.8191 23.9762 14.1861 23.9762C14.081 23.9859 13.9754 23.965 13.8818 23.9162C13.7882 23.8674 13.7106 23.7926 13.6583 23.7008C12.949 22.7093 12.2259 21.7288 11.5084 20.7456C11.4259 20.6382 11.338 20.528 11.2225 20.382Z" fill="white"/>
<path d="M5.99064 13.7294L0.181641 5.85806C0.368584 5.85806 0.4758 5.83327 0.583017 5.83327C2.19953 5.83327 3.81879 5.83327 5.4353 5.83327C5.54077 5.82642 5.64612 5.84842 5.74007 5.89694C5.83402 5.94545 5.91302 6.01864 5.96864 6.10868C6.43325 6.76142 6.91986 7.40038 7.39821 8.03658C7.48069 8.1495 7.57141 8.25692 7.70062 8.41941C10.2903 5.59366 12.8526 2.79545 15.4175 0L15.4835 0.0523294L5.99064 13.7294Z" fill="white"/>
</svg>
